<?xml version="1.0" encoding="UTF-8" standalone="no"?>
<svg
   xmlns:dc="http://purl.org/dc/elements/1.1/"
   xmlns:cc="http://creativecommons.org/ns#"
   xmlns:rdf="http://www.w3.org/1999/02/22-rdf-syntax-ns#"
   xmlns:svg="http://www.w3.org/2000/svg"
   xmlns="http://www.w3.org/2000/svg"
   xmlns:sodipodi="http://sodipodi.sourceforge.net/DTD/sodipodi-0.dtd"
   xmlns:inkscape="http://www.inkscape.org/namespaces/inkscape"
   width="171.04622pt"
   height="42.871864pt"
   viewBox="0 0 171.04622 42.871864"
   version="1.1"
   id="svg997"
   sodipodi:docname="amsoil-logo.svg"
   inkscape:version="0.92.2 (5c3e80d, 2017-08-06)">
  <metadata
     id="metadata1003">
    <rdf:RDF>
      <cc:Work
         rdf:about="">
        <dc:format>image/svg+xml</dc:format>
        <dc:type
           rdf:resource="http://purl.org/dc/dcmitype/StillImage" />
        <dc:title></dc:title>
      </cc:Work>
    </rdf:RDF>
  </metadata>
  <defs
     id="defs1001" />
  <sodipodi:namedview
     pagecolor="#ffffff"
     bordercolor="#666666"
     borderopacity="1"
     objecttolerance="10"
     gridtolerance="10"
     guidetolerance="10"
     inkscape:pageopacity="0"
     inkscape:pageshadow="2"
     inkscape:window-width="1920"
     inkscape:window-height="976"
     id="namedview999"
     showgrid="false"
     inkscape:zoom="4.3229938"
     inkscape:cx="143.00238"
     inkscape:cy="13.728067"
     inkscape:window-x="-8"
     inkscape:window-y="-8"
     inkscape:window-maximized="1"
     inkscape:current-layer="surface1" />
  <g
     id="surface1"
     transform="translate(-209.43196,-344.70823)">
    <path
       style="fill:#235eb3;fill-opacity:1;fill-rule:evenodd;stroke:none"
       d="m 237.48047,345.92578 c -1.12109,0 -2.32422,0.80469 -2.80469,1.44922 l -6.16797,8.75781 c -0.16015,0.32032 -0.32031,0.64453 -0.32031,1.04688 0,0.23828 0.082,0.5625 0.24219,0.80078 l 0.0781,0.16406 c 0.5625,0.72266 0.96094,0.80078 1.52344,0.80078 0,0 2.16016,0 3.92188,0 -2.64063,2.08985 -23.22657,18.64453 -23.22657,18.64453 -0.48047,0.32032 -0.72265,0.88282 -0.72265,1.44532 l 0.16015,0.5625 c 0.32032,0.72265 0.96094,1.20703 1.6836,1.20703 h 20.18359 c 0.16016,0 0.24219,0.082 0.24219,0.16015 0.082,0 0.082,0.082 0.082,0.082 -0.082,0.16015 -2.16406,3.45312 -2.16406,3.45312 -0.16016,0.32422 -0.32032,0.64453 -0.32032,0.96484 0,0.24219 0.0781,0.48438 0.23829,0.80469 0.40234,0.72266 0.96093,1.04297 1.68359,0.96485 0,0 106.45703,-8.59766 107.66016,-8.67969 h 30.51953 c 0.64062,0 1.19922,-0.32031 1.51953,-0.80469 6.64844,-9.96484 7.85156,-11.8125 8.09375,-12.29687 0,0.082 -0.082,0.24218 -0.082,0.24218 0.24218,-0.32031 0.32031,-0.64062 0.32031,-1.04297 l -0.0781,-0.40234 -0.16015,-0.40234 c -1.28516,-2.49219 -6.00781,-2.73047 -7.45313,-2.73047 1.125,-1.76953 7.77344,-12.45703 7.77344,-12.45703 0.16016,-0.24219 0.23828,-0.5625 0.23828,-0.96485 v -0.082 0.082 l -0.16015,-0.72265 c 0,0.0781 0,-0.082 0,-0.082 -0.32032,-0.5625 -0.96094,-0.96485 -1.60157,-0.96485 H 237.48047"
       id="path958"
       inkscape:connector-curvature="0" />
    <path
       style="fill:none;stroke:#235eb3;stroke-width:6.68399;stroke-linecap:round;stroke-linejoin:round;stroke-miterlimit:2.61310005;stroke-opacity:1"
       d="m 2378.6414,4453.5329 c -11.229,0 -23.2797,-7.9949 -28.0922,-14.4299 l -61.7793,-87.4373 c -1.6041,-3.237 -3.2083,-6.435 -3.2083,-10.4519 0,-2.418 0.8216,-5.616 2.4258,-8.034 l 0.7825,-1.599 c 5.6341,-7.2149 9.6249,-8.0339 15.259,-8.0339 0,0 21.6756,0 39.3212,0 -26.488,-20.8648 -232.68,-186.1456 -232.68,-186.1456 -4.8124,-3.198 -7.2382,-8.814 -7.2382,-14.4299 l 1.6041,-5.616 c 3.2083,-7.2149 9.6249,-12.0119 16.8632,-12.0119 h 202.162 c 1.6433,0 2.4258,-0.819 2.4258,-1.599 0.8216,0 0.8216,-0.819 0.8216,-0.819 -0.8216,-1.5989 -21.6756,-34.5147 -21.6756,-34.5147 -1.6041,-3.198 -3.2083,-6.396 -3.2083,-9.6329 0,-2.379 0.7826,-4.797 2.3867,-7.995 4.0299,-7.2149 9.6249,-10.4519 16.8631,-9.6329 0,0 1066.2903,85.8384 1078.341,86.6574 h 305.6884 c 6.4166,0 12.0115,3.1979 15.2198,7.9949 66.5918,99.4883 78.6425,117.9741 81.0683,122.7711 0,-0.819 -0.8217,-2.418 -0.8217,-2.418 2.4258,3.237 3.2084,6.435 3.2084,10.4519 l -0.7826,4.017 -1.6041,3.978 c -12.8332,24.8818 -60.1752,27.2998 -74.6125,27.2998 11.229,17.6668 77.8208,124.37 77.8208,124.37 1.6041,2.379 2.3866,5.616 2.3866,9.633 v 0.78 -0.78 l -1.6041,7.2149 v 0.78 c -3.2083,5.616 -9.6249,9.6329 -16.0415,9.6329 z m 0,0"
       transform="matrix(0.0998387,0,0,-0.100161,0,792)"
       id="path960"
       inkscape:connector-curvature="0" />
    <path
       style="fill:#235eb3;fill-opacity:1;fill-rule:evenodd;stroke:none"
       d="m 237.48047,345.92578 c -1.12109,0 -2.32422,0.80469 -2.80469,1.44922 l -6.16797,8.75781 c -0.16015,0.32032 -0.32031,0.64453 -0.32031,1.04688 0,0.23828 0.082,0.5625 0.24219,0.80078 l 0.0781,0.16406 c 0.5625,0.72266 0.96094,0.80078 1.52344,0.80078 0,0 2.16016,0 3.92188,0 -2.64063,2.08985 -23.22657,18.64453 -23.22657,18.64453 -0.48047,0.32032 -0.72265,0.88282 -0.72265,1.44532 l 0.16015,0.5625 c 0.32032,0.72265 0.96094,1.20703 1.6836,1.20703 h 20.18359 c 0.16016,0 0.24219,0.082 0.24219,0.16015 0.082,0 0.082,0.082 0.082,0.082 -0.082,0.16015 -2.16406,3.45312 -2.16406,3.45312 -0.16016,0.32422 -0.32032,0.64453 -0.32032,0.96484 0,0.24219 0.0781,0.48438 0.23829,0.80469 0.40234,0.72266 0.96093,1.04297 1.68359,0.96485 0,0 106.45703,-8.59766 107.66016,-8.67969 h 30.51953 c 0.64062,0 1.19922,-0.32031 1.51953,-0.80469 6.64844,-9.96484 7.85156,-11.8125 8.09375,-12.29687 0,0.082 -0.082,0.24218 -0.082,0.24218 0.24218,-0.32031 0.32031,-0.64062 0.32031,-1.04297 l -0.0781,-0.40234 -0.16015,-0.40234 c -1.28516,-2.49219 -6.00781,-2.73047 -7.45313,-2.73047 1.125,-1.76953 7.77344,-12.45703 7.77344,-12.45703 0.16016,-0.24219 0.23828,-0.5625 0.23828,-0.96485 v -0.082 0.082 l -0.16015,-0.72265 c 0,0.0781 0,-0.082 0,-0.082 -0.32032,-0.5625 -0.96094,-0.96485 -1.60157,-0.96485 H 237.48047"
       id="path962"
       inkscape:connector-curvature="0" />
    <path
       style="fill:none;stroke:#235eb3;stroke-width:6.68399;stroke-linecap:round;stroke-linejoin:round;stroke-miterlimit:2.61310005;stroke-opacity:1"
       d="m 2378.6414,4453.5329 c -11.229,0 -23.2797,-7.9949 -28.0922,-14.4299 l -61.7793,-87.4373 c -1.6041,-3.237 -3.2083,-6.435 -3.2083,-10.4519 0,-2.418 0.8216,-5.616 2.4258,-8.034 l 0.7825,-1.599 c 5.6341,-7.2149 9.6249,-8.0339 15.259,-8.0339 0,0 21.6756,0 39.3212,0 -26.488,-20.8648 -232.68,-186.1456 -232.68,-186.1456 -4.8124,-3.198 -7.2382,-8.814 -7.2382,-14.4299 l 1.6041,-5.616 c 3.2083,-7.2149 9.6249,-12.0119 16.8632,-12.0119 h 202.162 c 1.6433,0 2.4258,-0.819 2.4258,-1.599 0.8216,0 0.8216,-0.819 0.8216,-0.819 -0.8216,-1.5989 -21.6756,-34.5147 -21.6756,-34.5147 -1.6041,-3.198 -3.2083,-6.396 -3.2083,-9.6329 0,-2.379 0.7826,-4.797 2.3867,-7.995 4.0299,-7.2149 9.6249,-10.4519 16.8631,-9.6329 0,0 1066.2903,85.8384 1078.341,86.6574 h 305.6884 c 6.4166,0 12.0115,3.1979 15.2198,7.9949 66.5918,99.4883 78.6425,117.9741 81.0683,122.7711 0,-0.819 -0.8217,-2.418 -0.8217,-2.418 2.4258,3.237 3.2084,6.435 3.2084,10.4519 l -0.7826,4.017 -1.6041,3.978 c -12.8332,24.8818 -60.1752,27.2998 -74.6125,27.2998 11.229,17.6668 77.8208,124.37 77.8208,124.37 1.6041,2.379 2.3866,5.616 2.3866,9.633 v 0.78 -0.78 l -1.6041,7.2149 v 0.78 c -3.2083,5.616 -9.6249,9.6329 -16.0415,9.6329 z m 0,0"
       transform="matrix(0.0998387,0,0,-0.100161,0,792)"
       id="path964"
       inkscape:connector-curvature="0" />
    <path
       style="fill:#235eb3;fill-opacity:1;fill-rule:evenodd;stroke:none"
       d="m 237.48047,345.92578 c -1.12109,0 -2.32422,0.80469 -2.80469,1.44922 l -6.16797,8.75781 c -0.16015,0.32032 -0.32031,0.64453 -0.32031,1.04688 0,0.23828 0.082,0.5625 0.24219,0.80078 l 0.0781,0.16406 c 0.5625,0.72266 0.96094,0.80078 1.52344,0.80078 0,0 2.16016,0 3.92188,0 -2.64063,2.08985 -23.22657,18.64453 -23.22657,18.64453 -0.48047,0.32032 -0.72265,0.88282 -0.72265,1.44532 l 0.16015,0.5625 c 0.16016,0.5625 0.96094,1.20703 1.6836,1.20703 h 20.18359 c 0.16016,0 0.24219,0.082 0.24219,0.16015 0.082,0 0.082,0.082 0.082,0.082 -0.082,0.16015 -2.16406,3.45312 -2.16406,3.45312 -0.16016,0.32422 -0.32032,0.64453 -0.32032,0.96484 0,0.24219 0.0781,0.48438 0.23829,0.80469 0.40234,0.72266 0.96093,1.04297 1.68359,0.96485 0,0 106.45703,-8.59766 107.66016,-8.67969 h 30.51953 c 0.64062,0 1.19922,-0.32031 1.51953,-0.80469 6.64844,-9.96484 7.85156,-11.8125 8.09375,-12.29687 0,0.082 -0.082,0.24218 -0.082,0.24218 0.24218,-0.32031 0.32031,-0.64062 0.32031,-1.04297 l -0.0781,-0.40234 -0.16015,-0.40234 c -1.28516,-2.49219 -6.00781,-2.73047 -7.45313,-2.73047 1.125,-1.76953 7.77344,-12.45703 7.77344,-12.45703 0.16016,-0.24219 0.23828,-0.5625 0.23828,-0.96485 v -0.082 0.082 l -0.16015,-0.72265 c 0,0.0781 0,-0.082 0,-0.082 -0.32032,-0.5625 -0.96094,-0.96485 -1.60157,-0.96485 H 237.48047"
       id="path966"
       inkscape:connector-curvature="0" />
    <path
       style="fill:none;stroke:#235eb3;stroke-width:6.68399;stroke-linecap:round;stroke-linejoin:round;stroke-miterlimit:2.61310005;stroke-opacity:1"
       d="m 2378.6414,4453.5329 c -11.229,0 -23.2797,-7.9949 -28.0922,-14.4299 l -61.7793,-87.4373 c -1.6041,-3.237 -3.2083,-6.435 -3.2083,-10.4519 0,-2.418 0.8216,-5.616 2.4258,-8.034 l 0.7825,-1.599 c 5.6341,-7.2149 9.6249,-8.0339 15.259,-8.0339 0,0 21.6756,0 39.3212,0 -26.488,-20.8648 -232.68,-186.1456 -232.68,-186.1456 -4.8124,-3.198 -7.2382,-8.814 -7.2382,-14.4299 l 1.6041,-5.616 c 1.6042,-5.6159 9.6249,-12.0119 16.8632,-12.0119 h 202.162 c 1.6433,0 2.4258,-0.819 2.4258,-1.599 0.8216,0 0.8216,-0.819 0.8216,-0.819 -0.8216,-1.5989 -21.6756,-34.5147 -21.6756,-34.5147 -1.6041,-3.198 -3.2083,-6.396 -3.2083,-9.6329 0,-2.379 0.7826,-4.797 2.3867,-7.995 4.0299,-7.2149 9.6249,-10.4519 16.8631,-9.6329 0,0 1066.2903,85.8384 1078.341,86.6574 h 305.6884 c 6.4166,0 12.0115,3.1979 15.2198,7.9949 66.5918,99.4883 78.6425,117.9741 81.0683,122.7711 0,-0.819 -0.8217,-2.418 -0.8217,-2.418 2.4258,3.237 3.2084,6.435 3.2084,10.4519 l -0.7826,4.017 -1.6041,3.978 c -12.8332,24.8818 -60.1752,27.2998 -74.6125,27.2998 11.229,17.6668 77.8208,124.37 77.8208,124.37 1.6041,2.379 2.3866,5.616 2.3866,9.633 v 0.78 -0.78 l -1.6041,7.2149 v 0.78 c -3.2083,5.616 -9.6249,9.6329 -16.0415,9.6329 z m 0,0"
       transform="matrix(0.0998387,0,0,-0.100161,0,792)"
       id="path968"
       inkscape:connector-curvature="0" />
    <path
       style="fill:#ffffff;fill-opacity:1;fill-rule:evenodd;stroke:none"
       d="m 237.23828,345.04297 c -1.12109,0 -2.40234,0.72266 -2.80078,1.44531 l -6.16797,8.67969 c -0.16015,0.32031 -0.32031,0.72266 -0.32031,1.04687 0,0.32032 0.0781,0.5625 0.23828,0.88282 l 0.082,0.16015 c 0.5586,0.72266 0.96094,0.80469 1.44141,0.72266 0,0 2.24219,0 4.0039,0 -2.64453,2.17187 -23.23046,18.72656 -23.23046,18.72656 -0.48047,0.32031 -0.71875,0.80469 -0.71875,1.36328 l 0.0781,0.56641 h 0.082 c 0.32031,0.72266 0.96094,1.20312 1.67969,1.20312 l 20.1875,0.082 c 0.16016,0 0.23828,0 0.23828,0.0781 0.082,0.082 0.082,0.16016 0.082,0.16016 -0.082,0.082 -2.16406,3.45703 -2.16406,3.45703 -0.16016,0.24219 -0.32031,0.5625 -0.32031,0.88281 0,0.32422 0.082,0.5625 0.24218,0.80469 v 0.082 c 0.39844,0.64062 0.96094,0.96484 1.67969,0.96484 0,0 106.46094,-8.60156 107.58203,-8.67968 0.0781,0 30.59766,0 30.59766,0 0.64062,0 1.20312,-0.32422 1.52344,-0.80469 6.64843,-10.04688 7.85156,-11.89453 8.08984,-12.29688 -0.0781,0.082 -0.0781,0.16016 -0.0781,0.16016 0.23828,-0.23828 0.32031,-0.64063 0.32031,-0.96094 l -0.082,-0.48437 -0.16016,-0.32032 c -1.28125,-2.57031 -6.00781,-2.8125 -7.44922,-2.8125 1.1211,-1.76953 7.76953,-12.3789 7.76953,-12.3789 0.16016,-0.32031 0.24219,-0.64063 0.24219,-0.96094 v -0.082 l -0.16016,-0.64063 v -0.16406 c -0.32031,-0.5625 -0.96484,-0.88281 -1.60546,-0.88281 H 237.23828"
       id="path970"
       inkscape:connector-curvature="0" />
    <path
       style="fill:none;stroke:#235eb3;stroke-width:6.68399;stroke-linecap:round;stroke-linejoin:round;stroke-miterlimit:2.61310005;stroke-opacity:1"
       d="m 2376.2156,4462.3859 c -11.229,0 -24.0622,-7.254 -28.053,-14.4689 l -61.7794,-86.6184 c -1.6041,-3.237 -3.2083,-7.2539 -3.2083,-10.4519 0,-3.198 0.7826,-5.616 2.3867,-8.8139 l 0.8216,-1.638 c 5.595,-7.215 9.6249,-7.995 14.4374,-7.215 0,0 22.4581,0 40.1037,0 -26.488,-21.6448 -232.68,-186.9256 -232.68,-186.9256 -4.8124,-3.198 -7.1991,-8.0339 -7.1991,-13.6499 l 0.7825,-5.6159 h 0.8217 c 3.2083,-7.215 9.6249,-12.0119 16.824,-12.0119 l 202.2011,-0.819 c 1.6042,0 2.3867,0 2.3867,-0.78 0.8216,-0.819 0.8216,-1.638 0.8216,-1.638 -0.8216,-0.78 -21.6755,-34.4758 -21.6755,-34.4758 -1.6042,-2.418 -3.2083,-5.6159 -3.2083,-8.8529 0,-3.198 0.8216,-5.616 2.4257,-7.9949 v -0.819 c 3.9909,-6.435 9.6249,-9.633 16.8632,-9.633 0,0 1066.2902,85.8384 1077.5193,86.6574 h 306.4709 c 6.4166,0 12.0507,3.198 15.259,8.0339 66.5918,100.2683 78.6424,118.7541 81.0291,122.7321 -0.7825,-0.78 -0.7825,-1.599 -0.7825,-1.599 2.3866,2.418 3.2083,6.435 3.2083,9.633 l -0.8217,4.8359 -1.6041,3.198 c -12.8332,25.6618 -60.1752,28.0798 -74.6125,28.0798 11.229,17.6279 77.8208,123.5511 77.8208,123.5511 1.6042,3.198 2.4258,6.4349 2.4258,9.6329 v 0.819 l -1.6042,6.3959 v 1.599 c -3.2083,5.616 -9.664,8.853 -16.0806,8.853 z m 0,0"
       transform="matrix(0.0998387,0,0,-0.100161,0,792)"
       id="path972"
       inkscape:connector-curvature="0" />
    <path
       style="fill:#ffffff;fill-opacity:1;fill-rule:evenodd;stroke:none"
       d="m 237.23828,345.04297 c -1.12109,0 -2.40234,0.72266 -2.80078,1.44531 l -6.16797,8.67969 c -0.16015,0.32031 -0.32031,0.72266 -0.32031,1.04687 0,0.32032 0.0781,0.5625 0.23828,0.88282 l 0.082,0.16015 c 0.5586,0.72266 0.96094,0.80469 1.44141,0.72266 0,0 2.24219,0 4.0039,0 -2.64453,2.17187 -23.23046,18.72656 -23.23046,18.72656 -0.48047,0.32031 -0.71875,0.80469 -0.71875,1.36328 l 0.0781,0.56641 h 0.082 c 0.32031,0.72266 0.96094,1.20312 1.67969,1.20312 l 20.1875,0.082 c 0.16016,0 0.23828,0 0.23828,0.0781 0.082,0.082 0.082,0.16016 0.082,0.16016 -0.082,0.082 -2.16406,3.45703 -2.16406,3.45703 -0.16016,0.24219 -0.32031,0.5625 -0.32031,0.88281 0,0.32422 0.082,0.5625 0.24218,0.80469 v 0.082 c 0.39844,0.64062 0.96094,0.96484 1.67969,0.96484 0,0 106.46094,-8.60156 107.58203,-8.67968 0.0781,0 30.59766,0 30.59766,0 0.64062,0 1.20312,-0.32422 1.52344,-0.80469 6.64843,-10.04688 7.85156,-11.89453 8.08984,-12.29688 -0.0781,0.082 -0.0781,0.16016 -0.0781,0.16016 0.23828,-0.23828 0.32031,-0.64063 0.32031,-0.96094 l -0.082,-0.48437 -0.16016,-0.32032 c -1.28125,-2.57031 -6.00781,-2.8125 -7.44922,-2.8125 1.1211,-1.76953 7.76953,-12.3789 7.76953,-12.3789 0.16016,-0.32031 0.24219,-0.64063 0.24219,-0.96094 v -0.082 l -0.16016,-0.64063 v -0.16406 c -0.32031,-0.5625 -0.96484,-0.88281 -1.60546,-0.88281 H 237.23828"
       id="path974"
       inkscape:connector-curvature="0" />
    <path
       style="fill:none;stroke:#235eb3;stroke-width:6.68399;stroke-linecap:round;stroke-linejoin:round;stroke-miterlimit:2.61310005;stroke-opacity:1"
       d="m 2376.2156,4462.3859 c -11.229,0 -24.0622,-7.254 -28.053,-14.4689 l -61.7794,-86.6184 c -1.6041,-3.237 -3.2083,-7.2539 -3.2083,-10.4519 0,-3.198 0.7826,-5.616 2.3867,-8.8139 l 0.8216,-1.638 c 5.595,-7.215 9.6249,-7.995 14.4374,-7.215 0,0 22.4581,0 40.1037,0 -26.488,-21.6448 -232.68,-186.9256 -232.68,-186.9256 -4.8124,-3.198 -7.1991,-8.0339 -7.1991,-13.6499 l 0.7825,-5.6159 h 0.8217 c 3.2083,-7.215 9.6249,-12.0119 16.824,-12.0119 l 202.2011,-0.819 c 1.6042,0 2.3867,0 2.3867,-0.78 0.8216,-0.819 0.8216,-1.638 0.8216,-1.638 -0.8216,-0.78 -21.6755,-34.4758 -21.6755,-34.4758 -1.6042,-2.418 -3.2083,-5.6159 -3.2083,-8.8529 0,-3.198 0.8216,-5.616 2.4257,-7.9949 v -0.819 c 3.9909,-6.435 9.6249,-9.633 16.8632,-9.633 0,0 1066.2902,85.8384 1077.5193,86.6574 h 306.4709 c 6.4166,0 12.0507,3.198 15.259,8.0339 66.5918,100.2683 78.6424,118.7541 81.0291,122.7321 -0.7825,-0.78 -0.7825,-1.599 -0.7825,-1.599 2.3866,2.418 3.2083,6.435 3.2083,9.633 l -0.8217,4.8359 -1.6041,3.198 c -12.8332,25.6618 -60.1752,28.0798 -74.6125,28.0798 11.229,17.6279 77.8208,123.5511 77.8208,123.5511 1.6042,3.198 2.4258,6.4349 2.4258,9.6329 v 0.819 l -1.6042,6.3959 v 1.599 c -3.2083,5.616 -9.664,8.853 -16.0806,8.853 z m 0,0"
       transform="matrix(0.0998387,0,0,-0.100161,0,792)"
       id="path976"
       inkscape:connector-curvature="0" />
    <path
       style="fill:#ffffff;fill-opacity:1;fill-rule:evenodd;stroke:none"
       d="m 237.23828,345.04297 c -1.12109,0 -2.40234,0.72266 -2.80078,1.44531 l -6.16797,8.67969 c -0.16015,0.32031 -0.32031,0.72266 -0.32031,1.04687 0,0.32032 0.0781,0.5625 0.23828,0.88282 l 0.082,0.16015 c 0.5586,0.72266 0.96094,0.80469 1.44141,0.72266 0,0 2.24219,0 4.0039,0 -2.64453,2.17187 -23.23046,18.72656 -23.23046,18.72656 -0.48047,0.32031 -0.71875,0.80469 -0.71875,1.36328 l 0.0781,0.56641 h 0.082 c 0.0781,0.72266 0.96094,1.20312 1.67969,1.20312 l 20.1875,0.082 c 0.16016,0 0.23828,0 0.23828,0.0781 0.082,0.082 0.082,0.16016 0.082,0.16016 -0.082,0.082 -2.16406,3.45703 -2.16406,3.45703 -0.16016,0.24219 -0.32031,0.5625 -0.32031,0.88281 0,0.32422 0.082,0.5625 0.24218,0.80469 v 0.082 c 0.39844,0.64062 0.96094,0.96484 1.67969,0.96484 0,0 106.46094,-8.60156 107.58203,-8.67968 0.0781,0 30.59766,0 30.59766,0 0.64062,0 1.20312,-0.32422 1.52344,-0.80469 6.64843,-10.04688 7.85156,-11.89453 8.08984,-12.29688 -0.0781,0.082 -0.0781,0.16016 -0.0781,0.16016 0.23828,-0.23828 0.32031,-0.64063 0.32031,-0.96094 l -0.082,-0.48437 -0.16016,-0.32032 c -1.28125,-2.57031 -6.00781,-2.8125 -7.44922,-2.8125 1.1211,-1.76953 7.76953,-12.3789 7.76953,-12.3789 0.16016,-0.32031 0.24219,-0.64063 0.24219,-0.96094 v -0.082 l -0.16016,-0.64063 v -0.16406 c -0.32031,-0.5625 -0.96484,-0.88281 -1.60546,-0.88281 H 237.23828"
       id="path978"
       inkscape:connector-curvature="0" />
    <path
       style="fill:none;stroke:#235eb3;stroke-width:6.68399;stroke-linecap:round;stroke-linejoin:round;stroke-miterlimit:2.61310005;stroke-opacity:1"
       d="m 2376.2156,4462.3859 c -11.229,0 -24.0622,-7.254 -28.053,-14.4689 l -61.7794,-86.6184 c -1.6041,-3.237 -3.2083,-7.2539 -3.2083,-10.4519 0,-3.198 0.7826,-5.616 2.3867,-8.8139 l 0.8216,-1.638 c 5.595,-7.215 9.6249,-7.995 14.4374,-7.215 0,0 22.4581,0 40.1037,0 -26.488,-21.6448 -232.68,-186.9256 -232.68,-186.9256 -4.8124,-3.198 -7.1991,-8.0339 -7.1991,-13.6499 l 0.7825,-5.6159 h 0.8217 c 0.7825,-7.215 9.6249,-12.0119 16.824,-12.0119 l 202.2011,-0.819 c 1.6042,0 2.3867,0 2.3867,-0.78 0.8216,-0.819 0.8216,-1.638 0.8216,-1.638 -0.8216,-0.78 -21.6755,-34.4758 -21.6755,-34.4758 -1.6042,-2.418 -3.2083,-5.6159 -3.2083,-8.8529 0,-3.198 0.8216,-5.616 2.4257,-7.9949 v -0.819 c 3.9909,-6.435 9.6249,-9.633 16.8632,-9.633 0,0 1066.2902,85.8384 1077.5193,86.6574 h 306.4709 c 6.4166,0 12.0507,3.198 15.259,8.0339 66.5918,100.2683 78.6424,118.7541 81.0291,122.7321 -0.7825,-0.78 -0.7825,-1.599 -0.7825,-1.599 2.3866,2.418 3.2083,6.435 3.2083,9.633 l -0.8217,4.8359 -1.6041,3.198 c -12.8332,25.6618 -60.1752,28.0798 -74.6125,28.0798 11.229,17.6279 77.8208,123.5511 77.8208,123.5511 1.6042,3.198 2.4258,6.4349 2.4258,9.6329 v 0.819 l -1.6042,6.3959 v 1.599 c -3.2083,5.616 -9.664,8.853 -16.0806,8.853 z m 0,0"
       transform="matrix(0.0998387,0,0,-0.100161,0,792)"
       id="path980"
       inkscape:connector-curvature="0" />
    <path
       style="fill:#235eb3;fill-opacity:1;fill-rule:evenodd;stroke:none"
       d="m 327.67578,348.90234 c 0,0 13.6211,0 15.46094,0.0781 2.88281,0.32422 3.68359,2.57422 2.72266,4.09766 l -11.13282,17.51953 c -1.76172,2.8125 -4.32812,3.21484 -4.64843,3.21484 0,0 -14.4961,0 -14.73829,0 -3.04296,0.082 -4.24609,-2.57031 -3.20312,-4.33984 l 11.61719,-18.40235 c 1.35937,-2.00781 3.92187,-2.16797 3.92187,-2.16797 z m -0.64062,18.07813 c 0,0 0.64062,-0.0781 1.12109,-0.72266 0.48047,-0.72265 6.00781,-9.24218 6.00781,-9.24218 0,0 0.96485,-1.44532 -0.16015,-1.52735 -1.19922,-0.0781 -2.64063,-0.0781 -2.64063,-0.0781 0,0 -1.20312,-0.082 -1.76562,1.04297 -0.5586,1.125 -5.84375,9.32421 -5.84375,9.32421 0,0 -0.96485,1.20313 0.0781,1.28516 l 3.20313,-0.082"
       id="path982"
       inkscape:connector-curvature="0" />
    <path
       style="fill:#235eb3;fill-opacity:1;fill-rule:evenodd;stroke:none"
       d="m 335.92969,373.8125 15.85937,-24.83203 h 9.28907 l -15.77735,24.83203 h -9.37109"
       id="path984"
       inkscape:connector-curvature="0" />
    <path
       style="fill:#235eb3;fill-opacity:1;fill-rule:evenodd;stroke:none"
       d="m 348.34375,373.8125 15.85938,-24.83203 h 9.69531 l -10.81641,16.875 c 1.04297,0.24219 2.16406,-0.40234 2.16406,-0.40234 3.28516,-1.6836 7.44922,-1.84766 8.73047,-0.5586 l -5.76562,8.91797 h -19.86719"
       id="path986"
       inkscape:connector-curvature="0" />
    <path
       style="fill:#e82326;fill-opacity:1;fill-rule:evenodd;stroke:none"
       d="m 237.55859,348.98047 h 27.87891 l -16.58203,26.35937 h 63.92187 c 2.72266,0.082 1.1211,0.72266 -0.24218,0.96485 l -76.33594,5.70703 h -0.5625 l 7.21094,-11.33203 h -7.92969 l -6.17188,5.22265 -8.16796,-0.082 h -1.1211 l 25.55469,-21.45703 h -10.81641 z m 8.8125,15.91406 4.72657,-8.03906 -9.45313,8.03906 z m 0,0"
       id="path988"
       inkscape:connector-curvature="0" />
    <path
       style="fill:#e82326;fill-opacity:1;fill-rule:evenodd;stroke:none"
       d="m 252.69922,373.8125 15.62109,-24.75 h 8.41016 l -0.80078,10.52734 11.05469,-10.60937 9.45312,-0.0781 -15.62109,24.91016 h -9.29297 l 6.32812,-10.20703 -9.6914,8.27734 0.23828,-7.71093 -6.40625,9.64062 h -9.29297"
       id="path990"
       inkscape:connector-curvature="0" />
    <path
       style="fill:#e82326;fill-opacity:1;fill-rule:evenodd;stroke:none"
       d="m 283.53906,373.8125 6.57032,-10.44531 c 1.83984,3.69531 7.20703,5.46484 9.92968,3.85547 1.125,-0.64453 0.64453,-1.84766 0.64453,-1.84766 0,0 -4.5664,-7.63281 -4.88671,-8.19531 -1.04297,-1.69141 -0.32032,-4.10156 0.48046,-5.625 0.80079,-1.36719 2.5625,-2.57422 4.56641,-2.57422 1.28125,0 21.625,0 21.625,0 l -6.80859,10.60937 c -1.51953,-4.17968 -6.64844,-4.66015 -7.60938,-4.74218 -2.64453,-0.16016 -3.125,1.60547 -2.72265,2.25 l 5.04687,8.11718 c 0.64063,1.28516 0.39844,2.25 0.0781,2.8125 0,0 -1.19922,2.08985 -2.16016,3.53516 -0.80078,1.04297 -2.08203,2.00781 -3.44531,2.25 h -21.3086"
       id="path992"
       inkscape:connector-curvature="0" />
  </g>
</svg>
