<?xml version="1.0" encoding="UTF-8" standalone="no"?>
<svg
   xmlns:dc="http://purl.org/dc/elements/1.1/"
   xmlns:cc="http://creativecommons.org/ns#"
   xmlns:rdf="http://www.w3.org/1999/02/22-rdf-syntax-ns#"
   xmlns:svg="http://www.w3.org/2000/svg"
   xmlns="http://www.w3.org/2000/svg"
   xmlns:sodipodi="http://sodipodi.sourceforge.net/DTD/sodipodi-0.dtd"
   xmlns:inkscape="http://www.inkscape.org/namespaces/inkscape"
   width="176.07976pt"
   height="65.510521pt"
   viewBox="0 0 176.07976 65.510521"
   version="1.1"
   id="svg997"
   sodipodi:docname="Amsoil.svg"
   inkscape:version="0.92.2 (5c3e80d, 2017-08-06)">
  <metadata
     id="metadata1003">
    <rdf:RDF>
      <cc:Work
         rdf:about="">
        <dc:format>image/svg+xml</dc:format>
        <dc:type
           rdf:resource="http://purl.org/dc/dcmitype/StillImage" />
      </cc:Work>
    </rdf:RDF>
  </metadata>
  <defs
     id="defs1001" />
  <sodipodi:namedview
     pagecolor="#ffffff"
     bordercolor="#666666"
     borderopacity="1"
     objecttolerance="10"
     gridtolerance="10"
     guidetolerance="10"
     inkscape:pageopacity="0"
     inkscape:pageshadow="2"
     inkscape:window-width="1920"
     inkscape:window-height="976"
     id="namedview999"
     showgrid="false"
     inkscape:zoom="0.76420455"
     inkscape:cx="175.86519"
     inkscape:cy="67.374691"
     inkscape:window-x="-8"
     inkscape:window-y="-8"
     inkscape:window-maximized="1"
     inkscape:current-layer="svg997" />
  <g
     id="surface1"
     transform="translate(-209.43196,-344.70823)">
    <path
       style="fill:#0f0c0c;fill-opacity:1;fill-rule:evenodd;stroke:none"
       d="m 221.85938,396.87891 c -0.48047,0.64062 -2.40235,2.73047 -2.5625,3.21484 -0.082,0.48047 0.32031,1.20313 0.55859,1.20313 0.16016,0 1.125,-0.64454 1.20312,-0.88282 0,-0.64453 -0.0781,-1.60937 1.28125,-2.97265 z m 2.88281,0 c -0.5586,0.64062 -2.48047,2.73047 -2.5625,3.21484 -0.0781,0.48047 0.32031,1.20313 0.5625,1.20313 0.0781,0 1.12109,-0.64454 1.12109,-0.88282 0.0781,-0.64453 0,-1.60937 1.35938,-2.97265 l -0.48047,-0.5625"
       id="path912"
       inkscape:connector-curvature="0" />
    <path
       style="fill:#0f0c0c;fill-opacity:1;fill-rule:evenodd;stroke:none"
       d="m 234.51563,397.35938 h -8.49219 l -0.47656,2.16796 h 0.39843 c 0.40235,-1.04296 0.64063,-1.52343 1.84375,-1.52343 h 1.35938 l -1.51953,7.39062 c -0.16016,0.88672 -0.24219,0.80469 -1.36328,0.96485 l -0.0781,0.40234 h 4.32422 l 0.0781,-0.40234 c -1.19921,-0.0781 -1.19921,-0.16016 -1.03906,-0.96485 l 1.51953,-7.39062 h 1.28516 c 1.19922,0 1.28125,0.64062 1.28125,1.52343 h 0.39844 l 0.48047,-2.16796"
       id="path914"
       inkscape:connector-curvature="0" />
    <path
       style="fill:#0f0c0c;fill-opacity:1;fill-rule:evenodd;stroke:none"
       d="m 233.95313,406.76172 h 1.76562 l 0.32031,-1.125 c 0.5586,-2.41016 2.32032,-4.66016 3.20313,-4.66016 0.40234,0 0.32031,0.5625 0.16015,1.20313 l -0.80078,3.21484 c -0.16015,0.48438 -0.16015,0.88672 -0.082,1.125 0.082,0.16406 0.24219,0.32422 0.5625,0.40235 l 2.64453,-1.36719 -0.16015,-0.32031 -0.64063,0.32031 c -0.082,0.082 -0.24219,0.082 -0.32031,0.082 -0.24219,0 -0.24219,-0.24219 -0.16016,-0.64453 l 0.87891,-3.53516 c 0.24219,-1.20312 0,-1.52734 -0.71875,-1.52734 -1.28516,0 -3.04688,1.44922 -3.92578,2.73437 l 1.28125,-5.70703 -3.20313,0.24219 -0.082,0.40234 0.72266,-0.082 c 0.16015,0 0.39844,0 0.48047,0.24219 0.0781,0.16016 0,0.40234 -0.082,0.64062 l -1.84375,8.35938"
       id="path916"
       inkscape:connector-curvature="0" />
    <path
       style="fill:#0f0c0c;fill-opacity:1;fill-rule:evenodd;stroke:none"
       d="m 247.41406,404.99219 c -0.80078,0.5625 -1.36328,0.96484 -1.92578,0.96484 -1.12109,0 -1.35937,-1.36328 -1.03906,-2.65234 2.08203,0.40234 3.84375,-0.88281 3.84375,-2.16797 0,-0.80469 -0.55859,-1.20703 -1.19922,-1.20703 -2.64453,0 -4.56641,2.41406 -4.56641,4.5 0,0.80469 0.23829,2.49219 1.83985,2.49219 0.48437,0 1.20312,-0.16016 1.92187,-0.64063 l 1.36328,-0.88672 z m -2.88672,-2.08985 c 0.16016,-1.04296 1.20313,-2.57031 2.00391,-2.57031 0.24219,0 0.48047,0.16016 0.48047,0.5625 0,0.80469 -0.55859,2.33203 -2.48438,2.00781"
       id="path918"
       inkscape:connector-curvature="0" />
    <path
       style="fill:#0f0c0c;fill-opacity:1;fill-rule:evenodd;stroke:none"
       d="m 257.50781,398.00391 h 1.67969 c 0.88281,0 1.12109,0.64062 1.04297,1.52343 h 0.48047 l 0.39844,-2.16796 h -6.64844 l -0.0781,0.48437 c 1.1211,0.0781 1.20313,0.0781 0.96094,0.96094 l -1.28125,6.58984 c -0.24219,0.88672 -0.24219,0.80469 -1.44141,0.96485 l -0.082,0.40234 h 4.32422 l 0.082,-0.40234 c -1.12109,-0.0781 -1.12109,-0.16016 -0.96093,-0.96485 l 0.5625,-2.89062 h 1.19921 c 0.72266,0 0.88282,0.16015 0.96094,0.72265 v 0.5625 h 0.40235 l 0.64062,-3.13672 h -0.40234 l -0.23828,0.56641 c -0.32032,0.55859 -0.5625,0.72266 -1.20313,0.72266 h -1.20312 l 0.80468,-3.9375"
       id="path920"
       inkscape:connector-curvature="0" />
    <path
       style="fill:#0f0c0c;fill-opacity:1;fill-rule:evenodd;stroke:none"
       d="m 261.35156,401.21875 0.5586,-0.16406 c 0.16015,-0.0781 0.32031,-0.16016 0.40234,-0.16016 0.32031,0 0.24219,0.32422 0.16016,0.64453 l -0.80078,3.85547 c -0.16016,0.48438 -0.16016,0.88672 -0.082,1.125 0.16407,0.16406 0.32032,0.32422 0.64063,0.40235 l 2.56641,-1.36719 -0.16016,-0.32031 -0.5625,0.32031 c -0.16016,0.082 -0.32031,0.082 -0.39844,0.082 -0.24219,0 -0.24219,-0.24219 -0.082,-0.88281 l 0.88281,-4.17969 c 0.0781,-0.40234 0.0781,-0.72266 -0.24218,-0.64453 l -3.04297,0.96484 z m 2.24219,-2.01172 c 0.72266,0 1.12109,-0.5625 1.20313,-1.125 0.0781,-0.5625 -0.24219,-1.04297 -0.88282,-1.04297 -0.72265,0 -1.12109,0.48047 -1.19922,1.04297 -0.082,0.5625 0.23829,1.125 0.87891,1.125"
       id="path922"
       inkscape:connector-curvature="0" />
    <path
       style="fill:#0f0c0c;fill-opacity:1;fill-rule:evenodd;stroke:none"
       d="m 267.51953,406.76172 0.40235,-1.92969 c 0.23828,-1.04297 0.8789,-2.65234 1.4375,-3.05469 0.16015,-0.16015 0.40234,-0.23828 0.64453,-0.23828 0.23828,0 0.39843,0.0781 0.55859,0.16016 l 0.48047,-0.32031 0.32031,-1.44922 c -1.19922,0 -1.76172,0.72265 -2.88281,2.33203 h -0.082 l 0.48047,-1.6875 c 0.082,-0.40234 0.082,-0.72266 -0.32032,-0.64453 l -2.96093,0.96484 0.0781,0.32422 0.5625,-0.16406 c 0.23828,-0.0781 0.32031,-0.16016 0.48047,-0.16016 0.32031,0 0.23828,0.32422 0.16016,0.64453 l -1.1211,5.22266 h 1.76172"
       id="path924"
       inkscape:connector-curvature="0" />
    <path
       style="fill:#0f0c0c;fill-opacity:1;fill-rule:evenodd;stroke:none"
       d="m 276.49219,400.25391 c -0.5625,-0.24219 -1.28125,-0.32422 -1.92578,-0.32422 -1.19922,0 -2.24219,0.64453 -2.40235,1.52734 -0.16015,0.88672 0.40235,1.52735 1.1211,2.17188 0.72265,0.64062 1.04297,0.96484 1.04297,1.76562 0,0.40235 -0.48047,1.125 -1.28125,1.125 -0.72266,0 -1.36329,-0.64062 -1.36329,-1.60547 h -0.39843 l -0.24219,1.52735 c 0.40234,0.32031 1.04297,0.48047 2.00391,0.48047 1.76171,0 2.96484,-0.96485 2.96484,-2.00782 0,-0.88672 -0.5625,-1.52734 -1.125,-2.01172 -0.64063,-0.55859 -1.12109,-1.04296 -1.12109,-1.60546 0,-0.72266 0.64062,-0.96485 0.96093,-0.96485 0.64063,0 0.96094,0.5625 1.125,1.20703 H 276.25 l 0.24219,-1.28515"
       id="path926"
       inkscape:connector-curvature="0" />
    <path
       style="fill:#0f0c0c;fill-opacity:1;fill-rule:evenodd;stroke:none"
       d="m 282.73828,400.09375 h -2.0039 l 0.5625,-2.08984 h -0.64063 c -0.32031,0.39843 -0.88281,0.64062 -1.36328,0.80078 l -0.32031,1.28906 h -1.19922 l -0.16016,0.64063 h 1.19922 l -0.87891,4.33984 c -0.24218,1.125 0.0781,1.84766 1.03907,1.84766 l 2.80468,-0.80469 -0.16015,-0.48047 c -0.32031,0.16016 -0.88281,0.32031 -1.20313,0.32031 -0.48047,0 -0.8789,-0.23828 -0.55859,-1.52734 l 0.80078,-3.69531 h 1.52344 l 0.48047,-0.32032 0.0781,-0.32031"
       id="path928"
       inkscape:connector-curvature="0" />
    <path
       style="fill:#0f0c0c;fill-opacity:1;fill-rule:evenodd;stroke:none"
       d="m 287.0625,401.21875 0.64063,-0.16406 c 0.16015,-0.0781 0.32031,-0.16016 0.40234,-0.16016 0.32031,0 0.24219,0.32422 0.16016,0.64453 l -0.80079,3.85547 c -0.16015,0.48438 -0.16015,0.88672 -0.0781,1.125 0.0781,0.16406 0.23828,0.32422 0.55859,0.40235 l 2.64453,-1.36719 -0.16015,-0.32031 -0.64063,0.32031 c -0.082,0.082 -0.24218,0.082 -0.32031,0.082 -0.24219,0 -0.24219,-0.24219 -0.082,-0.88281 l 0.88281,-4.17969 c 0.0781,-0.40234 0.0781,-0.72266 -0.32031,-0.64453 l -2.96484,0.96484 z m 2.32422,-2.01172 c 0.72266,0 1.12109,-0.5625 1.20312,-1.125 0.0781,-0.5625 -0.24218,-1.04297 -0.88281,-1.04297 -0.71875,0 -1.12109,0.48047 -1.19922,1.04297 -0.082,0.5625 0.23828,1.125 0.87891,1.125"
       id="path930"
       inkscape:connector-curvature="0" />
    <path
       style="fill:#0f0c0c;fill-opacity:1;fill-rule:evenodd;stroke:none"
       d="m 291.46875,406.76172 h 1.84375 l 0.24219,-1.125 c 0.55859,-2.41016 2.40234,-4.66016 3.20312,-4.66016 0.48047,0 0.32032,0.5625 0.16016,1.20313 l -0.80078,3.21484 c -0.16016,0.48438 -0.16016,0.88672 0,1.125 0.0781,0.16406 0.23828,0.32422 0.55859,0.40235 l 2.5625,-1.36719 -0.16015,-0.32031 -0.5586,0.32031 c -0.16015,0.082 -0.32031,0.082 -0.40234,0.082 -0.15625,0 -0.23828,-0.24219 -0.15625,-0.64453 l 0.8789,-3.53516 c 0.32032,-1.20312 0,-1.52734 -0.64062,-1.52734 -1.28125,0 -3.125,1.44922 -3.92578,2.73437 h -0.082 l 0.48437,-2.08984 c 0.0781,-0.40234 0.0781,-0.72266 -0.32031,-0.64453 l -2.96484,0.96484 0.0781,0.32422 0.5625,-0.16406 c 0.16016,-0.0781 0.32031,-0.16016 0.48047,-0.16016 0.32031,0 0.24219,0.32422 0.16016,0.64453 l -1.20313,5.22266"
       id="path932"
       inkscape:connector-curvature="0" />
    <path
       style="fill:#0f0c0c;fill-opacity:1;fill-rule:evenodd;stroke:none"
       d="m 311.25781,397.76172 c 0,0 -0.082,-0.16016 -0.16406,-0.16016 -0.64062,-0.24218 -1.35937,-0.40234 -2.16016,-0.40234 -1.92187,0 -3.36718,0.96484 -3.36718,2.49219 0,0.72265 0.40234,1.52734 1.52343,2.48828 1.36329,1.20703 1.44141,1.92969 1.44141,2.49219 0,1.125 -0.80078,1.76953 -1.67969,1.76953 -1.20312,0 -1.84375,-0.96485 -1.84375,-2.25 h -0.40234 l -0.39844,2.00781 c 0,0.16016 0,0.16016 0.0781,0.24219 0.64062,0.24218 1.36328,0.48047 2.64453,0.48047 2.16406,0 3.60547,-1.36719 3.60547,-2.65235 0,-0.64062 -0.082,-1.52734 -1.28125,-2.73047 -1.1211,-1.04687 -1.6836,-1.60937 -1.6836,-2.49218 0,-0.88282 0.64063,-1.36719 1.36328,-1.36719 0.96094,0 1.44141,0.80469 1.51954,1.92969 h 0.40234 l 0.40234,-1.84766"
       id="path934"
       inkscape:connector-curvature="0" />
    <path
       style="fill:#0f0c0c;fill-opacity:1;fill-rule:evenodd;stroke:none"
       d="m 311.49609,409.89453 c 0.0781,0.082 0.0781,0.24219 0.23829,0.32422 h 0.48437 c 0.16016,0 0.31641,-0.082 0.31641,-0.32422 l 0.16015,-0.48047 c 0.082,-0.48047 0.48438,-1.125 0.96485,-1.76953 l 3.84375,-5.22265 c 0.39843,-0.5625 0.96093,-1.28516 0.88281,-1.60547 l -0.40234,-0.72266 c 0,-0.082 -0.082,-0.16406 -0.16016,-0.16406 l -0.40234,0.082 c -0.16016,0 -0.23829,0.082 -0.23829,0.24219 v 0.88281 c 0,0.24219 -0.082,0.80469 -0.5625,1.52734 l -1.76171,2.41016 -0.32032,-4.42188 c 0,-0.23828 0,-0.72265 -0.32031,-0.72265 l -2.64453,0.72265 0.16016,0.32422 c 0.16015,0 0.24218,-0.082 0.48437,-0.082 0.71875,0 0.71875,0.40235 0.80078,1.36719 l 0.32031,4.58203 c -0.40234,0.64063 -0.80468,1.125 -1.20312,1.6875 -0.40234,0.40234 -0.72266,0.64063 -0.64063,0.96094 v 0.40234"
       id="path936"
       inkscape:connector-curvature="0" />
    <path
       style="fill:#0f0c0c;fill-opacity:1;fill-rule:evenodd;stroke:none"
       d="m 318.86719,406.76172 h 1.76172 l 0.32031,-1.125 c 0.55859,-2.41016 2.32031,-4.66016 3.20312,-4.66016 0.40235,0 0.32032,0.5625 0.16016,1.20313 l -0.80078,3.21484 c -0.16016,0.48438 -0.16016,0.88672 -0.082,1.125 0.082,0.16406 0.24219,0.32422 0.5625,0.40235 l 2.64453,-1.36719 -0.16016,-0.32031 -0.64062,0.32031 c -0.082,0.082 -0.24219,0.082 -0.32031,0.082 -0.24219,0 -0.24219,-0.24219 -0.16016,-0.64453 l 0.87891,-3.53516 c 0.24218,-1.20312 0,-1.52734 -0.71875,-1.52734 -1.28516,0 -3.04688,1.44922 -3.92579,2.73437 l 0.48047,-2.08984 c 0.0781,-0.40234 0.0781,-0.72266 -0.32031,-0.64453 l -3.04687,0.96484 0.16406,0.32422 0.55859,-0.16406 c 0.16016,-0.0781 0.32031,-0.16016 0.48047,-0.16016 0.24219,0 0.16016,0.32422 0.16016,0.64453 l -1.19922,5.22266"
       id="path938"
       inkscape:connector-curvature="0" />
    <path
       style="fill:#0f0c0c;fill-opacity:1;fill-rule:evenodd;stroke:none"
       d="m 332.96484,400.09375 h -2.0039 l 0.5625,-2.08984 h -0.64063 c -0.32031,0.39843 -0.96093,0.64062 -1.44531,0.80078 l -0.23828,1.28906 h -1.20313 l -0.16015,0.64063 h 1.20312 l -0.88281,4.33984 c -0.32031,1.125 0.082,1.84766 1.04297,1.84766 l 2.72266,-0.80469 -0.0781,-0.48047 c -0.32031,0.16016 -0.88281,0.32031 -1.28125,0.32031 -0.40234,0 -0.80078,-0.23828 -0.48437,-1.52734 l 0.80468,-3.69531 h 1.51953 l 0.48047,-0.32032 0.082,-0.32031"
       id="path940"
       inkscape:connector-curvature="0" />
    <path
       style="fill:#0f0c0c;fill-opacity:1;fill-rule:evenodd;stroke:none"
       d="m 332.88281,406.76172 h 1.76172 l 0.24219,-1.125 c 0.55859,-2.41016 2.40234,-4.66016 3.20312,-4.66016 0.48047,0 0.32032,0.5625 0.16016,1.20313 l -0.80078,3.21484 c -0.16016,0.48438 -0.16016,0.88672 0,1.125 0.082,0.16406 0.24219,0.32422 0.5625,0.40235 l 2.5625,-1.36719 -0.16016,-0.32031 -0.5625,0.32031 c -0.16015,0.082 -0.32031,0.082 -0.39843,0.082 -0.16016,0 -0.24219,-0.24219 -0.16016,-0.64453 l 0.87891,-3.53516 c 0.32031,-1.20312 0,-1.52734 -0.64063,-1.52734 -1.28125,0 -3.125,1.44922 -3.92578,2.73437 h -0.0781 l 1.28125,-5.70703 -3.125,0.24219 -0.16015,0.40234 0.72265,-0.082 c 0.16016,0 0.39844,0 0.48047,0.24219 0.0781,0.16016 0,0.40234 0,0.64062 l -1.84375,8.35938"
       id="path942"
       inkscape:connector-curvature="0" />
    <path
       style="fill:#0f0c0c;fill-opacity:1;fill-rule:evenodd;stroke:none"
       d="m 346.26172,404.99219 c -0.72266,0.5625 -1.36328,0.96484 -1.92188,0.96484 -1.12109,0 -1.36328,-1.36328 -1.04296,-2.65234 2.16406,0.40234 3.84375,-0.88281 3.84375,-2.16797 0,-0.80469 -0.48047,-1.20703 -1.19922,-1.20703 -2.64453,0 -4.56641,2.41406 -4.56641,4.5 0,0.80469 0.23828,2.49219 1.84375,2.49219 0.48047,0 1.19922,-0.16016 1.92188,-0.64063 l 1.4414,-0.88672 z m -2.88281,-2.08985 c 0.16015,-1.04296 1.19922,-2.57031 2.08203,-2.57031 0.16015,0 0.39844,0.16016 0.39844,0.5625 0,0.80469 -0.5586,2.33203 -2.48047,2.00781"
       id="path944"
       inkscape:connector-curvature="0" />
    <path
       style="fill:#0f0c0c;fill-opacity:1;fill-rule:evenodd;stroke:none"
       d="m 353.23047,400.09375 h -1.92188 l 0.48047,-2.08984 h -0.5625 c -0.39843,0.39843 -0.96093,0.64062 -1.4414,0.80078 l -0.23828,1.28906 h -1.28125 l -0.16407,0.64063 h 1.28516 l -0.96094,4.33984 c -0.24219,1.125 0.16016,1.84766 1.1211,1.84766 l 2.72265,-0.80469 -0.16015,-0.48047 c -0.32032,0.16016 -0.88282,0.32031 -1.20313,0.32031 -0.39844,0 -0.80078,-0.23828 -0.55859,-1.52734 l 0.80078,-3.69531 H 352.75 l 0.39844,-0.32032 0.082,-0.32031"
       id="path946"
       inkscape:connector-curvature="0" />
    <path
       style="fill:#0f0c0c;fill-opacity:1;fill-rule:evenodd;stroke:none"
       d="m 353.23047,401.21875 0.64062,-0.16406 c 0.16016,-0.0781 0.32032,-0.16016 0.39844,-0.16016 0.32422,0 0.24219,0.32422 0.16406,0.64453 l -0.80468,3.85547 c -0.16016,0.48438 -0.16016,0.88672 -0.0781,1.125 0.0781,0.16406 0.23828,0.32422 0.5586,0.40235 l 2.64453,-1.36719 -0.16016,-0.32031 -0.64062,0.32031 c -0.082,0.082 -0.23829,0.082 -0.32032,0.082 -0.23828,0 -0.23828,-0.24219 -0.0781,-0.88281 l 0.8789,-4.17969 c 0.082,-0.40234 0.082,-0.72266 -0.32031,-0.64453 l -2.96484,0.96484 z m 2.32422,-2.01172 c 0.71875,0 1.12109,-0.5625 1.19922,-1.125 0.082,-0.5625 -0.23828,-1.04297 -0.88282,-1.04297 -0.71875,0 -1.11718,0.48047 -1.19921,1.04297 -0.0781,0.5625 0.23828,1.125 0.88281,1.125"
       id="path948"
       inkscape:connector-curvature="0" />
    <path
       style="fill:#0f0c0c;fill-opacity:1;fill-rule:evenodd;stroke:none"
       d="m 363.16406,401.13672 0.23828,-0.96484 c -0.32031,-0.16016 -0.8789,-0.24219 -1.36328,-0.24219 -0.47656,0 -1.19922,0.16406 -1.92187,0.48437 -2.48047,1.28516 -2.5625,3.85547 -2.5625,4.01563 0,0.88672 0.24219,2.49219 1.92187,2.49219 0.32032,0 1.125,-0.16016 1.84375,-0.64063 l 1.36328,-0.88672 -0.24218,-0.40234 c -0.80078,0.5625 -1.36328,0.96484 -1.92188,0.96484 -0.96094,0 -1.20312,-0.88281 -1.20312,-1.76562 0,-1.52735 0.88281,-3.69922 2.32422,-3.69922 0.48046,0 0.80078,0.40234 1.04296,0.80469 l 0.48047,-0.16016"
       id="path950"
       inkscape:connector-curvature="0" />
    <path
       style="fill:#0f0c0c;fill-opacity:1;fill-rule:evenodd;stroke:none"
       d="m 368.92969,400.25391 c -0.48047,-0.24219 -1.28125,-0.32422 -1.92188,-0.32422 -1.20312,0 -2.24218,0.64453 -2.40234,1.52734 -0.082,0.88672 0.39844,1.52735 1.12109,2.17188 0.71875,0.64062 1.04297,0.96484 1.04297,1.76562 0,0.40235 -0.40234,1.125 -1.28515,1.125 -0.71875,0 -1.35938,-0.64062 -1.35938,-1.60547 h -0.40234 l -0.23828,1.52735 c 0.48046,0.32031 1.03906,0.48047 2,0.48047 1.76171,0 2.96484,-0.96485 2.96484,-2.00782 0,-0.88672 -0.55859,-1.52734 -1.04297,-2.01172 -0.71875,-0.55859 -1.19922,-1.04296 -1.19922,-1.60546 0,-0.72266 0.64063,-0.96485 1.03906,-0.96485 0.5625,0 0.88282,0.5625 1.04297,1.20703 h 0.40235 l 0.23828,-1.28515"
       id="path952"
       inkscape:connector-curvature="0" />
    <path
       style="fill:#0f0c0c;fill-opacity:1;fill-rule:evenodd;stroke:none"
       d="m 371.33594,401.37891 c 0.55859,-0.64453 2.48047,-2.8125 2.5625,-3.29688 0.0781,-0.40234 -0.24219,-1.125 -0.5625,-1.125 -0.0781,0 -1.1211,0.64453 -1.1211,0.88672 -0.082,0.64063 0,1.60547 -1.36328,2.97266 z m 2.88281,0 c 0.55859,-0.64453 2.40234,-2.8125 2.5625,-3.29688 0.0781,-0.40234 -0.32031,-1.125 -0.5625,-1.125 -0.0781,0 -1.12109,0.64453 -1.12109,0.88672 -0.0781,0.64063 0,1.60547 -1.35938,2.97266 l 0.48047,0.5625"
       id="path954"
       inkscape:connector-curvature="0" />
    <path
       style="fill:#0f0c0c;fill-opacity:1;fill-rule:evenodd;stroke:none"
       d="m 382.06641,399.76953 h 0.48047 l 0.80078,1.44922 h 0.64062 l -0.8789,-1.44922 c 0.48046,-0.0781 0.80078,-0.32031 0.80078,-0.88281 0,-0.64453 -0.40235,-0.96484 -1.20313,-0.96484 h -1.19922 v 3.29687 h 0.5586 z m 0,-0.40234 v -0.96485 h 0.64062 c 0.32031,0 0.64063,0.082 0.64063,0.40235 0,0.48437 -0.32032,0.5625 -0.71875,0.5625 z m 3.44531,0.16015 c 0,-1.76562 -1.36328,-2.97265 -2.88281,-2.97265 -1.52344,0 -2.88282,1.20703 -2.88282,2.97265 0,1.69141 1.19922,2.89454 2.88282,2.89454 1.51953,0 2.88281,-1.125 2.88281,-2.89454 z m -0.64063,0 c 0,1.44922 -0.96093,2.41407 -2.24218,2.41407 -1.36328,0 -2.24219,-1.125 -2.24219,-2.41407 0,-1.44531 0.96094,-2.41015 2.24219,-2.41015 1.28125,0 2.24218,0.96484 2.24218,2.41015"
       id="path956"
       inkscape:connector-curvature="0" />
    <path
       style="fill:#235eb3;fill-opacity:1;fill-rule:evenodd;stroke:none"
       d="m 237.48047,345.92578 c -1.12109,0 -2.32422,0.80469 -2.80469,1.44922 l -6.16797,8.75781 c -0.16015,0.32032 -0.32031,0.64453 -0.32031,1.04688 0,0.23828 0.082,0.5625 0.24219,0.80078 l 0.0781,0.16406 c 0.5625,0.72266 0.96094,0.80078 1.52344,0.80078 0,0 2.16016,0 3.92188,0 -2.64063,2.08985 -23.22657,18.64453 -23.22657,18.64453 -0.48047,0.32032 -0.72265,0.88282 -0.72265,1.44532 l 0.16015,0.5625 c 0.32032,0.72265 0.96094,1.20703 1.6836,1.20703 h 20.18359 c 0.16016,0 0.24219,0.082 0.24219,0.16015 0.082,0 0.082,0.082 0.082,0.082 -0.082,0.16015 -2.16406,3.45312 -2.16406,3.45312 -0.16016,0.32422 -0.32032,0.64453 -0.32032,0.96484 0,0.24219 0.0781,0.48438 0.23829,0.80469 0.40234,0.72266 0.96093,1.04297 1.68359,0.96485 0,0 106.45703,-8.59766 107.66016,-8.67969 h 30.51953 c 0.64062,0 1.19922,-0.32031 1.51953,-0.80469 6.64844,-9.96484 7.85156,-11.8125 8.09375,-12.29687 0,0.082 -0.082,0.24218 -0.082,0.24218 0.24218,-0.32031 0.32031,-0.64062 0.32031,-1.04297 l -0.0781,-0.40234 -0.16015,-0.40234 c -1.28516,-2.49219 -6.00781,-2.73047 -7.45313,-2.73047 1.125,-1.76953 7.77344,-12.45703 7.77344,-12.45703 0.16016,-0.24219 0.23828,-0.5625 0.23828,-0.96485 v -0.082 0.082 l -0.16015,-0.72265 c 0,0.0781 0,-0.082 0,-0.082 -0.32032,-0.5625 -0.96094,-0.96485 -1.60157,-0.96485 H 237.48047"
       id="path958"
       inkscape:connector-curvature="0" />
    <path
       style="fill:none;stroke:#235eb3;stroke-width:6.68399;stroke-linecap:round;stroke-linejoin:round;stroke-miterlimit:2.61310005;stroke-opacity:1"
       d="m 2378.6414,4453.5329 c -11.229,0 -23.2797,-7.9949 -28.0922,-14.4299 l -61.7793,-87.4373 c -1.6041,-3.237 -3.2083,-6.435 -3.2083,-10.4519 0,-2.418 0.8216,-5.616 2.4258,-8.034 l 0.7825,-1.599 c 5.6341,-7.2149 9.6249,-8.0339 15.259,-8.0339 0,0 21.6756,0 39.3212,0 -26.488,-20.8648 -232.68,-186.1456 -232.68,-186.1456 -4.8124,-3.198 -7.2382,-8.814 -7.2382,-14.4299 l 1.6041,-5.616 c 3.2083,-7.2149 9.6249,-12.0119 16.8632,-12.0119 h 202.162 c 1.6433,0 2.4258,-0.819 2.4258,-1.599 0.8216,0 0.8216,-0.819 0.8216,-0.819 -0.8216,-1.5989 -21.6756,-34.5147 -21.6756,-34.5147 -1.6041,-3.198 -3.2083,-6.396 -3.2083,-9.6329 0,-2.379 0.7826,-4.797 2.3867,-7.995 4.0299,-7.2149 9.6249,-10.4519 16.8631,-9.6329 0,0 1066.2903,85.8384 1078.341,86.6574 h 305.6884 c 6.4166,0 12.0115,3.1979 15.2198,7.9949 66.5918,99.4883 78.6425,117.9741 81.0683,122.7711 0,-0.819 -0.8217,-2.418 -0.8217,-2.418 2.4258,3.237 3.2084,6.435 3.2084,10.4519 l -0.7826,4.017 -1.6041,3.978 c -12.8332,24.8818 -60.1752,27.2998 -74.6125,27.2998 11.229,17.6668 77.8208,124.37 77.8208,124.37 1.6041,2.379 2.3866,5.616 2.3866,9.633 v 0.78 -0.78 l -1.6041,7.2149 v 0.78 c -3.2083,5.616 -9.6249,9.6329 -16.0415,9.6329 z m 0,0"
       transform="matrix(0.0998387,0,0,-0.100161,0,792)"
       id="path960"
       inkscape:connector-curvature="0" />
    <path
       style="fill:#235eb3;fill-opacity:1;fill-rule:evenodd;stroke:none"
       d="m 237.48047,345.92578 c -1.12109,0 -2.32422,0.80469 -2.80469,1.44922 l -6.16797,8.75781 c -0.16015,0.32032 -0.32031,0.64453 -0.32031,1.04688 0,0.23828 0.082,0.5625 0.24219,0.80078 l 0.0781,0.16406 c 0.5625,0.72266 0.96094,0.80078 1.52344,0.80078 0,0 2.16016,0 3.92188,0 -2.64063,2.08985 -23.22657,18.64453 -23.22657,18.64453 -0.48047,0.32032 -0.72265,0.88282 -0.72265,1.44532 l 0.16015,0.5625 c 0.32032,0.72265 0.96094,1.20703 1.6836,1.20703 h 20.18359 c 0.16016,0 0.24219,0.082 0.24219,0.16015 0.082,0 0.082,0.082 0.082,0.082 -0.082,0.16015 -2.16406,3.45312 -2.16406,3.45312 -0.16016,0.32422 -0.32032,0.64453 -0.32032,0.96484 0,0.24219 0.0781,0.48438 0.23829,0.80469 0.40234,0.72266 0.96093,1.04297 1.68359,0.96485 0,0 106.45703,-8.59766 107.66016,-8.67969 h 30.51953 c 0.64062,0 1.19922,-0.32031 1.51953,-0.80469 6.64844,-9.96484 7.85156,-11.8125 8.09375,-12.29687 0,0.082 -0.082,0.24218 -0.082,0.24218 0.24218,-0.32031 0.32031,-0.64062 0.32031,-1.04297 l -0.0781,-0.40234 -0.16015,-0.40234 c -1.28516,-2.49219 -6.00781,-2.73047 -7.45313,-2.73047 1.125,-1.76953 7.77344,-12.45703 7.77344,-12.45703 0.16016,-0.24219 0.23828,-0.5625 0.23828,-0.96485 v -0.082 0.082 l -0.16015,-0.72265 c 0,0.0781 0,-0.082 0,-0.082 -0.32032,-0.5625 -0.96094,-0.96485 -1.60157,-0.96485 H 237.48047"
       id="path962"
       inkscape:connector-curvature="0" />
    <path
       style="fill:none;stroke:#235eb3;stroke-width:6.68399;stroke-linecap:round;stroke-linejoin:round;stroke-miterlimit:2.61310005;stroke-opacity:1"
       d="m 2378.6414,4453.5329 c -11.229,0 -23.2797,-7.9949 -28.0922,-14.4299 l -61.7793,-87.4373 c -1.6041,-3.237 -3.2083,-6.435 -3.2083,-10.4519 0,-2.418 0.8216,-5.616 2.4258,-8.034 l 0.7825,-1.599 c 5.6341,-7.2149 9.6249,-8.0339 15.259,-8.0339 0,0 21.6756,0 39.3212,0 -26.488,-20.8648 -232.68,-186.1456 -232.68,-186.1456 -4.8124,-3.198 -7.2382,-8.814 -7.2382,-14.4299 l 1.6041,-5.616 c 3.2083,-7.2149 9.6249,-12.0119 16.8632,-12.0119 h 202.162 c 1.6433,0 2.4258,-0.819 2.4258,-1.599 0.8216,0 0.8216,-0.819 0.8216,-0.819 -0.8216,-1.5989 -21.6756,-34.5147 -21.6756,-34.5147 -1.6041,-3.198 -3.2083,-6.396 -3.2083,-9.6329 0,-2.379 0.7826,-4.797 2.3867,-7.995 4.0299,-7.2149 9.6249,-10.4519 16.8631,-9.6329 0,0 1066.2903,85.8384 1078.341,86.6574 h 305.6884 c 6.4166,0 12.0115,3.1979 15.2198,7.9949 66.5918,99.4883 78.6425,117.9741 81.0683,122.7711 0,-0.819 -0.8217,-2.418 -0.8217,-2.418 2.4258,3.237 3.2084,6.435 3.2084,10.4519 l -0.7826,4.017 -1.6041,3.978 c -12.8332,24.8818 -60.1752,27.2998 -74.6125,27.2998 11.229,17.6668 77.8208,124.37 77.8208,124.37 1.6041,2.379 2.3866,5.616 2.3866,9.633 v 0.78 -0.78 l -1.6041,7.2149 v 0.78 c -3.2083,5.616 -9.6249,9.6329 -16.0415,9.6329 z m 0,0"
       transform="matrix(0.0998387,0,0,-0.100161,0,792)"
       id="path964"
       inkscape:connector-curvature="0" />
    <path
       style="fill:#235eb3;fill-opacity:1;fill-rule:evenodd;stroke:none"
       d="m 237.48047,345.92578 c -1.12109,0 -2.32422,0.80469 -2.80469,1.44922 l -6.16797,8.75781 c -0.16015,0.32032 -0.32031,0.64453 -0.32031,1.04688 0,0.23828 0.082,0.5625 0.24219,0.80078 l 0.0781,0.16406 c 0.5625,0.72266 0.96094,0.80078 1.52344,0.80078 0,0 2.16016,0 3.92188,0 -2.64063,2.08985 -23.22657,18.64453 -23.22657,18.64453 -0.48047,0.32032 -0.72265,0.88282 -0.72265,1.44532 l 0.16015,0.5625 c 0.16016,0.5625 0.96094,1.20703 1.6836,1.20703 h 20.18359 c 0.16016,0 0.24219,0.082 0.24219,0.16015 0.082,0 0.082,0.082 0.082,0.082 -0.082,0.16015 -2.16406,3.45312 -2.16406,3.45312 -0.16016,0.32422 -0.32032,0.64453 -0.32032,0.96484 0,0.24219 0.0781,0.48438 0.23829,0.80469 0.40234,0.72266 0.96093,1.04297 1.68359,0.96485 0,0 106.45703,-8.59766 107.66016,-8.67969 h 30.51953 c 0.64062,0 1.19922,-0.32031 1.51953,-0.80469 6.64844,-9.96484 7.85156,-11.8125 8.09375,-12.29687 0,0.082 -0.082,0.24218 -0.082,0.24218 0.24218,-0.32031 0.32031,-0.64062 0.32031,-1.04297 l -0.0781,-0.40234 -0.16015,-0.40234 c -1.28516,-2.49219 -6.00781,-2.73047 -7.45313,-2.73047 1.125,-1.76953 7.77344,-12.45703 7.77344,-12.45703 0.16016,-0.24219 0.23828,-0.5625 0.23828,-0.96485 v -0.082 0.082 l -0.16015,-0.72265 c 0,0.0781 0,-0.082 0,-0.082 -0.32032,-0.5625 -0.96094,-0.96485 -1.60157,-0.96485 H 237.48047"
       id="path966"
       inkscape:connector-curvature="0" />
    <path
       style="fill:none;stroke:#235eb3;stroke-width:6.68399;stroke-linecap:round;stroke-linejoin:round;stroke-miterlimit:2.61310005;stroke-opacity:1"
       d="m 2378.6414,4453.5329 c -11.229,0 -23.2797,-7.9949 -28.0922,-14.4299 l -61.7793,-87.4373 c -1.6041,-3.237 -3.2083,-6.435 -3.2083,-10.4519 0,-2.418 0.8216,-5.616 2.4258,-8.034 l 0.7825,-1.599 c 5.6341,-7.2149 9.6249,-8.0339 15.259,-8.0339 0,0 21.6756,0 39.3212,0 -26.488,-20.8648 -232.68,-186.1456 -232.68,-186.1456 -4.8124,-3.198 -7.2382,-8.814 -7.2382,-14.4299 l 1.6041,-5.616 c 1.6042,-5.6159 9.6249,-12.0119 16.8632,-12.0119 h 202.162 c 1.6433,0 2.4258,-0.819 2.4258,-1.599 0.8216,0 0.8216,-0.819 0.8216,-0.819 -0.8216,-1.5989 -21.6756,-34.5147 -21.6756,-34.5147 -1.6041,-3.198 -3.2083,-6.396 -3.2083,-9.6329 0,-2.379 0.7826,-4.797 2.3867,-7.995 4.0299,-7.2149 9.6249,-10.4519 16.8631,-9.6329 0,0 1066.2903,85.8384 1078.341,86.6574 h 305.6884 c 6.4166,0 12.0115,3.1979 15.2198,7.9949 66.5918,99.4883 78.6425,117.9741 81.0683,122.7711 0,-0.819 -0.8217,-2.418 -0.8217,-2.418 2.4258,3.237 3.2084,6.435 3.2084,10.4519 l -0.7826,4.017 -1.6041,3.978 c -12.8332,24.8818 -60.1752,27.2998 -74.6125,27.2998 11.229,17.6668 77.8208,124.37 77.8208,124.37 1.6041,2.379 2.3866,5.616 2.3866,9.633 v 0.78 -0.78 l -1.6041,7.2149 v 0.78 c -3.2083,5.616 -9.6249,9.6329 -16.0415,9.6329 z m 0,0"
       transform="matrix(0.0998387,0,0,-0.100161,0,792)"
       id="path968"
       inkscape:connector-curvature="0" />
    <path
       style="fill:#ffffff;fill-opacity:1;fill-rule:evenodd;stroke:none"
       d="m 237.23828,345.04297 c -1.12109,0 -2.40234,0.72266 -2.80078,1.44531 l -6.16797,8.67969 c -0.16015,0.32031 -0.32031,0.72266 -0.32031,1.04687 0,0.32032 0.0781,0.5625 0.23828,0.88282 l 0.082,0.16015 c 0.5586,0.72266 0.96094,0.80469 1.44141,0.72266 0,0 2.24219,0 4.0039,0 -2.64453,2.17187 -23.23046,18.72656 -23.23046,18.72656 -0.48047,0.32031 -0.71875,0.80469 -0.71875,1.36328 l 0.0781,0.56641 h 0.082 c 0.32031,0.72266 0.96094,1.20312 1.67969,1.20312 l 20.1875,0.082 c 0.16016,0 0.23828,0 0.23828,0.0781 0.082,0.082 0.082,0.16016 0.082,0.16016 -0.082,0.082 -2.16406,3.45703 -2.16406,3.45703 -0.16016,0.24219 -0.32031,0.5625 -0.32031,0.88281 0,0.32422 0.082,0.5625 0.24218,0.80469 v 0.082 c 0.39844,0.64062 0.96094,0.96484 1.67969,0.96484 0,0 106.46094,-8.60156 107.58203,-8.67968 0.0781,0 30.59766,0 30.59766,0 0.64062,0 1.20312,-0.32422 1.52344,-0.80469 6.64843,-10.04688 7.85156,-11.89453 8.08984,-12.29688 -0.0781,0.082 -0.0781,0.16016 -0.0781,0.16016 0.23828,-0.23828 0.32031,-0.64063 0.32031,-0.96094 l -0.082,-0.48437 -0.16016,-0.32032 c -1.28125,-2.57031 -6.00781,-2.8125 -7.44922,-2.8125 1.1211,-1.76953 7.76953,-12.3789 7.76953,-12.3789 0.16016,-0.32031 0.24219,-0.64063 0.24219,-0.96094 v -0.082 l -0.16016,-0.64063 v -0.16406 c -0.32031,-0.5625 -0.96484,-0.88281 -1.60546,-0.88281 H 237.23828"
       id="path970"
       inkscape:connector-curvature="0" />
    <path
       style="fill:none;stroke:#235eb3;stroke-width:6.68399;stroke-linecap:round;stroke-linejoin:round;stroke-miterlimit:2.61310005;stroke-opacity:1"
       d="m 2376.2156,4462.3859 c -11.229,0 -24.0622,-7.254 -28.053,-14.4689 l -61.7794,-86.6184 c -1.6041,-3.237 -3.2083,-7.2539 -3.2083,-10.4519 0,-3.198 0.7826,-5.616 2.3867,-8.8139 l 0.8216,-1.638 c 5.595,-7.215 9.6249,-7.995 14.4374,-7.215 0,0 22.4581,0 40.1037,0 -26.488,-21.6448 -232.68,-186.9256 -232.68,-186.9256 -4.8124,-3.198 -7.1991,-8.0339 -7.1991,-13.6499 l 0.7825,-5.6159 h 0.8217 c 3.2083,-7.215 9.6249,-12.0119 16.824,-12.0119 l 202.2011,-0.819 c 1.6042,0 2.3867,0 2.3867,-0.78 0.8216,-0.819 0.8216,-1.638 0.8216,-1.638 -0.8216,-0.78 -21.6755,-34.4758 -21.6755,-34.4758 -1.6042,-2.418 -3.2083,-5.6159 -3.2083,-8.8529 0,-3.198 0.8216,-5.616 2.4257,-7.9949 v -0.819 c 3.9909,-6.435 9.6249,-9.633 16.8632,-9.633 0,0 1066.2902,85.8384 1077.5193,86.6574 h 306.4709 c 6.4166,0 12.0507,3.198 15.259,8.0339 66.5918,100.2683 78.6424,118.7541 81.0291,122.7321 -0.7825,-0.78 -0.7825,-1.599 -0.7825,-1.599 2.3866,2.418 3.2083,6.435 3.2083,9.633 l -0.8217,4.8359 -1.6041,3.198 c -12.8332,25.6618 -60.1752,28.0798 -74.6125,28.0798 11.229,17.6279 77.8208,123.5511 77.8208,123.5511 1.6042,3.198 2.4258,6.4349 2.4258,9.6329 v 0.819 l -1.6042,6.3959 v 1.599 c -3.2083,5.616 -9.664,8.853 -16.0806,8.853 z m 0,0"
       transform="matrix(0.0998387,0,0,-0.100161,0,792)"
       id="path972"
       inkscape:connector-curvature="0" />
    <path
       style="fill:#ffffff;fill-opacity:1;fill-rule:evenodd;stroke:none"
       d="m 237.23828,345.04297 c -1.12109,0 -2.40234,0.72266 -2.80078,1.44531 l -6.16797,8.67969 c -0.16015,0.32031 -0.32031,0.72266 -0.32031,1.04687 0,0.32032 0.0781,0.5625 0.23828,0.88282 l 0.082,0.16015 c 0.5586,0.72266 0.96094,0.80469 1.44141,0.72266 0,0 2.24219,0 4.0039,0 -2.64453,2.17187 -23.23046,18.72656 -23.23046,18.72656 -0.48047,0.32031 -0.71875,0.80469 -0.71875,1.36328 l 0.0781,0.56641 h 0.082 c 0.32031,0.72266 0.96094,1.20312 1.67969,1.20312 l 20.1875,0.082 c 0.16016,0 0.23828,0 0.23828,0.0781 0.082,0.082 0.082,0.16016 0.082,0.16016 -0.082,0.082 -2.16406,3.45703 -2.16406,3.45703 -0.16016,0.24219 -0.32031,0.5625 -0.32031,0.88281 0,0.32422 0.082,0.5625 0.24218,0.80469 v 0.082 c 0.39844,0.64062 0.96094,0.96484 1.67969,0.96484 0,0 106.46094,-8.60156 107.58203,-8.67968 0.0781,0 30.59766,0 30.59766,0 0.64062,0 1.20312,-0.32422 1.52344,-0.80469 6.64843,-10.04688 7.85156,-11.89453 8.08984,-12.29688 -0.0781,0.082 -0.0781,0.16016 -0.0781,0.16016 0.23828,-0.23828 0.32031,-0.64063 0.32031,-0.96094 l -0.082,-0.48437 -0.16016,-0.32032 c -1.28125,-2.57031 -6.00781,-2.8125 -7.44922,-2.8125 1.1211,-1.76953 7.76953,-12.3789 7.76953,-12.3789 0.16016,-0.32031 0.24219,-0.64063 0.24219,-0.96094 v -0.082 l -0.16016,-0.64063 v -0.16406 c -0.32031,-0.5625 -0.96484,-0.88281 -1.60546,-0.88281 H 237.23828"
       id="path974"
       inkscape:connector-curvature="0" />
    <path
       style="fill:none;stroke:#235eb3;stroke-width:6.68399;stroke-linecap:round;stroke-linejoin:round;stroke-miterlimit:2.61310005;stroke-opacity:1"
       d="m 2376.2156,4462.3859 c -11.229,0 -24.0622,-7.254 -28.053,-14.4689 l -61.7794,-86.6184 c -1.6041,-3.237 -3.2083,-7.2539 -3.2083,-10.4519 0,-3.198 0.7826,-5.616 2.3867,-8.8139 l 0.8216,-1.638 c 5.595,-7.215 9.6249,-7.995 14.4374,-7.215 0,0 22.4581,0 40.1037,0 -26.488,-21.6448 -232.68,-186.9256 -232.68,-186.9256 -4.8124,-3.198 -7.1991,-8.0339 -7.1991,-13.6499 l 0.7825,-5.6159 h 0.8217 c 3.2083,-7.215 9.6249,-12.0119 16.824,-12.0119 l 202.2011,-0.819 c 1.6042,0 2.3867,0 2.3867,-0.78 0.8216,-0.819 0.8216,-1.638 0.8216,-1.638 -0.8216,-0.78 -21.6755,-34.4758 -21.6755,-34.4758 -1.6042,-2.418 -3.2083,-5.6159 -3.2083,-8.8529 0,-3.198 0.8216,-5.616 2.4257,-7.9949 v -0.819 c 3.9909,-6.435 9.6249,-9.633 16.8632,-9.633 0,0 1066.2902,85.8384 1077.5193,86.6574 h 306.4709 c 6.4166,0 12.0507,3.198 15.259,8.0339 66.5918,100.2683 78.6424,118.7541 81.0291,122.7321 -0.7825,-0.78 -0.7825,-1.599 -0.7825,-1.599 2.3866,2.418 3.2083,6.435 3.2083,9.633 l -0.8217,4.8359 -1.6041,3.198 c -12.8332,25.6618 -60.1752,28.0798 -74.6125,28.0798 11.229,17.6279 77.8208,123.5511 77.8208,123.5511 1.6042,3.198 2.4258,6.4349 2.4258,9.6329 v 0.819 l -1.6042,6.3959 v 1.599 c -3.2083,5.616 -9.664,8.853 -16.0806,8.853 z m 0,0"
       transform="matrix(0.0998387,0,0,-0.100161,0,792)"
       id="path976"
       inkscape:connector-curvature="0" />
    <path
       style="fill:#ffffff;fill-opacity:1;fill-rule:evenodd;stroke:none"
       d="m 237.23828,345.04297 c -1.12109,0 -2.40234,0.72266 -2.80078,1.44531 l -6.16797,8.67969 c -0.16015,0.32031 -0.32031,0.72266 -0.32031,1.04687 0,0.32032 0.0781,0.5625 0.23828,0.88282 l 0.082,0.16015 c 0.5586,0.72266 0.96094,0.80469 1.44141,0.72266 0,0 2.24219,0 4.0039,0 -2.64453,2.17187 -23.23046,18.72656 -23.23046,18.72656 -0.48047,0.32031 -0.71875,0.80469 -0.71875,1.36328 l 0.0781,0.56641 h 0.082 c 0.0781,0.72266 0.96094,1.20312 1.67969,1.20312 l 20.1875,0.082 c 0.16016,0 0.23828,0 0.23828,0.0781 0.082,0.082 0.082,0.16016 0.082,0.16016 -0.082,0.082 -2.16406,3.45703 -2.16406,3.45703 -0.16016,0.24219 -0.32031,0.5625 -0.32031,0.88281 0,0.32422 0.082,0.5625 0.24218,0.80469 v 0.082 c 0.39844,0.64062 0.96094,0.96484 1.67969,0.96484 0,0 106.46094,-8.60156 107.58203,-8.67968 0.0781,0 30.59766,0 30.59766,0 0.64062,0 1.20312,-0.32422 1.52344,-0.80469 6.64843,-10.04688 7.85156,-11.89453 8.08984,-12.29688 -0.0781,0.082 -0.0781,0.16016 -0.0781,0.16016 0.23828,-0.23828 0.32031,-0.64063 0.32031,-0.96094 l -0.082,-0.48437 -0.16016,-0.32032 c -1.28125,-2.57031 -6.00781,-2.8125 -7.44922,-2.8125 1.1211,-1.76953 7.76953,-12.3789 7.76953,-12.3789 0.16016,-0.32031 0.24219,-0.64063 0.24219,-0.96094 v -0.082 l -0.16016,-0.64063 v -0.16406 c -0.32031,-0.5625 -0.96484,-0.88281 -1.60546,-0.88281 H 237.23828"
       id="path978"
       inkscape:connector-curvature="0" />
    <path
       style="fill:none;stroke:#235eb3;stroke-width:6.68399;stroke-linecap:round;stroke-linejoin:round;stroke-miterlimit:2.61310005;stroke-opacity:1"
       d="m 2376.2156,4462.3859 c -11.229,0 -24.0622,-7.254 -28.053,-14.4689 l -61.7794,-86.6184 c -1.6041,-3.237 -3.2083,-7.2539 -3.2083,-10.4519 0,-3.198 0.7826,-5.616 2.3867,-8.8139 l 0.8216,-1.638 c 5.595,-7.215 9.6249,-7.995 14.4374,-7.215 0,0 22.4581,0 40.1037,0 -26.488,-21.6448 -232.68,-186.9256 -232.68,-186.9256 -4.8124,-3.198 -7.1991,-8.0339 -7.1991,-13.6499 l 0.7825,-5.6159 h 0.8217 c 0.7825,-7.215 9.6249,-12.0119 16.824,-12.0119 l 202.2011,-0.819 c 1.6042,0 2.3867,0 2.3867,-0.78 0.8216,-0.819 0.8216,-1.638 0.8216,-1.638 -0.8216,-0.78 -21.6755,-34.4758 -21.6755,-34.4758 -1.6042,-2.418 -3.2083,-5.6159 -3.2083,-8.8529 0,-3.198 0.8216,-5.616 2.4257,-7.9949 v -0.819 c 3.9909,-6.435 9.6249,-9.633 16.8632,-9.633 0,0 1066.2902,85.8384 1077.5193,86.6574 h 306.4709 c 6.4166,0 12.0507,3.198 15.259,8.0339 66.5918,100.2683 78.6424,118.7541 81.0291,122.7321 -0.7825,-0.78 -0.7825,-1.599 -0.7825,-1.599 2.3866,2.418 3.2083,6.435 3.2083,9.633 l -0.8217,4.8359 -1.6041,3.198 c -12.8332,25.6618 -60.1752,28.0798 -74.6125,28.0798 11.229,17.6279 77.8208,123.5511 77.8208,123.5511 1.6042,3.198 2.4258,6.4349 2.4258,9.6329 v 0.819 l -1.6042,6.3959 v 1.599 c -3.2083,5.616 -9.664,8.853 -16.0806,8.853 z m 0,0"
       transform="matrix(0.0998387,0,0,-0.100161,0,792)"
       id="path980"
       inkscape:connector-curvature="0" />
    <path
       style="fill:#235eb3;fill-opacity:1;fill-rule:evenodd;stroke:none"
       d="m 327.67578,348.90234 c 0,0 13.6211,0 15.46094,0.0781 2.88281,0.32422 3.68359,2.57422 2.72266,4.09766 l -11.13282,17.51953 c -1.76172,2.8125 -4.32812,3.21484 -4.64843,3.21484 0,0 -14.4961,0 -14.73829,0 -3.04296,0.082 -4.24609,-2.57031 -3.20312,-4.33984 l 11.61719,-18.40235 c 1.35937,-2.00781 3.92187,-2.16797 3.92187,-2.16797 z m -0.64062,18.07813 c 0,0 0.64062,-0.0781 1.12109,-0.72266 0.48047,-0.72265 6.00781,-9.24218 6.00781,-9.24218 0,0 0.96485,-1.44532 -0.16015,-1.52735 -1.19922,-0.0781 -2.64063,-0.0781 -2.64063,-0.0781 0,0 -1.20312,-0.082 -1.76562,1.04297 -0.5586,1.125 -5.84375,9.32421 -5.84375,9.32421 0,0 -0.96485,1.20313 0.0781,1.28516 l 3.20313,-0.082"
       id="path982"
       inkscape:connector-curvature="0" />
    <path
       style="fill:#235eb3;fill-opacity:1;fill-rule:evenodd;stroke:none"
       d="m 335.92969,373.8125 15.85937,-24.83203 h 9.28907 l -15.77735,24.83203 h -9.37109"
       id="path984"
       inkscape:connector-curvature="0" />
    <path
       style="fill:#235eb3;fill-opacity:1;fill-rule:evenodd;stroke:none"
       d="m 348.34375,373.8125 15.85938,-24.83203 h 9.69531 l -10.81641,16.875 c 1.04297,0.24219 2.16406,-0.40234 2.16406,-0.40234 3.28516,-1.6836 7.44922,-1.84766 8.73047,-0.5586 l -5.76562,8.91797 h -19.86719"
       id="path986"
       inkscape:connector-curvature="0" />
    <path
       style="fill:#e82326;fill-opacity:1;fill-rule:evenodd;stroke:none"
       d="m 237.55859,348.98047 h 27.87891 l -16.58203,26.35937 h 63.92187 c 2.72266,0.082 1.1211,0.72266 -0.24218,0.96485 l -76.33594,5.70703 h -0.5625 l 7.21094,-11.33203 h -7.92969 l -6.17188,5.22265 -8.16796,-0.082 h -1.1211 l 25.55469,-21.45703 h -10.81641 z m 8.8125,15.91406 4.72657,-8.03906 -9.45313,8.03906 z m 0,0"
       id="path988"
       inkscape:connector-curvature="0" />
    <path
       style="fill:#e82326;fill-opacity:1;fill-rule:evenodd;stroke:none"
       d="m 252.69922,373.8125 15.62109,-24.75 h 8.41016 l -0.80078,10.52734 11.05469,-10.60937 9.45312,-0.0781 -15.62109,24.91016 h -9.29297 l 6.32812,-10.20703 -9.6914,8.27734 0.23828,-7.71093 -6.40625,9.64062 h -9.29297"
       id="path990"
       inkscape:connector-curvature="0" />
    <path
       style="fill:#e82326;fill-opacity:1;fill-rule:evenodd;stroke:none"
       d="m 283.53906,373.8125 6.57032,-10.44531 c 1.83984,3.69531 7.20703,5.46484 9.92968,3.85547 1.125,-0.64453 0.64453,-1.84766 0.64453,-1.84766 0,0 -4.5664,-7.63281 -4.88671,-8.19531 -1.04297,-1.69141 -0.32032,-4.10156 0.48046,-5.625 0.80079,-1.36719 2.5625,-2.57422 4.56641,-2.57422 1.28125,0 21.625,0 21.625,0 l -6.80859,10.60937 c -1.51953,-4.17968 -6.64844,-4.66015 -7.60938,-4.74218 -2.64453,-0.16016 -3.125,1.60547 -2.72265,2.25 l 5.04687,8.11718 c 0.64063,1.28516 0.39844,2.25 0.0781,2.8125 0,0 -1.19922,2.08985 -2.16016,3.53516 -0.80078,1.04297 -2.08203,2.00781 -3.44531,2.25 h -21.3086"
       id="path992"
       inkscape:connector-curvature="0" />
    <path
       style="fill:#235eb3;fill-opacity:1;fill-rule:evenodd;stroke:none"
       d="m 380.22656,376.78516 c 0,1.20703 -0.88281,2.08984 -1.92578,2.08984 -1.19922,0 -1.92187,-0.96484 -1.92187,-2.08984 0,-1.20313 0.80078,-2.08985 1.92187,-2.08985 1.04297,0 1.92578,0.88672 1.92578,2.08985 z m -2.40625,0.24218 h 0.40235 l 0.71875,1.20704 h 0.48437 l -0.72265,-1.28907 c 0.40234,0 0.72265,-0.23828 0.72265,-0.72265 0,-0.5625 -0.40234,-0.80078 -1.04297,-0.80078 h -1.04297 v 2.8125 h 0.48047 z m 0,-0.40234 v -0.80469 h 0.48047 c 0.32031,0 0.64063,0 0.64063,0.40235 0,0.40234 -0.32032,0.40234 -0.64063,0.40234 z m 2.88672,0.16016 c 0,-1.52344 -1.12109,-2.48828 -2.40625,-2.48828 -1.35937,0 -2.48047,0.96484 -2.48047,2.48828 0,1.44922 1.03907,2.49218 2.48047,2.49218 1.28516,0 2.40625,-0.96484 2.40625,-2.49218"
       id="path994"
       inkscape:connector-curvature="0" />
  </g>
</svg>
