<?xml version="1.0" encoding="UTF-8" standalone="no"?>
<!-- Generator: Adobe Illustrator 21.1.0, SVG Export Plug-In . SVG Version: 6.00 Build 0)  -->

<svg
   xmlns:dc="http://purl.org/dc/elements/1.1/"
   xmlns:cc="http://creativecommons.org/ns#"
   xmlns:rdf="http://www.w3.org/1999/02/22-rdf-syntax-ns#"
   xmlns:svg="http://www.w3.org/2000/svg"
   xmlns="http://www.w3.org/2000/svg"
   xmlns:sodipodi="http://sodipodi.sourceforge.net/DTD/sodipodi-0.dtd"
   xmlns:inkscape="http://www.inkscape.org/namespaces/inkscape"
   version="1.1"
   id="Layer_1"
   x="0px"
   y="0px"
   viewBox="0 0 350.00001 194.2"
   xml:space="preserve"
   sodipodi:docname="gulf-logo-dtp.svg"
   width="350"
   height="194.2"
   inkscape:version="0.92.2 (5c3e80d, 2017-08-06)"><metadata
     id="metadata991"><rdf:RDF><cc:Work
         rdf:about=""><dc:format>image/svg+xml</dc:format><dc:type
           rdf:resource="http://purl.org/dc/dcmitype/StillImage" /><dc:title></dc:title></cc:Work></rdf:RDF></metadata><defs
     id="defs989" /><sodipodi:namedview
     pagecolor="#ffffff"
     bordercolor="#666666"
     borderopacity="1"
     objecttolerance="10"
     gridtolerance="10"
     guidetolerance="10"
     inkscape:pageopacity="0"
     inkscape:pageshadow="2"
     inkscape:window-width="1920"
     inkscape:window-height="976"
     id="namedview987"
     showgrid="false"
     inkscape:zoom="1.7237149"
     inkscape:cx="407.52669"
     inkscape:cy="97.7"
     inkscape:window-x="-8"
     inkscape:window-y="-8"
     inkscape:window-maximized="1"
     inkscape:current-layer="Layer_1"
     showguides="true"
     inkscape:guide-bbox="true" /><style
     type="text/css"
     id="style904">
	.st0{fill:#0061A1;}
	.st1{fill:#FFFFFF;}
	.st2{fill:#EC5E04;}
	.st3{fill:#1F3075;}
</style><path
     class="st0"
     d="m 280.9819,112.2 c 1.2,-8.2 1.2,-20.599994 0.1,-30.099994 -1.4,-14.8 -10.8,-18.9 -14.7,-19.9 -7,-18 -19.1,-33.4 -35.1,-44.5 -16.5,-11.5999998 -36,-17.6999999 -56.4,-17.6999999 -20.4,0 -39.7,6.1000001 -56.2,17.6999999 -16,11.2 -28.100004,26.5 -35.100004,44.5 -3.9,1.1 -13.3,5.2 -14.7,20 -1.1,9.5 -1,21.799994 0.1,29.999994 1.1,12.1 8.4,18.1 14.5,19.7 7,18 19.100004,33.4 35.100004,44.6 16.6,11.6 36.1,17.7 56.4,17.7 20.3,0 39.8,-6.1 56.4,-17.7 16,-11.2 28.1,-26.6 35.1,-44.6 6.2,-1.6 13.4,-7.6 14.5,-19.7 z"
     id="path906"
     inkscape:connector-curvature="0"
     style="fill:#0061a1" /><path
     class="st1"
     d="m 265.0819,129.2 c -0.5,0.1 -0.9,0.5 -1.1,0.9 -6.7,17.8 -18.6,33 -34.3,44 -16.1,11.2 -35,17.2 -54.7,17.2 -19.7,0 -38.7,-5.9 -54.7,-17.2 -15.7,-11 -27.600004,-26.2 -34.300004,-44 -0.2,-0.5 -0.6,-0.8 -1.1,-0.9 -5.4,-1.1 -12,-6.3 -13,-17.3 0,0 0,0 0,-0.1 -1.1,-8 -1.2,-20.099994 -0.1,-29.299994 1.3,-13.6 9.7,-16.8 13.2,-17.6 0.5,-0.1 0.9,-0.5 1.1,-0.9 6.7,-17.7 18.600004,-32.9 34.300004,-43.9 16.1,-11.1999998 35,-17.0999998 54.7,-17.0999998 19.7,0 38.6,5.9 54.7,17.0999998 15.7,11 27.6,26.1 34.3,43.9 0.2,0.5 0.6,0.8 1.1,0.9 3.5,0.8 11.9,4 13.2,17.6 1.1,9.3 1,21.299994 -0.1,29.399994 0,0 0,0 0,0.1 -1.2,10.9 -7.9,16.1 -13.2,17.2 z"
     id="path908"
     inkscape:connector-curvature="0"
     style="fill:#ffffff" /><path
     class="st2"
     d="m 261.6819,64.300006 c -13.3,-34.6 -47.1,-59.0999998 -86.7,-59.0999998 -39.6,0 -73.4,24.5999998 -86.700004,59.0999998 54.700004,-9.1 118.800004,-9.6 173.400004,0 z"
     id="path910"
     inkscape:connector-curvature="0"
     style="fill:#ec5e04" /><path
     class="st2"
     d="m 261.6819,129.90001 c -13.3,34.6 -47.1,59.1 -86.7,59.1 -39.6,0 -73.4,-24.5 -86.700004,-59.1 54.700004,9.2 118.800004,9.7 173.400004,0 z"
     id="path912"
     inkscape:connector-curvature="0"
     style="fill:#ec5e04" /><rect
     x="209.78189"
     y="76.599998"
     class="st0"
     width="16.5"
     height="44.900002"
     id="rect914"
     style="fill:#0061a1" /><path
     class="st0"
     d="m 178.7819,92.400006 h 16.5 V 121.5 h -16.5 v -1 c -3.2,2 -11.6,2.2 -13.6,2.2 -2,0 -15.5,-1.7 -15.5,-12.1 V 92.400006 h 16.5 V 106 c -0.2,2.7 0.7,6.9 5.7,6.9 4.9,0 6.9,-1.5 6.9,-5.7 0,0 0,-14.799994 0,-14.799994 z"
     id="path916"
     inkscape:connector-curvature="0"
     style="fill:#0061a1" /><path
     class="st0"
     d="M 243.5819,121.5 V 104 h -6.9 V 92.400006 h 6.9 v -7.4 c 0.2,-4.9 2.7,-9.1 10.1,-9.1 7.4,0 11.3,1 15.8,3.9 l -0.2,8.6 c -4.7,-2.7 -9.7,-3.5 -9.7,1 v 3 h 6.9 V 104 h -6.9 v 17.5 z"
     id="path918"
     inkscape:connector-curvature="0"
     style="fill:#0061a1" /><path
     class="st0"
     d="m 111.5819,102.8 v -8.899994 h 25.1 V 121.5 h -16.4 v -1 c -3.2,1 -9.2,1 -12.5,1 -11.800004,0.1 -27.700004,-7.3 -27.700004,-25.499994 0,-18.2 17.4,-26.4 29.000004,-26.4 11.6,0 20.3,3.3 24.3,5.8 v 9.6 c -5.4,-1.7 -10.6,-4.2 -17.5,-4.2 -6.9,0 -17.300004,4.2 -17.000004,16 C 99.181896,108.6 107.9819,110.6 111.6819,110.6 c 3.7,0 7.4,-0.9 8.6,-2.6 v -5.3 z"
     id="path920"
     inkscape:connector-curvature="0"
     style="fill:#0061a1" /><path
     class="st3"
     d="m 268.1819,118.00001 c -0.4,-0.4 -0.9,-0.6 -1.4,-0.6 -0.5,0 -1,0.2 -1.4,0.6 -0.4,0.4 -0.6,0.9 -0.6,1.5 0,0.6 0.2,1.1 0.6,1.5 0.4,0.4 0.9,0.6 1.5,0.6 0.6,0 1,-0.2 1.4,-0.6 0.4,-0.4 0.6,-0.9 0.6,-1.5 -0.1,-0.6 -0.3,-1.1 -0.7,-1.5 z"
     id="path922"
     inkscape:connector-curvature="0"
     style="fill:#1f3075" /><path
     class="st1"
     d="m 267.8819,118.20001 c 0.3,0.3 0.5,0.7 0.5,1.2 0,0.5 -0.2,0.9 -0.5,1.2 -0.3,0.3 -0.7,0.5 -1.2,0.5 -0.5,0 -0.9,-0.2 -1.2,-0.5 -0.3,-0.3 -0.5,-0.7 -0.5,-1.2 0,-0.5 0.2,-0.8 0.5,-1.2 0.3,-0.3 0.7,-0.5 1.2,-0.5 0.5,0 0.9,0.2 1.2,0.5 z"
     id="path924"
     inkscape:connector-curvature="0"
     style="fill:#ffffff" /><path
     class="st3"
     d="m 266.3819,119.80001 h 0.1 0.1 c 0.1,0 0.2,0 0.2,0 0.1,0 0.1,0.1 0.2,0.2 0,0 0,0.1 0,0.3 0,0.2 0,0.2 0,0.3 h 0.6 v -0.1 c 0,0 0,0 0,-0.1 0,-0.1 0,0 0,-0.1 v -0.2 c 0,-0.2 -0.1,-0.4 -0.2,-0.5 -0.1,-0.1 -0.2,-0.1 -0.3,-0.1 0.2,0 0.3,-0.1 0.4,-0.2 0.1,-0.1 0.2,-0.2 0.2,-0.4 0,-0.3 -0.1,-0.4 -0.3,-0.5 -0.1,-0.1 -0.3,-0.1 -0.4,-0.1 0,0 -0.2,0 -0.5,0 -0.3,0 -0.5,0 -0.6,0 v 2.3 h 0.6 z"
     id="path926"
     inkscape:connector-curvature="0"
     style="fill:#1f3075" /><path
     class="st1"
     d="m 266.9819,119.30001 c -0.1,0.1 -0.2,0.1 -0.3,0.1 h -0.2 v -0.7 h 0.1 c 0.1,0 0.3,0 0.3,0 0.1,0 0.2,0.1 0.2,0.3 0,0.2 -0.1,0.2 -0.1,0.3 z"
     id="path928"
     inkscape:connector-curvature="0"
     style="fill:#ffffff" /></svg>