<?xml version="1.0" encoding="utf-8"?>
<!-- Generator: Adobe Illustrator 19.2.1, SVG Export Plug-In . SVG Version: 6.00 Build 0)  -->
<svg version="1.1" id="fin" xmlns="http://www.w3.org/2000/svg" xmlns:xlink="http://www.w3.org/1999/xlink" x="0px" y="0px"
	 viewBox="0 0 226.8 120" style="enable-background:new 0 0 226.8 120;" xml:space="preserve">
<style type="text/css">
	.st0{fill:#D9272E;}
	.st1{fill:#FFFFFF;}
</style>
<g id="dots">
</g>
<path id="red_line" class="st0" d="M17,62.4c-0.6,0-1.1-0.5-1.1-1.1c0-0.6,0.5-1.1,1.1-1.1h119.7c0.6,0,1.1,0.5,1.1,1.1
	c0,0.6-0.5,1.1-1.1,1.1H17z"/>
<path id="A_IOM" class="st1" d="M41.1,59.1H30.6l5.2-10.5L41.1,59.1z M54.5,75.9l-7.7-15.3c-0.1-0.2-0.1-0.3-0.2-0.4l-8.7-17.4
	c-0.2-0.5-0.6-0.9-1.1-1.2c-1.1-0.5-2.4-0.1-3,1l-8.8,17.6c0,0.1-0.1,0.2-0.1,0.3l-7.7,15.4c-0.5,1.1-0.1,2.4,1,3
	c1.1,0.5,2.4,0.1,3-1l7.2-14.4h14.9l7.2,14.4c0.5,1.1,1.9,1.5,3,1C54.6,78.3,55,77,54.5,75.9 M107.9,76.8v-31c0-1.2-1-2.2-2.2-2.2
	c-1.2,0-2.2,1-2.2,2.2v31c0,1.2,1,2.2,2.2,2.2C106.9,79,107.9,78,107.9,76.8 M151.1,61.3L151.1,61.3L151.1,61.3
	c0,4-1.6,7.6-4.2,10.2c-2.6,2.6-6.2,4.2-10.2,4.2v0h0h0v0c-4,0-7.6-1.6-10.2-4.2c-2.6-2.6-4.2-6.2-4.2-10.2h0v0v0h0
	c0-4,1.6-7.6,4.2-10.2c2.6-2.6,6.2-4.2,10.2-4.2v0h0h0v0c4,0,7.6,1.6,10.2,4.2C149.5,53.7,151.1,57.3,151.1,61.3L151.1,61.3z
	 M155.5,61.3L155.5,61.3L155.5,61.3L155.5,61.3c0-5.2-2.1-9.9-5.5-13.3c-3.4-3.4-8.1-5.5-13.3-5.5v0h0h0v0c-5.2,0-9.9,2.1-13.3,5.5
	c-3.4,3.4-5.5,8.1-5.5,13.3h0v0v0h0c0,5.2,2.1,9.9,5.5,13.3c3.4,3.4,8.1,5.5,13.3,5.5v0h0h0v0c5.2,0,9.9-2.1,13.3-5.5
	C153.4,71.2,155.5,66.5,155.5,61.3 M203.2,76.5l-5.5-32.2h0c-0.1-0.7-0.6-1.4-1.4-1.7c-1.1-0.4-2.4,0.1-2.8,1.3l-10.1,26.7L173.2,44
	c-0.2-0.8-0.9-1.4-1.7-1.5c-1.2-0.2-2.4,0.6-2.6,1.8l-5.5,32.2c-0.2,1.2,0.6,2.3,1.8,2.6c1.2,0.2,2.3-0.6,2.6-1.8l4.2-24.2l9.3,24.6
	c0.4,1.1,1.7,1.7,2.9,1.3c0.6-0.2,1.1-0.7,1.3-1.3l9.3-24.6l4.2,24.2c0.2,1.2,1.3,2,2.6,1.8C202.6,78.8,203.4,77.7,203.2,76.5"/>
<path id="X" class="st1" d="M79.7,61.3C90,49,99.6,36.4,108.6,23.5C97.6,34.4,87,45.8,76.8,57.9C66.6,45.8,56,34.4,45.1,23.5
	c9,12.9,18.6,25.5,28.9,37.8C63.7,73.6,54.1,86.2,45.1,99.1c11-10.9,21.6-22.4,31.8-34.4c10.2,12,20.8,23.5,31.8,34.4
	C99.6,86.2,90,73.6,79.7,61.3z"/>
<g>
	<g>
		<circle class="st1" cx="76.8" cy="55.1" r="1"/>
		<circle class="st1" cx="78.5" cy="53.4" r="0.9"/>
		<circle class="st1" cx="80.1" cy="51.7" r="0.9"/>
		<circle class="st1" cx="81.7" cy="50" r="0.9"/>
		<circle class="st1" cx="83.3" cy="48.3" r="0.8"/>
		<circle class="st1" cx="85" cy="46.6" r="0.8"/>
		<circle class="st1" cx="86.6" cy="44.9" r="0.7"/>
		<circle class="st1" cx="88.2" cy="43.2" r="0.7"/>
		<circle class="st1" cx="89.9" cy="41.5" r="0.6"/>
		<circle class="st1" cx="91.5" cy="39.8" r="0.6"/>
		<circle class="st1" cx="93.1" cy="38.1" r="0.5"/>
		<circle class="st1" cx="94.8" cy="36.4" r="0.5"/>
		<circle class="st1" cx="96.4" cy="34.7" r="0.4"/>
		<circle class="st1" cx="98" cy="33" r="0.4"/>
		<circle class="st1" cx="99.6" cy="31.3" r="0.3"/>
		<circle class="st1" cx="101.3" cy="29.6" r="0.3"/>
		<circle class="st1" cx="75.2" cy="53.4" r="0.9"/>
		<circle class="st1" cx="76.9" cy="51.7" r="0.9"/>
		<circle class="st1" cx="78.5" cy="50" r="0.9"/>
		<circle class="st1" cx="80.1" cy="48.3" r="0.8"/>
		<circle class="st1" cx="81.7" cy="46.6" r="0.8"/>
		<circle class="st1" cx="83.4" cy="44.9" r="0.7"/>
		<circle class="st1" cx="85" cy="43.2" r="0.7"/>
		<circle class="st1" cx="86.6" cy="41.5" r="0.6"/>
		<circle class="st1" cx="88.3" cy="39.8" r="0.6"/>
		<circle class="st1" cx="89.9" cy="38.1" r="0.5"/>
		<circle class="st1" cx="91.5" cy="36.4" r="0.5"/>
		<circle class="st1" cx="93.2" cy="34.7" r="0.4"/>
		<circle class="st1" cx="94.8" cy="33" r="0.4"/>
		<circle class="st1" cx="96.4" cy="31.3" r="0.3"/>
		<circle class="st1" cx="98.1" cy="29.6" r="0.3"/>
		<circle class="st1" cx="73.6" cy="51.7" r="0.9"/>
		<circle class="st1" cx="75.3" cy="50" r="0.9"/>
		<circle class="st1" cx="76.9" cy="48.3" r="0.8"/>
		<circle class="st1" cx="78.5" cy="46.6" r="0.8"/>
		<circle class="st1" cx="80.2" cy="44.9" r="0.7"/>
		<circle class="st1" cx="81.8" cy="43.2" r="0.7"/>
		<circle class="st1" cx="83.4" cy="41.5" r="0.6"/>
		<circle class="st1" cx="85" cy="39.8" r="0.6"/>
		<circle class="st1" cx="86.7" cy="38.1" r="0.5"/>
		<circle class="st1" cx="88.3" cy="36.4" r="0.5"/>
		<circle class="st1" cx="89.9" cy="34.7" r="0.4"/>
		<circle class="st1" cx="91.6" cy="33" r="0.4"/>
		<circle class="st1" cx="93.2" cy="31.3" r="0.3"/>
		<circle class="st1" cx="94.8" cy="29.6" r="0.3"/>
		<circle class="st1" cx="72" cy="50" r="0.9"/>
		<circle class="st1" cx="73.7" cy="48.3" r="0.8"/>
		<circle class="st1" cx="75.3" cy="46.6" r="0.8"/>
		<circle class="st1" cx="76.9" cy="44.9" r="0.7"/>
		<circle class="st1" cx="78.6" cy="43.2" r="0.7"/>
		<circle class="st1" cx="80.2" cy="41.5" r="0.6"/>
		<circle class="st1" cx="81.8" cy="39.8" r="0.6"/>
		<circle class="st1" cx="83.4" cy="38.1" r="0.5"/>
		<circle class="st1" cx="85.1" cy="36.4" r="0.5"/>
		<circle class="st1" cx="86.7" cy="34.7" r="0.4"/>
		<circle class="st1" cx="88.3" cy="33" r="0.4"/>
		<circle class="st1" cx="90" cy="31.3" r="0.3"/>
		<circle class="st1" cx="91.6" cy="29.6" r="0.3"/>
		<circle class="st1" cx="70.4" cy="48.3" r="0.8"/>
		<circle class="st1" cx="72.1" cy="46.6" r="0.8"/>
		<circle class="st1" cx="73.7" cy="44.9" r="0.7"/>
		<circle class="st1" cx="75.3" cy="43.2" r="0.7"/>
		<circle class="st1" cx="77" cy="41.5" r="0.6"/>
		<circle class="st1" cx="78.6" cy="39.8" r="0.6"/>
		<circle class="st1" cx="80.2" cy="38.1" r="0.5"/>
		<circle class="st1" cx="81.9" cy="36.4" r="0.5"/>
		<circle class="st1" cx="83.5" cy="34.7" r="0.4"/>
		<circle class="st1" cx="85.1" cy="33" r="0.4"/>
		<circle class="st1" cx="86.7" cy="31.3" r="0.3"/>
		<circle class="st1" cx="88.4" cy="29.6" r="0.3"/>
		<circle class="st1" cx="68.8" cy="46.6" r="0.8"/>
		<circle class="st1" cx="70.5" cy="44.9" r="0.7"/>
		<circle class="st1" cx="72.1" cy="43.2" r="0.7"/>
		<circle class="st1" cx="73.7" cy="41.5" r="0.6"/>
		<circle class="st1" cx="75.4" cy="39.8" r="0.6"/>
		<circle class="st1" cx="77" cy="38.1" r="0.5"/>
		<circle class="st1" cx="78.6" cy="36.4" r="0.5"/>
		<circle class="st1" cx="80.3" cy="34.7" r="0.4"/>
		<circle class="st1" cx="81.9" cy="33" r="0.4"/>
		<circle class="st1" cx="83.5" cy="31.3" r="0.3"/>
		<circle class="st1" cx="85.1" cy="29.6" r="0.3"/>
		<circle class="st1" cx="67.3" cy="44.9" r="0.7"/>
		<circle class="st1" cx="68.9" cy="43.2" r="0.7"/>
		<circle class="st1" cx="70.5" cy="41.5" r="0.6"/>
		<circle class="st1" cx="72.1" cy="39.8" r="0.6"/>
		<circle class="st1" cx="73.8" cy="38.1" r="0.5"/>
		<circle class="st1" cx="75.4" cy="36.4" r="0.5"/>
		<circle class="st1" cx="77" cy="34.7" r="0.4"/>
		<circle class="st1" cx="78.7" cy="33" r="0.4"/>
		<circle class="st1" cx="80.3" cy="31.3" r="0.3"/>
		<circle class="st1" cx="81.9" cy="29.6" r="0.3"/>
		<circle class="st1" cx="65.7" cy="43.2" r="0.7"/>
		<circle class="st1" cx="67.3" cy="41.5" r="0.6"/>
		<circle class="st1" cx="68.9" cy="39.8" r="0.6"/>
		<circle class="st1" cx="70.5" cy="38.1" r="0.5"/>
		<circle class="st1" cx="72.2" cy="36.4" r="0.5"/>
		<circle class="st1" cx="73.8" cy="34.7" r="0.4"/>
		<circle class="st1" cx="75.4" cy="33" r="0.4"/>
		<circle class="st1" cx="77.1" cy="31.3" r="0.3"/>
		<circle class="st1" cx="78.7" cy="29.6" r="0.3"/>
		<circle class="st1" cx="64.1" cy="41.5" r="0.6"/>
		<circle class="st1" cx="65.7" cy="39.8" r="0.6"/>
		<circle class="st1" cx="67.3" cy="38.1" r="0.5"/>
		<circle class="st1" cx="68.9" cy="36.4" r="0.5"/>
		<circle class="st1" cx="70.6" cy="34.7" r="0.4"/>
		<circle class="st1" cx="72.2" cy="33" r="0.4"/>
		<circle class="st1" cx="73.8" cy="31.3" r="0.3"/>
		<circle class="st1" cx="75.5" cy="29.6" r="0.3"/>
		<circle class="st1" cx="62.5" cy="39.8" r="0.6"/>
		<circle class="st1" cx="64.1" cy="38.1" r="0.5"/>
		<circle class="st1" cx="65.7" cy="36.4" r="0.5"/>
		<circle class="st1" cx="67.4" cy="34.7" r="0.4"/>
		<circle class="st1" cx="69" cy="33" r="0.4"/>
		<circle class="st1" cx="70.6" cy="31.3" r="0.3"/>
		<circle class="st1" cx="72.2" cy="29.6" r="0.3"/>
		<circle class="st1" cx="60.9" cy="38.1" r="0.5"/>
		<circle class="st1" cx="62.5" cy="36.4" r="0.5"/>
		<circle class="st1" cx="64.1" cy="34.7" r="0.4"/>
		<circle class="st1" cx="65.8" cy="33" r="0.4"/>
		<circle class="st1" cx="67.4" cy="31.3" r="0.3"/>
		<circle class="st1" cx="69" cy="29.6" r="0.3"/>
		<circle class="st1" cx="59.3" cy="36.4" r="0.5"/>
		<circle class="st1" cx="60.9" cy="34.7" r="0.4"/>
		<circle class="st1" cx="62.5" cy="33" r="0.4"/>
		<circle class="st1" cx="64.2" cy="31.3" r="0.3"/>
		<circle class="st1" cx="65.8" cy="29.6" r="0.3"/>
		<circle class="st1" cx="57.7" cy="34.7" r="0.4"/>
		<circle class="st1" cx="59.3" cy="33" r="0.4"/>
		<circle class="st1" cx="60.9" cy="31.3" r="0.3"/>
		<circle class="st1" cx="62.6" cy="29.6" r="0.3"/>
		<circle class="st1" cx="56.1" cy="33" r="0.4"/>
		<circle class="st1" cx="57.7" cy="31.3" r="0.3"/>
		<circle class="st1" cx="59.3" cy="29.6" r="0.3"/>
		<circle class="st1" cx="54.5" cy="31.3" r="0.3"/>
		<circle class="st1" cx="56.1" cy="29.6" r="0.3"/>
		<circle class="st1" cx="52.9" cy="29.6" r="0.3"/>
	</g>
	<g>
		<circle class="st1" cx="76.8" cy="67.5" r="1"/>
		<circle class="st1" cx="78.5" cy="69.2" r="0.9"/>
		<circle class="st1" cx="80.1" cy="70.9" r="0.9"/>
		<circle class="st1" cx="81.7" cy="72.6" r="0.9"/>
		<circle class="st1" cx="83.3" cy="74.3" r="0.8"/>
		<circle class="st1" cx="85" cy="76" r="0.8"/>
		<circle class="st1" cx="86.6" cy="77.7" r="0.7"/>
		<circle class="st1" cx="88.2" cy="79.4" r="0.7"/>
		<circle class="st1" cx="89.9" cy="81.1" r="0.6"/>
		<circle class="st1" cx="91.5" cy="82.8" r="0.6"/>
		<circle class="st1" cx="93.1" cy="84.5" r="0.5"/>
		<circle class="st1" cx="94.8" cy="86.2" r="0.5"/>
		<circle class="st1" cx="96.4" cy="87.9" r="0.4"/>
		<circle class="st1" cx="98" cy="89.6" r="0.4"/>
		<circle class="st1" cx="99.6" cy="91.3" r="0.3"/>
		<circle class="st1" cx="101.3" cy="93" r="0.3"/>
		<circle class="st1" cx="75.2" cy="69.2" r="0.9"/>
		<circle class="st1" cx="76.9" cy="70.9" r="0.9"/>
		<circle class="st1" cx="78.5" cy="72.6" r="0.9"/>
		<circle class="st1" cx="80.1" cy="74.3" r="0.8"/>
		<circle class="st1" cx="81.7" cy="76" r="0.8"/>
		<circle class="st1" cx="83.4" cy="77.7" r="0.7"/>
		<circle class="st1" cx="85" cy="79.4" r="0.7"/>
		<circle class="st1" cx="86.6" cy="81.1" r="0.6"/>
		<circle class="st1" cx="88.3" cy="82.8" r="0.6"/>
		<circle class="st1" cx="89.9" cy="84.5" r="0.5"/>
		<circle class="st1" cx="91.5" cy="86.2" r="0.5"/>
		<circle class="st1" cx="93.2" cy="87.9" r="0.4"/>
		<circle class="st1" cx="94.8" cy="89.6" r="0.4"/>
		<circle class="st1" cx="96.4" cy="91.3" r="0.3"/>
		<circle class="st1" cx="98.1" cy="93" r="0.3"/>
		<circle class="st1" cx="73.6" cy="70.9" r="0.9"/>
		<circle class="st1" cx="75.3" cy="72.6" r="0.9"/>
		<circle class="st1" cx="76.9" cy="74.3" r="0.8"/>
		<circle class="st1" cx="78.5" cy="76" r="0.8"/>
		<circle class="st1" cx="80.2" cy="77.7" r="0.7"/>
		<circle class="st1" cx="81.8" cy="79.4" r="0.7"/>
		<circle class="st1" cx="83.4" cy="81.1" r="0.6"/>
		<circle class="st1" cx="85" cy="82.8" r="0.6"/>
		<circle class="st1" cx="86.7" cy="84.5" r="0.5"/>
		<circle class="st1" cx="88.3" cy="86.2" r="0.5"/>
		<circle class="st1" cx="89.9" cy="87.9" r="0.4"/>
		<circle class="st1" cx="91.6" cy="89.6" r="0.4"/>
		<circle class="st1" cx="93.2" cy="91.3" r="0.3"/>
		<circle class="st1" cx="94.8" cy="93" r="0.3"/>
		<circle class="st1" cx="72" cy="72.6" r="0.9"/>
		<circle class="st1" cx="73.7" cy="74.3" r="0.8"/>
		<circle class="st1" cx="75.3" cy="76" r="0.8"/>
		<circle class="st1" cx="76.9" cy="77.7" r="0.7"/>
		<circle class="st1" cx="78.6" cy="79.4" r="0.7"/>
		<circle class="st1" cx="80.2" cy="81.1" r="0.6"/>
		<circle class="st1" cx="81.8" cy="82.8" r="0.6"/>
		<circle class="st1" cx="83.4" cy="84.5" r="0.5"/>
		<circle class="st1" cx="85.1" cy="86.2" r="0.5"/>
		<circle class="st1" cx="86.7" cy="87.9" r="0.4"/>
		<circle class="st1" cx="88.3" cy="89.6" r="0.4"/>
		<circle class="st1" cx="90" cy="91.3" r="0.3"/>
		<circle class="st1" cx="91.6" cy="93" r="0.3"/>
		<circle class="st1" cx="70.4" cy="74.3" r="0.8"/>
		<circle class="st1" cx="72.1" cy="76" r="0.8"/>
		<circle class="st1" cx="73.7" cy="77.7" r="0.7"/>
		<circle class="st1" cx="75.3" cy="79.4" r="0.7"/>
		<circle class="st1" cx="77" cy="81.1" r="0.6"/>
		<circle class="st1" cx="78.6" cy="82.8" r="0.6"/>
		<circle class="st1" cx="80.2" cy="84.5" r="0.5"/>
		<circle class="st1" cx="81.9" cy="86.2" r="0.5"/>
		<circle class="st1" cx="83.5" cy="87.9" r="0.4"/>
		<circle class="st1" cx="85.1" cy="89.6" r="0.4"/>
		<circle class="st1" cx="86.7" cy="91.3" r="0.3"/>
		<circle class="st1" cx="88.4" cy="93" r="0.3"/>
		<circle class="st1" cx="68.8" cy="76" r="0.8"/>
		<circle class="st1" cx="70.5" cy="77.7" r="0.7"/>
		<circle class="st1" cx="72.1" cy="79.4" r="0.7"/>
		<circle class="st1" cx="73.7" cy="81.1" r="0.6"/>
		<circle class="st1" cx="75.4" cy="82.8" r="0.6"/>
		<circle class="st1" cx="77" cy="84.5" r="0.5"/>
		<circle class="st1" cx="78.6" cy="86.2" r="0.5"/>
		<circle class="st1" cx="80.3" cy="87.9" r="0.4"/>
		<circle class="st1" cx="81.9" cy="89.6" r="0.4"/>
		<circle class="st1" cx="83.5" cy="91.3" r="0.3"/>
		<circle class="st1" cx="85.1" cy="93" r="0.3"/>
		<circle class="st1" cx="67.3" cy="77.7" r="0.7"/>
		<circle class="st1" cx="68.9" cy="79.4" r="0.7"/>
		<circle class="st1" cx="70.5" cy="81.1" r="0.6"/>
		<circle class="st1" cx="72.1" cy="82.8" r="0.6"/>
		<circle class="st1" cx="73.8" cy="84.5" r="0.5"/>
		<circle class="st1" cx="75.4" cy="86.2" r="0.5"/>
		<circle class="st1" cx="77" cy="87.9" r="0.4"/>
		<circle class="st1" cx="78.7" cy="89.6" r="0.4"/>
		<circle class="st1" cx="80.3" cy="91.3" r="0.3"/>
		<circle class="st1" cx="81.9" cy="93" r="0.3"/>
		<circle class="st1" cx="65.7" cy="79.4" r="0.7"/>
		<circle class="st1" cx="67.3" cy="81.1" r="0.6"/>
		<circle class="st1" cx="68.9" cy="82.8" r="0.6"/>
		<circle class="st1" cx="70.5" cy="84.5" r="0.5"/>
		<circle class="st1" cx="72.2" cy="86.2" r="0.5"/>
		<circle class="st1" cx="73.8" cy="87.9" r="0.4"/>
		<circle class="st1" cx="75.4" cy="89.6" r="0.4"/>
		<circle class="st1" cx="77.1" cy="91.3" r="0.3"/>
		<circle class="st1" cx="78.7" cy="93" r="0.3"/>
		<circle class="st1" cx="64.1" cy="81.1" r="0.6"/>
		<circle class="st1" cx="65.7" cy="82.8" r="0.6"/>
		<circle class="st1" cx="67.3" cy="84.5" r="0.5"/>
		<circle class="st1" cx="68.9" cy="86.2" r="0.5"/>
		<circle class="st1" cx="70.6" cy="87.9" r="0.4"/>
		<circle class="st1" cx="72.2" cy="89.6" r="0.4"/>
		<circle class="st1" cx="73.8" cy="91.3" r="0.3"/>
		<circle class="st1" cx="75.5" cy="93" r="0.3"/>
		<circle class="st1" cx="62.5" cy="82.8" r="0.6"/>
		<circle class="st1" cx="64.1" cy="84.5" r="0.5"/>
		<circle class="st1" cx="65.7" cy="86.2" r="0.5"/>
		<circle class="st1" cx="67.4" cy="87.9" r="0.4"/>
		<circle class="st1" cx="69" cy="89.6" r="0.4"/>
		<circle class="st1" cx="70.6" cy="91.3" r="0.3"/>
		<circle class="st1" cx="72.2" cy="93" r="0.3"/>
		<circle class="st1" cx="60.9" cy="84.5" r="0.5"/>
		<circle class="st1" cx="62.5" cy="86.2" r="0.5"/>
		<circle class="st1" cx="64.1" cy="87.9" r="0.4"/>
		<circle class="st1" cx="65.8" cy="89.6" r="0.4"/>
		<circle class="st1" cx="67.4" cy="91.3" r="0.3"/>
		<circle class="st1" cx="69" cy="93" r="0.3"/>
		<circle class="st1" cx="59.3" cy="86.2" r="0.5"/>
		<circle class="st1" cx="60.9" cy="87.9" r="0.4"/>
		<circle class="st1" cx="62.5" cy="89.6" r="0.4"/>
		<circle class="st1" cx="64.2" cy="91.3" r="0.3"/>
		<circle class="st1" cx="65.8" cy="93" r="0.3"/>
		<circle class="st1" cx="57.7" cy="87.9" r="0.4"/>
		<circle class="st1" cx="59.3" cy="89.6" r="0.4"/>
		<circle class="st1" cx="60.9" cy="91.3" r="0.3"/>
		<circle class="st1" cx="62.6" cy="93" r="0.3"/>
		<circle class="st1" cx="56.1" cy="89.6" r="0.4"/>
		<circle class="st1" cx="57.7" cy="91.3" r="0.3"/>
		<circle class="st1" cx="59.3" cy="93" r="0.3"/>
		<circle class="st1" cx="54.5" cy="91.3" r="0.3"/>
		<circle class="st1" cx="56.1" cy="93" r="0.3"/>
		<circle class="st1" cx="52.9" cy="93" r="0.3"/>
	</g>
</g>
<path id="R" class="st1" d="M207,44.6v0.8h0.5v0h0.4c0.1,0,0.2,0,0.2-0.1c0,0,0,0,0,0c0,0,0,0,0,0c0,0,0,0,0,0l0,0l0,0l0,0l0,0
	c0,0,0.1-0.1,0.1-0.1c0,0,0,0,0,0c0,0,0-0.1,0-0.2h0v0c0-0.1,0-0.2-0.1-0.2c0,0,0,0,0,0c0,0,0,0,0,0l0,0c0,0-0.1-0.1-0.1-0.1
	c0,0,0,0,0,0c0,0-0.1,0-0.2,0v0h0h-0.4v0H207z M206.4,44.3c0-0.2,0.1-0.3,0.3-0.3c0,0,0,0,0,0h0.8v0h0.4h0v0c0.1,0,0.3,0,0.4,0.1
	c0,0,0,0,0.1,0c0.1,0,0.2,0.1,0.3,0.2l0,0c0,0,0,0,0.1,0.1c0,0,0,0.1,0.1,0.1c0.1,0.2,0.2,0.3,0.2,0.5v0h0c0,0.1,0,0.3-0.1,0.4
	c0,0,0,0,0,0.1c0,0.1-0.1,0.2-0.2,0.3l0,0l0,0c0,0,0,0,0,0c0,0,0,0-0.1,0.1c0,0,0,0,0,0l0.7,1.2c0.1,0.1,0,0.3-0.1,0.4
	c-0.1,0.1-0.3,0-0.4-0.1l-0.7-1.3h0h-0.4v0H207v1.1c0,0.2-0.1,0.3-0.3,0.3c-0.2,0-0.3-0.1-0.3-0.3V44.3z M207.6,43L207.6,43
	L207.6,43L207.6,43L207.6,43c-0.8,0-1.4,0.3-1.9,0.8c-0.5,0.5-0.8,1.2-0.8,1.9h0v0v0h0c0,0.7,0.3,1.4,0.8,1.9
	c0.5,0.5,1.2,0.8,1.9,0.8v0h0h0v0c0.7,0,1.4-0.3,1.9-0.8c0.5-0.5,0.8-1.2,0.8-1.9h0v0v0h0c0-0.7-0.3-1.4-0.8-1.9
	C209,43.3,208.4,43,207.6,43z M207.6,42.4L207.6,42.4L207.6,42.4c0.9,0,1.7,0.4,2.3,1c0.6,0.6,1,1.4,1,2.3h0v0v0h0
	c0,0.9-0.4,1.7-1,2.3c-0.6,0.6-1.4,1-2.3,1v0h0h0v0c-0.9,0-1.7-0.4-2.3-1c-0.6-0.6-1-1.4-1-2.3h0v0v0h0c0-0.9,0.4-1.7,1-2.3
	C205.9,42.8,206.7,42.4,207.6,42.4L207.6,42.4L207.6,42.4z"/>
</svg>
