<?xml version="1.0" encoding="UTF-8" standalone="no"?>
<!-- Created with Inkscape (http://www.inkscape.org/) -->

<svg
   xmlns:dc="http://purl.org/dc/elements/1.1/"
   xmlns:cc="http://creativecommons.org/ns#"
   xmlns:rdf="http://www.w3.org/1999/02/22-rdf-syntax-ns#"
   xmlns:svg="http://www.w3.org/2000/svg"
   xmlns="http://www.w3.org/2000/svg"
   xmlns:sodipodi="http://sodipodi.sourceforge.net/DTD/sodipodi-0.dtd"
   xmlns:inkscape="http://www.inkscape.org/namespaces/inkscape"
   width="97.368683mm"
   height="114.34872mm"
   viewBox="0 0 97.368683 114.34872"
   version="1.1"
   id="svg152"
   inkscape:version="0.92.4 (5da689c313, 2019-01-14)"
   sodipodi:docname="antifreeze.svg">
  <defs
     id="defs146" />
  <sodipodi:namedview
     id="base"
     pagecolor="#ffffff"
     bordercolor="#666666"
     borderopacity="1.0"
     inkscape:pageopacity="0.0"
     inkscape:pageshadow="2"
     inkscape:zoom="0.98994949"
     inkscape:cx="582.81005"
     inkscape:cy="226.12427"
     inkscape:document-units="mm"
     inkscape:current-layer="layer1"
     showgrid="false"
     inkscape:window-width="1920"
     inkscape:window-height="976"
     inkscape:window-x="-8"
     inkscape:window-y="-8"
     inkscape:window-maximized="1" />
  <metadata
     id="metadata149">
    <rdf:RDF>
      <cc:Work
         rdf:about="">
        <dc:format>image/svg+xml</dc:format>
        <dc:type
           rdf:resource="http://purl.org/dc/dcmitype/StillImage" />
        <dc:title></dc:title>
      </cc:Work>
    </rdf:RDF>
  </metadata>
  <g
     inkscape:label="Layer 1"
     inkscape:groupmode="layer"
     id="layer1"
     transform="translate(-36.928468,-48.389403)">
    <path
       style="opacity:1;fill:#000000;fill-opacity:1;stroke-width:0.26458332"
       d="m 47.068643,162.56542 c -2.705174,0.0554 -5.602249,-1.55213 -6.929947,-2.98909 -1.613807,-1.74662 -3.155125,-4.15595 -3.144939,-7.42254 -0.02378,-31.08615 -0.13184,-63.421115 -0.004,-85.435776 0.391399,-3.030597 0.964846,-4.511661 3.094451,-6.611897 2.617199,-2.23681 4.355135,-3.060362 7.42746,-3.231685 v -3.336253 c 0,-2.09031 0.382242,-2.633907 1.273603,-3.644343 2.02741,-1.764746 1.808808,-1.488768 9.30973,-1.488768 7.500921,0 7.707543,-0.134232 9.309729,1.488768 1.065177,1.079014 1.273603,1.970035 1.273603,4.613873 v 2.364025 l 10.252604,0.0039 c 8.938065,-0.02602 13.142465,-0.766878 18.306197,3.607282 0.645936,0.557406 8.662246,9.746535 17.814026,20.420291 9.43999,11.009893 12.98542,15.030759 16.06441,18.626036 2.68596,3.136347 3.10981,7.250327 3.13705,9.025447 0.0469,16.59105 0.0686,24.30601 0.005,43.97336 -0.29561,5.21996 -4.24683,9.71589 -10.63129,10.21007 -7.20797,-0.0736 -70.443429,-0.0246 -76.557227,-0.13896 z m 83.017007,-10.26505 c -0.0215,-12.10525 -0.0746,-24.33941 -0.0146,-44.40658 0.031,-2.02217 -0.90659,-3.90261 -2.36389,-5.75941 -2.5718,-2.973246 -2.89919,-3.401956 -15.86657,-18.539731 C 102.803,73.04439 95.112578,63.99821 94.346561,63.376536 c -0.865785,-0.702642 -3.659013,-2.438633 -8.389568,-2.362352 -16.257574,0.06969 -27.914778,0.02806 -39.213155,0.05996 -2.737145,-0.0282 -5.551076,2.613296 -5.526087,5.298581 -0.0022,4.455433 -0.10239,82.634725 -0.06682,85.519945 -0.126226,4.4616 3.307521,6.62536 5.747765,6.60714 6.318368,-0.03 75.058764,-0.05 77.406574,-0.008 3.90925,-0.29984 5.85055,-3.54462 5.78038,-6.19127 z M 75.02828,138.08476 c -1.282135,0.86889 -1.627131,1.067 -2.963172,1.86614 -0.790979,-1.11031 -1.293537,-1.90891 -2.219187,-3.4024 2.298661,-1.61347 3.214409,-2.24903 5.182359,-3.54669 v -8.97818 c -2.633328,1.50792 -5.266857,3.02451 -7.779123,4.72777 -0.181867,2.08086 -0.296935,3.81747 -0.496667,6.17241 -1.479758,-0.0498 -1.867765,-0.0839 -4.075552,-0.1736 0.06245,-1.68605 0.07809,-2.52835 0.11883,-3.68935 -1.07026,0.53602 -2.290882,1.25393 -2.884203,1.54717 -1.038955,-1.71855 -1.166383,-1.98293 -2.040697,-3.47057 1.208731,-0.77411 1.70588,-1.03289 2.908205,-1.72692 -1.050547,-0.54445 -2.132355,-1.03794 -3.162718,-1.61798 0.705574,-1.5903 0.900436,-2.13513 1.647539,-3.76756 2.526014,1.11869 3.68821,1.7023 5.900092,2.8116 2.959714,-1.77333 4.623124,-2.70994 7.683492,-4.52339 -3.197612,-1.85062 -4.785778,-2.75974 -7.620948,-4.40502 -1.980318,0.95889 -3.96064,1.91777 -5.940961,2.87665 -0.55863,-1.24236 -1.107664,-2.37115 -1.701829,-3.72227 1.200604,-0.69968 1.951179,-1.09095 3.172872,-1.67487 -0.978515,-0.59849 -1.957035,-1.19697 -2.935554,-1.79545 0.832989,-1.50887 1.141604,-2.05988 2.023149,-3.53182 1.263538,0.69999 1.845382,1.02692 2.998676,1.63042 -0.05676,-1.49359 -0.0584,-2.30502 -0.107485,-3.80618 1.649833,-0.0686 2.807618,-0.0654 4.017084,-0.065 0.144328,2.82231 0.257335,4.22902 0.421498,6.37287 2.861971,1.61055 5.204108,2.98702 7.854292,4.52731 v -8.97818 c -2.044002,-1.47186 -3.112559,-2.16246 -5.265881,-3.66362 0.836337,-1.34393 1.093977,-1.74866 2.169074,-3.38569 1.276844,0.7778 2.009663,1.23424 3.096807,1.96637 v -3.453645 h 4.233333 v 3.453645 c 1.167276,-0.77776 1.662523,-1.14436 3.013285,-1.96637 0.841236,1.21942 1.416259,2.10858 2.286004,3.40239 -1.91747,1.38703 -3.331339,2.34926 -5.299289,3.64692 v 8.95656 c 3.296569,-1.88562 7.257621,-4.17135 7.819258,-4.48902 0.08125,-2.03614 0.156717,-3.3857 0.373011,-6.38954 1.641158,0.0528 2.409235,0.0344 4.100608,0.11513 -0.06337,1.20862 -0.05972,1.94961 -0.107475,3.77278 1.044184,-0.64613 1.508636,-0.9125 2.98197,-1.59701 0.774666,1.29184 1.14863,1.97589 2.039855,3.4817 -0.978521,0.59848 -1.589542,0.9297 -2.935555,1.79545 1.333957,0.64208 1.966305,0.94115 3.190832,1.57901 -0.751696,1.40007 -0.889343,1.69876 -1.86378,3.63646 -2.118801,-1.04764 -3.564096,-1.78414 -5.805692,-2.77412 -2.752877,1.65685 -4.678651,2.76251 -7.568616,4.49591 2.974204,1.78878 4.786486,2.87545 7.63988,4.51164 0.818276,-0.41057 3.711916,-1.82287 5.77305,-2.8084 0.475752,1.0501 1.167365,2.48394 1.762439,3.7765 -1.103062,0.59039 -1.794404,0.91386 -3.150576,1.60584 1.140283,0.66847 1.929458,1.13654 2.791274,1.65175 -0.829398,1.44737 -1.22942,2.11031 -2.040696,3.47892 -1.13699,-0.65224 -1.757849,-0.98864 -2.761542,-1.51411 0.03338,1.5296 0.05675,2.36954 0.12229,3.68254 -1.982995,0.12177 -2.568463,0.14058 -4.167425,0.17873 -0.137208,-2.77029 -0.19864,-3.99197 -0.287515,-6.27416 -3.220219,-1.87058 -5.25542,-3.05027 -7.905594,-4.59058 v 8.97818 c 1.776287,1.11495 3.959877,2.65757 5.182359,3.54669 -0.807532,1.25725 -1.451832,2.22122 -2.219187,3.4024 -1.27516,-0.76145 -1.87603,-1.13402 -2.963172,-1.86614 v 3.45364 H 75.02828 Z m 32.09526,-26.71868 C 99.204673,102.02336 90.025455,91.33391 82.653201,82.499179 82.408522,82.123751 82.006956,81.619974 81.76083,80.513475 c -0.84996,-2.923762 -0.09559,-6.201623 1.999017,-8.296226 3.125568,-3.125568 8.072948,-3.415927 11.328013,-0.664832 1.175634,0.993614 23.72918,27.554877 24.97281,29.410423 2.8166,4.20249 0.89275,10.62595 -3.85811,12.23061 -2.33649,0.78918 -5.93518,1.24718 -9.07902,-1.82737 z m 7.59224,-1.98911 c 1.01479,-0.51728 2.45888,-1.93006 2.74844,-2.85597 0.24094,-0.77047 0.14246,-1.64064 -0.22281,-2.33527 -0.68931,-1.15757 -4.17225,-5.177279 -12.59754,-15.126453 C 91.159814,73.13638 91.769267,73.524098 89.297662,73.802683 c -1.517766,0.171074 -2.493942,0.820761 -3.195387,2.189064 -0.826442,1.612138 -0.76181,3.096014 0.189259,4.345114 1.110911,1.459032 22.758966,27.014379 23.891126,28.203269 1.40338,1.47371 2.78378,1.72853 4.53311,0.83684 z M 64.974114,95.368607 c 0,-0.07276 0.05953,-0.132291 0.132292,-0.132291 0.07276,0 0.132291,0.05953 0.132291,0.132291 0,0.07276 -0.05953,0.132292 -0.132291,0.132292 -0.07276,0 -0.132292,-0.05953 -0.132292,-0.132292 z M 64.444947,52.638401 H 51.744948 v 4.233333 h 12.699999 z"
       id="path211"
       inkscape:connector-curvature="0"
       sodipodi:nodetypes="csccccscssscccssccccccccsscccccccccccccccccccccccccccccccccccccccccccccccccccccccccccccccccccccccccccccccscsccscscccscccscccccccc" />
  </g>
</svg>
