<?xml version="1.0" encoding="UTF-8" standalone="no"?>
<!-- Svg Vector Icons : http://www.onlinewebfonts.com/icon -->

<svg
   xmlns:dc="http://purl.org/dc/elements/1.1/"
   xmlns:cc="http://creativecommons.org/ns#"
   xmlns:rdf="http://www.w3.org/1999/02/22-rdf-syntax-ns#"
   xmlns:svg="http://www.w3.org/2000/svg"
   xmlns="http://www.w3.org/2000/svg"
   xmlns:sodipodi="http://sodipodi.sourceforge.net/DTD/sodipodi-0.dtd"
   xmlns:inkscape="http://www.inkscape.org/namespaces/inkscape"
   version="1.1"
   x="0px"
   y="0px"
   viewBox="0 0 392.38263 349.36682"
   enable-background="new 0 0 1000 1000"
   xml:space="preserve"
   id="svg4781"
   sodipodi:docname="brake.svg"
   width="392.38263"
   height="349.36682"
   inkscape:version="0.92.4 (5da689c313, 2019-01-14)"><defs
   id="defs4785" /><sodipodi:namedview
   pagecolor="#ffffff"
   bordercolor="#666666"
   borderopacity="1"
   objecttolerance="10"
   gridtolerance="10"
   guidetolerance="10"
   inkscape:pageopacity="0"
   inkscape:pageshadow="2"
   inkscape:window-width="1920"
   inkscape:window-height="976"
   id="namedview4783"
   showgrid="false"
   inkscape:zoom="0.236"
   inkscape:cx="499.925"
   inkscape:cy="-150.63316"
   inkscape:window-x="-8"
   inkscape:window-y="-8"
   inkscape:window-maximized="1"
   inkscape:current-layer="svg4781" />
<metadata
   id="metadata4775"> Svg Vector Icons : http://www.onlinewebfonts.com/icon <rdf:RDF><cc:Work
     rdf:about=""><dc:format>image/svg+xml</dc:format><dc:type
       rdf:resource="http://purl.org/dc/dcmitype/StillImage" /></cc:Work></rdf:RDF></metadata>
<g
   id="g4779"
   transform="matrix(8.7341709,0,0,8.7341709,-0.65506282,0)">
<path
   d="M 7.8,35.1 C -0.1,26.6 -0.1,13.4 7.8,4.9 l 4.9,4.8 c -2.6,2.8 -4,6.5 -4,10.3 0,3.8 1.4,7.5 4,10.3 z m 6.9,-5.4 c -2.6,-2.6 -4.1,-6 -4.1,-9.7 0,-3.7 1.4,-7.1 4.1,-9.7 L 15.4,9.6 7.8,2.2 7.2,2.9 c -9.5,9.4 -9.5,24.8 0,34.2 l 0.7,0.7 7.5,-7.4 z m 10.1,-19 c 5.2,0 9.4,4.2 9.4,9.3 0,5.1 -4.2,9.3 -9.4,9.3 -5.2,0 -9.4,-4.2 -9.4,-9.3 0,-5.1 4.2,-9.3 9.4,-9.3 m 0,20.5 C 31,31.2 36.1,26.2 36.1,20 36.1,13.8 31,8.8 24.8,8.8 c -6.2,0 -11.3,5 -11.3,11.2 0,6.2 5,11.2 11.3,11.2 m 0,-13.1 c 1,0 1.9,0.8 1.9,1.9 0,1.1 -0.8,1.9 -1.9,1.9 -1.1,0 -1.9,-0.9 -1.9,-1.9 0,-1 0.8,-1.9 1.9,-1.9 m 0,5.6 c 2.1,0 3.8,-1.7 3.8,-3.7 0,-2 -1.7,-3.7 -3.8,-3.7 -2.1,0 -3.8,1.6 -3.8,3.7 0,2.1 1.7,3.7 3.8,3.7 m 0,-8.8 c 0.5,0 0.9,-0.4 0.9,-0.9 0,-0.5 -0.4,-1 -0.9,-1 -0.5,0 -0.9,0.4 -0.9,0.9 0,0.5 0.3,1 0.9,1 m 0,10.2 c -0.5,0 -0.9,0.4 -0.9,0.9 0,0.5 0.4,0.9 0.9,0.9 0.5,0 0.9,-0.4 0.9,-0.9 0,-0.5 -0.4,-0.9 -0.9,-0.9 m 6.1,-4.2 c 0.5,0 0.9,-0.4 0.9,-0.9 0,-0.5 -0.4,-0.9 -0.9,-0.9 -0.5,0 -0.9,0.4 -0.9,0.9 0,0.5 0.4,0.9 0.9,0.9 m -12.3,0 c 0.5,0 0.9,-0.4 0.9,-0.9 0,-0.5 -0.4,-0.9 -0.9,-0.9 -0.5,0 -0.9,0.4 -0.9,0.9 0,0.5 0.4,0.9 0.9,0.9 M 24.8,0 C 20,0 15.7,1.6 12.2,4.3 l 1.3,1.3 c 3.1,-2.4 7,-3.8 11.2,-3.8 10.2,0.1 18.4,8.2 18.4,18.2 0,10 -8.2,18.1 -18.4,18.1 -4.2,0 -8,-1.4 -11.1,-3.7 l -1.3,1.3 C 15.7,38.4 20.1,40 24.8,40 35.9,40 45,31 45,20 45,9 35.9,0 24.8,0"
   id="path4777"
   inkscape:connector-curvature="0" />
</g>
</svg>