<?xml version="1.0" encoding="utf-8"?>
<!-- Svg Vector Icons : http://www.onlinewebfonts.com/icon -->
<!DOCTYPE svg PUBLIC "-//W3C//DTD SVG 1.1//EN" "http://www.w3.org/Graphics/SVG/1.1/DTD/svg11.dtd">
<svg version="1.1" xmlns="http://www.w3.org/2000/svg" xmlns:xlink="http://www.w3.org/1999/xlink" x="0px" y="0px" viewBox="0 0 1000 1000" enable-background="new 0 0 1000 1000" xml:space="preserve">
<metadata> Svg Vector Icons : http://www.onlinewebfonts.com/icon </metadata>
<g><g transform="translate(0.000000,511.000000) scale(0.100000,-0.100000)"><path d="M6508.2,4989.5c-234.5-64.5-386.9-220.8-447.5-461.1c-54.7-211,11.7-431.8,177.8-592c127-123.1,269.6-173.9,459.2-164.1c168,9.8,279.4,58.6,396.6,170c175.9,164.1,236.4,441.6,150.5,670.2C7137.4,4899.6,6799.4,5071.6,6508.2,4989.5z M6762.2,4567.4c115.3-52.8,142.6-226.7,50.8-322.4c-91.8-97.7-275.5-72.3-328.3,43C6398.8,4479.5,6572.7,4653.4,6762.2,4567.4z"/><path d="M4802.4,4147.3c-443.5-160.2-572.5-707.3-244.2-1033.6c127-129,244.2-175.9,439.6-175.9c195.4,0,312.6,46.9,439.6,175.9c129,127,175.9,244.2,175.9,439.6c0,195.4-46.9,312.6-175.9,439.6C5277.2,4153.2,5003.7,4219.6,4802.4,4147.3z M5085.8,3737c60.6-27.4,127-125.1,127-183.7c0-13.7-13.7-52.8-31.3-87.9c-37.1-80.1-142.6-134.8-222.8-117.2c-72.3,15.6-150.5,93.8-166.1,166.1c-17.6,78.2,37.1,185.6,113.3,222.7C4984.2,3776.1,5005.7,3776.1,5085.8,3737z"/><path d="M5679.8,2490.4c-283.3-76.2-467-312.6-467-603.8c0-168,44.9-287.2,152.4-406.4c363.4-404.5,1010.2-203.2,1088.4,336.1c15.6,101.6-27.4,295-82.1,384.9c-91.8,148.5-220.8,242.3-390.8,287.2C5849.8,2523.6,5800.9,2523.6,5679.8,2490.4z M5976.8,2031.2c130.9-130.9,31.3-353.7-158.3-353.7c-89.9,0-195.4,109.4-195.4,199.3c2,129,84,209.1,220.8,211C5902.5,2087.9,5931.8,2074.2,5976.8,2031.2z"/><path d="M3188.5,985.9c-74.2-74.3-86-150.5-39.1-244.2c43-82.1,107.5-99.6,363.4-99.6h234.5v-1018v-1018l-930.1-1545.6c-637-1057.1-934-1569-939.8-1615.9c-9.8-89.9,27.4-158.3,111.4-199.3c64.5-33.2,248.1-35.2,3005.2-35.2c2493.2,0,2946.5,3.9,3003.2,27.4c70.3,29.3,127,115.3,127,195.4c0,27.3-381,681.9-937.9,1610l-937.9,1563.2v1018V642h234.5c254,0,308.7,15.6,357.6,97.7c54.7,89.9,43,170-33.2,246.2l-66.4,66.4h-375.2c-386.9,0-429.9-7.8-492.4-86c-31.3-37.1-35.2-134.8-35.2-1262.3v-1221.2l850-1416.6l850-1416.6l-1270.1-5.9c-699.5-2-1840.6-2-2540.1,0l-1270.1,5.9l850,1416.6l850,1416.6v1207.5c0,1311.1,2,1289.6-107.5,1338.5c-33.2,15.6-175.9,23.4-422.1,23.4h-373.2L3188.5,985.9z"/><path d="M4644.2-1095.1c-56.7-56.7-56.7-60.6-56.7-285.3V-1609l-599.9-998.4c-330.2-549.1-611.6-1025.8-627.2-1055.1c-41-82.1-3.9-197.4,80.1-248.2c60.6-37.1,109.4-39.1,1557.3-39.1c1440.1,0,1496.7,1.9,1555.3,37.1c78.2,46.9,115.3,148.5,86,226.7c-11.7,29.3-293.1,508-625.3,1062.9l-605.7,1008.2v230.6c0,230.6,0,232.5-56.7,289.2l-56.7,56.7h-297h-297L4644.2-1095.1z M5539.1-2636.7l533.4-893l-537.3-5.9c-295-2-779.6-2-1074.7,0l-537.3,5.9l533.4,893c291.1,490.4,535.4,892.9,541.2,892.9C5003.7-1743.8,5247.9-2146.3,5539.1-2636.7z"/></g></g>
</svg>