<?xml version="1.0" encoding="UTF-8" standalone="no"?>
<!-- Svg Vector Icons : http://www.onlinewebfonts.com/icon -->

<svg
   xmlns:dc="http://purl.org/dc/elements/1.1/"
   xmlns:cc="http://creativecommons.org/ns#"
   xmlns:rdf="http://www.w3.org/1999/02/22-rdf-syntax-ns#"
   xmlns:svg="http://www.w3.org/2000/svg"
   xmlns="http://www.w3.org/2000/svg"
   xmlns:sodipodi="http://sodipodi.sourceforge.net/DTD/sodipodi-0.dtd"
   xmlns:inkscape="http://www.inkscape.org/namespaces/inkscape"
   version="1.1"
   x="0px"
   y="0px"
   viewBox="0 0 404.39664 404.40677"
   enable-background="new 0 0 1000 1000"
   xml:space="preserve"
   id="svg4865"
   sodipodi:docname="cooling.svg"
   width="404.39664"
   height="404.40677"
   inkscape:version="0.92.4 (5da689c313, 2019-01-14)"><defs
   id="defs4869" /><sodipodi:namedview
   pagecolor="#ffffff"
   bordercolor="#666666"
   borderopacity="1"
   objecttolerance="10"
   gridtolerance="10"
   guidetolerance="10"
   inkscape:pageopacity="0"
   inkscape:pageshadow="2"
   inkscape:window-width="1920"
   inkscape:window-height="976"
   id="namedview4867"
   showgrid="false"
   inkscape:zoom="0.236"
   inkscape:cx="497.5"
   inkscape:cy="-93.093242"
   inkscape:window-x="-8"
   inkscape:window-y="-8"
   inkscape:window-maximized="1"
   inkscape:current-layer="svg4865" />
<metadata
   id="metadata4853"> Svg Vector Icons : http://www.onlinewebfonts.com/icon <rdf:RDF><cc:Work
     rdf:about=""><dc:format>image/svg+xml</dc:format><dc:type
       rdf:resource="http://purl.org/dc/dcmitype/StillImage" /></cc:Work></rdf:RDF></metadata>
<g
   id="g4863"
   transform="matrix(10.110169,0,0,10.110169,-25.275422,-25.275422)">
<path
   d="M 13.878,39.922 C 7.922,39.922 2.5,34.944 2.5,29.344 c 0,-1.778 0.978,-5.156 4.622,-5.156 1.689,0 2.667,0.356 3.644,0.711 0.8,0.267 1.511,0.533 2.756,0.533 1.956,0 2.756,-2.222 2.933,-2.933 l 1.6,0.444 c -0.267,0.978 -1.422,4.178 -4.533,4.178 -1.511,0 -2.489,-0.356 -3.378,-0.711 -0.8,-0.356 -1.6,-0.622 -3.022,-0.622 -2.933,0 -3.022,3.111 -3.022,3.467 0,4.622 4.622,8.889 9.689,8.889 5.511,0 7.022,-3.556 7.822,-10.667 l 1.689,0.178 c -0.711,6.578 -2.044,12.267 -9.422,12.267 z"
   id="path4855"
   inkscape:connector-curvature="0" /><path
   d="M 17.167,23.3 C 10.767,22.589 5.078,21.256 5.078,13.878 5.078,7.922 10.056,2.5 15.656,2.5 c 1.778,0 5.156,0.978 5.156,4.622 0,1.689 -0.356,2.667 -0.711,3.644 -0.267,0.8 -0.533,1.511 -0.533,2.756 0,1.956 2.222,2.756 2.933,2.933 l -0.444,1.689 c -0.978,-0.267 -4.178,-1.422 -4.178,-4.533 0,-1.511 0.356,-2.489 0.711,-3.378 0.267,-0.8 0.622,-1.6 0.622,-3.022 0,-2.933 -3.111,-3.022 -3.467,-3.022 -4.622,0 -8.889,4.622 -8.889,9.689 0,5.511 3.556,7.022 10.667,7.822 z m 12.177,19.2 c -1.778,0 -5.156,-0.978 -5.156,-4.622 0,-1.689 0.356,-2.667 0.711,-3.644 0.267,-0.8 0.533,-1.511 0.533,-2.756 0,-1.956 -2.222,-2.756 -2.933,-2.933 l 0.444,-1.6 c 0.978,0.267 4.178,1.422 4.178,4.533 0,1.511 -0.356,2.489 -0.711,3.378 -0.356,0.8 -0.622,1.6 -0.622,3.022 0,2.933 3.111,3.022 3.467,3.022 4.622,0 8.889,-4.622 8.889,-9.689 0,-5.511 -3.556,-7.022 -10.667,-7.822 L 27.655,21.7 c 6.4,0.711 12.089,2.044 12.089,9.511 0.178,5.867 -4.8,11.289 -10.4,11.289 z"
   id="path4857"
   inkscape:connector-curvature="0" /><path
   d="m 28.544,22.5 -1.689,-0.444 c 0.267,-0.978 1.422,-4.178 4.533,-4.178 1.511,0 2.489,0.356 3.378,0.711 0.8,0.267 1.6,0.622 3.022,0.622 2.933,0 3.022,-3.111 3.022,-3.467 0,-4.622 -4.622,-8.889 -9.689,-8.889 -5.511,0 -7.022,3.556 -7.822,10.667 L 21.61,17.344 c 0.711,-6.4 2.044,-12.089 9.511,-12.089 5.956,-0.178 11.378,4.8 11.378,10.4 0,1.778 -0.978,5.156 -4.622,5.156 -1.689,0 -2.667,-0.356 -3.644,-0.711 -0.8,-0.267 -1.511,-0.533 -2.756,-0.533 -2.044,-0.089 -2.755,2.222 -2.933,2.933 z"
   id="path4859"
   inkscape:connector-curvature="0" /><path
   d="m 22.5,28.367 c -3.2,0 -5.867,-2.578 -5.867,-5.867 0,-3.289 2.578,-5.867 5.867,-5.867 3.289,0 5.867,2.578 5.867,5.867 0,3.289 -2.667,5.867 -5.867,5.867 z m 0,-10.045 c -2.311,0 -4.178,1.867 -4.178,4.178 0,2.311 1.867,4.178 4.178,4.178 2.311,0 4.178,-1.867 4.178,-4.178 0,-2.311 -1.867,-4.178 -4.178,-4.178 z"
   id="path4861"
   inkscape:connector-curvature="0" />
</g>
</svg>