<?xml version="1.0" encoding="utf-8"?>
<!-- Svg Vector Icons : http://www.onlinewebfonts.com/icon -->
<!DOCTYPE svg PUBLIC "-//W3C//DTD SVG 1.1//EN" "http://www.w3.org/Graphics/SVG/1.1/DTD/svg11.dtd">
<svg version="1.1" xmlns="http://www.w3.org/2000/svg" xmlns:xlink="http://www.w3.org/1999/xlink" x="0px" y="0px" viewBox="0 0 1000 1000" enable-background="new 0 0 1000 1000" xml:space="preserve">
<metadata> Svg Vector Icons : http://www.onlinewebfonts.com/icon </metadata>
<g><path d="M767.3,366.4c0-12.3-10-22.3-22.3-22.3H388.6c-12.3,0-22.3,10-22.3,22.3l0,0c0,12.3,10,22.3,22.3,22.3H745C757.3,388.6,767.3,378.6,767.3,366.4L767.3,366.4z"/><path d="M232.7,366.4L232.7,366.4c0,12.3,10,22.3,22.3,22.3h44.5c12.3,0,22.3-10,22.3-22.3l0,0c0-12.3-10-22.3-22.3-22.3H255C242.8,344.1,232.7,354.1,232.7,366.4z"/><path d="M767.3,566.8c0-12.3-10-22.3-22.3-22.3H388.6c-12.3,0-22.3,10-22.3,22.3l0,0c0,12.3,10,22.3,22.3,22.3H745C757.3,589.1,767.3,579.1,767.3,566.8L767.3,566.8z"/><path d="M321.8,566.8c0-12.3-10-22.3-22.3-22.3H255c-12.3,0-22.3,10-22.3,22.3l0,0c0,12.3,10,22.3,22.3,22.3h44.5C311.8,589.1,321.8,579.1,321.8,566.8L321.8,566.8z"/><path d="M745,745H388.6c-12.3,0-22.3,10-22.3,22.3l0,0c0,12.3,10,22.3,22.3,22.3H745c12.3,0,22.3-10,22.3-22.3l0,0C767.3,755,757.3,745,745,745z"/><path d="M299.5,745H255c-12.3,0-22.3,10-22.3,22.3l0,0c0,12.3,10,22.3,22.3,22.3h44.5c12.3,0,22.3-10,22.3-22.3l0,0C321.8,755,311.8,745,299.5,745z"/><path d="M811.8,10H745c-12.3,0-22.3,10-22.3,22.3c0,12.3,10,22.3,22.3,22.3h66.8c49.2,0,89.1,39.9,89.1,89.1v712.7c0,49.2-39.9,89.1-89.1,89.1l-623.6,0c-49.2,0-89.1-39.9-89.1-89.1V143.6c0-49.2,39.9-89.1,89.1-89.1H255c12.2,0,22.3-10,22.3-22.3c0-12.3-10-22.3-22.3-22.3h-66.8C114.5,10,54.5,69.9,54.5,143.6v712.7c0,73.7,59.9,133.6,133.6,133.6h623.6c73.7,0,133.6-59.9,133.6-133.6V143.6C945.5,69.9,885.5,10,811.8,10z"/><path d="M366.4,188.2h267.3c24.5,0,44.5-20,44.5-44.5V54.5c0-24.5-20-44.5-44.5-44.5H366.4c-24.5,0-44.5,20-44.5,44.5v89.1C321.8,168.1,341.9,188.2,366.4,188.2z M366.4,54.5h267.3v89.1H366.4V54.5z"/></g>
</svg>