<?xml version="1.0" encoding="UTF-8" standalone="no"?>
<!-- Svg Vector Icons : http://www.onlinewebfonts.com/icon -->

<svg
   xmlns:dc="http://purl.org/dc/elements/1.1/"
   xmlns:cc="http://creativecommons.org/ns#"
   xmlns:rdf="http://www.w3.org/1999/02/22-rdf-syntax-ns#"
   xmlns:svg="http://www.w3.org/2000/svg"
   xmlns="http://www.w3.org/2000/svg"
   xmlns:sodipodi="http://sodipodi.sourceforge.net/DTD/sodipodi-0.dtd"
   xmlns:inkscape="http://www.inkscape.org/namespaces/inkscape"
   version="1.1"
   x="0px"
   y="0px"
   viewBox="0 0 430.78076 430.26117"
   enable-background="new 0 0 1000 1000"
   xml:space="preserve"
   id="svg1036"
   sodipodi:docname="tool.svg"
   width="430.78076"
   height="430.26117"
   inkscape:version="0.92.4 (5da689c313, 2019-01-14)"><defs
   id="defs1040" /><sodipodi:namedview
   pagecolor="#ffffff"
   bordercolor="#666666"
   borderopacity="1"
   objecttolerance="10"
   gridtolerance="10"
   guidetolerance="10"
   inkscape:pageopacity="0"
   inkscape:pageshadow="2"
   inkscape:window-width="1920"
   inkscape:window-height="976"
   id="namedview1038"
   showgrid="false"
   inkscape:zoom="1.3350176"
   inkscape:cx="-38.267017"
   inkscape:cy="250.54571"
   inkscape:window-x="-8"
   inkscape:window-y="-8"
   inkscape:window-maximized="1"
   inkscape:current-layer="svg1036" />
<metadata
   id="metadata1030"> Svg Vector Icons : http://www.onlinewebfonts.com/icon <rdf:RDF><cc:Work
     rdf:about=""><dc:format>image/svg+xml</dc:format><dc:type
       rdf:resource="http://purl.org/dc/dcmitype/StillImage" /><dc:title></dc:title></cc:Work></rdf:RDF></metadata>
<g
   id="g1034"
   transform="matrix(4.4356498,0,0,4.4356498,6.6490393,6.6534747)">
<path
   d="m 79.73685,95.500574 c -5.071171,0 -10.142341,-2.425344 -13.006031,-6.835057 L 49.976533,64.635204 23.520875,91.090861 c -2.866314,2.866314 -6.61457,4.409713 -10.360202,4.409713 -3.9687423,0 -7.4965132,-1.543399 -10.3602022,-4.189226 -5.7326278,-5.732628 -5.7326278,-14.769917 0,-20.502545 L 31.67622,41.930429 14.701448,24.955657 H 8.9688203 c -0.8819429,0 -1.5433999,-0.440972 -1.9843712,-1.102429 l -8.15797,-13.667487 C -1.6144926,9.3037981 -1.3940065,7.9808842 -0.7325496,7.3194272 l 8.15797,-8.15797027 C 7.8690166,-1.2795144 8.5304736,-1.5 8.9688203,-1.5 c 0.4383462,0 0.8819426,0.2204873 1.1024287,0.2204873 l 13.667487,8.1579685 c 0.661457,0.4409714 1.102428,1.1024284 1.102428,1.9843711 V 14.81594 l 16.974773,16.974773 3.307284,-3.307286 V 28.262942 C 43.579822,17.682254 48.430506,7.3194272 57.247311,2.0277709 61.216053,-0.17708574 65.625766,-1.5 70.032855,-1.5 c 4.6302,0 9.260396,1.32291426 13.226514,3.7482565 1.102428,0.6614571 1.543399,1.7638855 1.543399,2.8663139 0,1.1024283 -0.656205,2.2048568 -1.758634,2.8663138 L 72.24296,14.154483 v 8.378456 l 7.276027,4.189228 10.801175,-6.173599 c 0.44097,-0.220487 1.102428,-0.440972 1.763885,-0.440972 0.661458,0 1.102429,0.220488 1.763886,0.440972 1.102429,0.661457 1.763882,1.763885 1.763882,2.866314 A 25.342729,25.342729 0 0 1 83.046759,45.901797 c -3.748255,2.204857 -8.157972,3.307285 -12.565061,3.307285 -1.322911,0 -2.866314,-0.220475 -4.189225,-0.440971 h -0.220476 l -1.322911,1.102428 24.030313,16.754287 c 4.189226,2.866314 6.835057,7.937484 6.835057,13.006031 A 15.811973,15.811973 0 0 1 79.736862,95.500574 Z m -37.477317,-40.343629 3.086799,3.086801 h 4.409713 c 0.661458,0 1.543399,0.440971 1.763886,0.881941 l 18.73866,26.896627 c 2.204856,3.086802 5.512141,4.850688 9.260396,4.850688 6.173599,0 11.242145,-5.071171 11.242145,-11.242145 0,-3.748259 -1.763886,-7.055544 -4.850683,-9.260401 L 59.013821,51.631797 c -0.661458,-0.44097 -0.881945,-1.102428 -0.881945,-1.763882 V 45.458198 L 55.045079,42.3714 Z M 6.1051312,73.895604 c -1.9843712,1.984369 -2.8663138,4.409713 -2.8663138,7.05554 0,2.645827 1.1024283,5.07117 2.8663138,7.055544 1.9843711,1.984369 4.4097138,2.866314 7.0555418,2.866314 2.645828,0 5.07117,-1.102432 7.055541,-2.866314 L 45.348957,62.873942 h -1.102428 a 2.0027449,2.0027449 0 0 1 -1.5434,-0.661454 L 37.190987,56.700343 A 2.3807204,2.3807204 0 0 1 36.52953,55.156945 c 0,-0.661458 0.220487,-1.102429 0.661457,-1.543399 l 3.0868,-3.086801 -5.512142,-5.512142 z M 3.6797887,9.3011734 10.294359,20.322832 h 5.512142 c 0.661457,0 1.102428,0.220488 1.5434,0.661457 L 44.905362,48.324512 48.43313,44.796745 21.095532,17.238658 c -0.440971,-0.220486 -0.661457,-0.881943 -0.661457,-1.5434 V 10.183116 L 9.4124163,3.5685458 Z M 55.265562,36.638773 c 0.661458,0 1.102428,0.220487 1.543399,0.661457 l 5.291658,5.291656 c 1.102428,0.661457 2.204856,1.322914 3.527772,1.763885 1.543398,0.440974 3.086797,0.440974 4.6302,0.440974 3.527768,0 7.276027,-0.881945 10.3602,-2.866316 5.732628,-3.307285 9.480883,-9.039913 10.360204,-15.651858 v -0.881943 l -10.142341,5.953113 c -0.440975,0.220488 -0.661458,0.220488 -1.102429,0.220488 -0.440974,0 -0.881944,0 -1.102432,-0.220488 L 69.15091,25.837599 C 68.489452,25.396628 68.048482,24.735171 68.048482,23.853228 V 12.828944 c 0,-0.881942 0.44097,-1.543399 1.102428,-1.984371 L 79.293251,5.1119455 78.41131,4.6709742 C 75.765483,3.5685458 73.119652,2.9070888 70.253338,2.9070888 c -3.748255,0 -7.276027,1.1024283 -10.580687,2.8663138 -7.716998,4.6301994 -11.683116,13.8879734 -9.701371,22.7074004 0.220475,0.661456 0,1.543399 -0.661454,2.204856 l -4.189229,4.189228 5.512141,5.512142 3.086801,-3.086799 a 2.0106194,2.0106194 0 0 1 1.546023,-0.661457 z"
   id="path1032"
   inkscape:connector-curvature="0"
   style="stroke-width:2.62482953" />
</g>
</svg>