<?xml version="1.0" encoding="UTF-8" standalone="no"?>
<!-- Svg Vector Icons : http://www.onlinewebfonts.com/icon -->

<svg
   xmlns:dc="http://purl.org/dc/elements/1.1/"
   xmlns:cc="http://creativecommons.org/ns#"
   xmlns:rdf="http://www.w3.org/1999/02/22-rdf-syntax-ns#"
   xmlns:svg="http://www.w3.org/2000/svg"
   xmlns="http://www.w3.org/2000/svg"
   xmlns:sodipodi="http://sodipodi.sourceforge.net/DTD/sodipodi-0.dtd"
   xmlns:inkscape="http://www.inkscape.org/namespaces/inkscape"
   version="1.1"
   x="0px"
   y="0px"
   viewBox="0 0 397.7728 408.82202"
   enable-background="new 0 0 1000 1000"
   xml:space="preserve"
   id="svg4805"
   sodipodi:docname="transmission.svg"
   width="397.7728"
   height="408.82202"
   inkscape:version="0.92.4 (5da689c313, 2019-01-14)"><defs
   id="defs4809" /><sodipodi:namedview
   pagecolor="#ffffff"
   bordercolor="#666666"
   borderopacity="1"
   objecttolerance="10"
   gridtolerance="10"
   guidetolerance="10"
   inkscape:pageopacity="0"
   inkscape:pageshadow="2"
   inkscape:window-width="1920"
   inkscape:window-height="976"
   id="namedview4807"
   showgrid="false"
   inkscape:zoom="0.944"
   inkscape:cx="145.18414"
   inkscape:cy="272.29811"
   inkscape:window-x="-8"
   inkscape:window-y="-8"
   inkscape:window-maximized="1"
   inkscape:current-layer="svg4805" />
<metadata
   id="metadata4799"> Svg Vector Icons : http://www.onlinewebfonts.com/icon <rdf:RDF><cc:Work
     rdf:about=""><dc:format>image/svg+xml</dc:format><dc:type
       rdf:resource="http://purl.org/dc/dcmitype/StillImage" /></cc:Work></rdf:RDF></metadata>
<g
   id="g4803"
   transform="scale(11.049244)">
<path
   d="m 32,37 c -2.2,0 -4,-1.8 -4,-4 0,-1.9 1.2,-3.4 3,-3.8 h 0.1 V 19 h -12 v 10.2 h 0.1 c 1.8,0.4 2.9,2 2.9,3.8 0,2.2 -1.8,4 -4,4 -2.2,0 -4,-1.8 -4,-4 0,-1.8 1.1,-3.3 3,-3.8 V 19 H 5.7 C 4.1,19 3,18 3,16.4 V 7.8 C 1.1,7.2 0,5.8 0,4 0,1.8 1.7,0 3.9,0 6.1,0 8,1.8 8,4 8,6 7,7.4 5.1,7.8 v 8.6 C 5,16.7 5,17 5.7,17 H 17 V 7.8 h -0.1 c -1.8,-0.4 -3,-1.9 -3,-3.8 0,-2.2 1.7,-4 3.9,-4 2.2,0 4.1,1.8 4.1,4 0,1.8 -1.1,3.3 -2.9,3.8 V 17 H 31 V 7.8 H 30.9 C 29,7.4 27.8,5.8 27.8,4 c 0,-2.2 1.8,-4 4,-4 2.2,0 4,1.8 4,4 0,1.9 -1,3.3 -2.8,3.8 v 21.5 h 0.1 c 1.8,0.5 2.9,1.9 2.9,3.7 0,2.3 -1.8,4 -4,4 z m 0,-6.1 c -1.2,0 -2.2,0.9 -2.2,2.1 0,1.2 1,2.1 2.2,2.1 1.2,0 2.2,-0.9 2.2,-2.1 -0.1,-1.1 -1,-2.1 -2.2,-2.1 z m -14.1,0 c -1.2,0 -2.2,0.9 -2.2,2.1 0,1.2 1,2.1 2.2,2.1 1.2,0 2.2,-0.9 2.2,-2.1 0,-1.1 -1,-2.1 -2.2,-2.1 z M 32,1.8 c -1.2,0 -2.2,0.9 -2.2,2.1 0,1.2 1,2.1 2.2,2.1 1.2,0 2.2,-0.9 2.2,-2.1 C 34.1,2.8 33.2,1.8 32,1.8 Z m -14.1,0 c -1.2,0 -2.2,0.9 -2.2,2.1 0,1.2 1,2.1 2.2,2.1 1.2,0 2.2,-0.9 2.2,-2.1 0,-1.1 -1,-2.1 -2.2,-2.1 z m -14,0 c -1.2,0 -2.2,1 -2.2,2.2 0,1.2 1,2.1 2.2,2.1 C 5.1,6.1 6.1,5.2 6.1,4 6.1,2.8 5.1,1.8 3.9,1.8 Z"
   id="path4801"
   inkscape:connector-curvature="0" />
</g>
</svg>