<?xml version="1.0" encoding="utf-8"?>
<!DOCTYPE svg PUBLIC "-//W3C//DTD SVG 1.1//EN" "http://www.w3.org/Graphics/SVG/1.1/DTD/svg11.dtd">
<svg version="1.1" id="Layer_1" xmlns="http://www.w3.org/2000/svg" xmlns:xlink="http://www.w3.org/1999/xlink" x="0px" y="0px"
	 width="100%" height="100%" viewBox="0 0 128 47" enable-background="new -2 -1.5 26 10" xml:space="preserve">

<path fill-rule="evenodd" clip-rule="evenodd" fill="#FE0" d="M61.244 7.512c.173.062 2.628 4.337 2.874 4.796.592 1.109 1.187 2.237 1.789 3.341.559 1.028.771 1.556 1.257 2.556.475.974.917 2.037 1.309 3.045.238.616.323.884.501 1.544.477 1.767.314 4.827-.367 6.537-1.144 2.87-4.274 3.482-7.36 3.47-3.509-.016-5.691-.708-7.306-3.459-.864-1.656-.88-4.796-.381-6.581l.488-1.494c.333-1.055.802-2.032 1.327-3.085a232.97 232.97 0 0 1 3.034-5.876c.177-.333 2.634-4.573 2.835-4.794zm3.938 28.853a11.91 11.91 0 0 0 2.608-1.191c.9-.55 1.422-.916 2.168-1.623.888-.84 1.001-1.051 1.764-2.025.146-.186.516-.848.653-1.033.5-.684.96-2.084 1.133-2.864.574-2.579.541-4.723-.398-7.203-.093-.25-.693-1.742-.779-1.997l-.553-1.387c-.822-1.696-1.661-3.372-2.498-5.059-.201-.404-.55-.974-.755-1.361-.827-1.556-1.786-3.07-2.69-4.626-.238-.41-.838-1.345-1.055-1.733-.336-.6-1.589-2.533-1.87-2.796-.904-.843-2.395-.881-3.293 0-.563.553-1.371 2.01-1.849 2.794-.353.569-.74 1.154-1.066 1.735-.904 1.51-1.921 3.069-2.713 4.627-.123.241-.651 1.177-.754 1.389-.808 1.693-1.691 3.343-2.497 5.056-.193.409-.395.955-.559 1.359l-.777 2.063c-.865 2.789-1.134 4.144-.39 7.108.152.604.813 2.336 1.145 2.894l.667 1.041c.643.816.923 1.292 1.741 2.021.757.673 1.371 1.089 2.185 1.629.52.346 2.112 1.061 2.734 1.233 2.709.833 5.148.896 7.698-.051zm0 0"/>
<path fill-rule="evenodd" clip-rule="evenodd" fill="#FFF" d="M41.969 17.989h5.125a14.01 14.01 0 0 0-.378-2.257c-.32-1.233-.808-2.209-1.463-2.927-.657-.719-1.551-1.257-2.676-1.608-1.087-.34-2.394-.511-3.92-.511-1.022 0-1.95.076-2.783.233-.845.159-1.59.398-2.233.719a5.886 5.886 0 0 0-1.711 1.26l-.154.169v-2.046h-4.972v25.723h5.129v-14.86c0-1.258.12-2.334.354-3.224.228-.857.564-1.546 1.005-2.058.432-.499 1.005-.876 1.719-1.131.743-.264 1.637-.398 2.682-.398.906 0 1.657.081 2.254.238.551.144.966.354 1.245.623.19.185.35.444.479.778.135.346.233.77.298 1.277zm0 0M100.3 16.224c-.41-1.35-1.035-2.422-1.871-3.209-1.632-1.552-4.387-2.329-8.254-2.329-1.145 0-2.185.087-3.116.262-.943.177-1.772.445-2.482.803a6.568 6.568 0 0 0-2.162 1.724v-2.454h-4.799V46.19h4.952V34.419a6.8 6.8 0 0 0 2.25 1.707c.678.321 1.469.562 2.372.722.884.155 1.879.233 2.986.233 1.907 0 3.545-.188 4.911-.567 1.4-.386 2.516-.974 3.343-1.761.836-.788 1.459-1.858 1.871-3.204.401-1.311.6-2.888.6-4.723v-5.857c-.001-1.847-.2-3.429-.601-4.745zm-4.504 5.567v4.211c0 1.521-.099 2.757-.3 3.707-.188.887-.454 1.507-.802 1.861-.343.354-.89.627-1.636.817-.797.203-1.808.306-3.027.306-1.351 0-2.512-.14-3.479-.415-.935-.267-1.691-.663-2.258-1.183-.566-.522-.993-1.206-1.281-2.051-.297-.873-.446-1.92-.446-3.139v-4.02c0-1.231.149-2.286.446-3.162.287-.847.715-1.528 1.279-2.05.569-.52 1.322-.917 2.259-1.184.967-.275 2.128-.415 3.479-.415 1.22 0 2.23.103 3.027.306.746.19 1.293.463 1.638.819.347.351.612.974.801 1.865.2.956.3 2.198.3 3.727zM18.27.81v12.454a6.322 6.322 0 0 0-2.031-1.615c-.637-.323-1.385-.565-2.241-.725a15.412 15.412 0 0 0-2.822-.236c-1.807 0-3.36.19-4.655.569-1.329.39-2.389.983-3.18 1.781C1.78 14.604 1 17.249 1 20.968v5.857c0 1.824.19 3.391.569 4.699.39 1.342.981 2.412 1.77 3.209.788.795 1.849 1.389 3.181 1.78 1.295.379 2.847.568 4.655.568 1.091 0 2.078-.085 2.955-.256.894-.174 1.675-.438 2.342-.789a6.095 6.095 0 0 0 1.769-1.399l.174-.208v2.317h4.583V.81H18.27zm0 21.075v4.02c0 1.224-.14 2.274-.419 3.147-.272.845-.673 1.53-1.205 2.05-.538.52-1.245.915-2.117 1.179-.9.273-1.982.412-3.242.412-1.148 0-2.096-.103-2.844-.303-.698-.188-1.211-.46-1.534-.809-.325-.351-.577-.974-.754-1.865-.19-.956-.284-2.193-.284-3.714v-4.211c0-1.528.095-2.773.284-3.733.177-.896.429-1.521.754-1.872.323-.351.836-.621 1.534-.809.748-.2 1.696-.303 2.844-.303 1.26 0 2.342.138 3.241.412.873.264 1.581.658 2.118 1.179.53.52.933 1.204 1.205 2.051.279.876.419 1.932.419 3.169zM127 28.974c0 .93-.059 1.758-.179 2.481-.121.739-.308 1.367-.556 1.878a5.59 5.59 0 0 1-1.056 1.471 8.233 8.233 0 0 1-1.588 1.238c-.308.199-.704.367-1.184.502-.462.13-1.007.234-1.632.311-.621.074-1.357.134-2.199.169a64.94 64.94 0 0 1-2.885.057c-2.215 0-4.063-.129-5.541-.385-1.528-.266-2.679-.674-3.455-1.226-.796-.571-1.389-1.365-1.781-2.383-.378-.982-.566-2.17-.566-3.562V28.33h4.775v1.1c0 .684.103 1.252.305 1.702.188.423.472.75.845.98.404.244 1.043.433 1.915.565.911.137 2.059.207 3.447.207 1.56 0 2.813-.07 3.759-.21.88-.13 1.466-.311 1.758-.542l.005-.003c.28-.219.494-.556.645-1.013.166-.503.249-1.142.249-1.91 0-.757-.07-1.379-.205-1.866-.123-.438-.295-.758-.517-.953-.23-.21-.675-.385-1.332-.531-.72-.159-1.666-.269-2.838-.331-.904-.048-2.101-.096-3.595-.145-1.666-.043-2.993-.124-3.98-.236-1.063-.121-1.786-.291-2.165-.503a5.426 5.426 0 0 1-1.335-1.019 4.758 4.758 0 0 1-.897-1.342c-.217-.485-.381-1.072-.488-1.76a15.16 15.16 0 0 1-.157-2.294c0-1.429.185-2.637.557-3.625.388-1.028.976-1.817 1.762-2.362.762-.531 1.949-.924 3.561-1.181 1.563-.247 3.54-.371 5.926-.371 1.86 0 3.428.118 4.706.356 1.323.245 2.341.621 3.056 1.126.738.52 1.291 1.236 1.658 2.143.353.875.532 1.925.532 3.147v.54h-4.728v-.772c0-.859-.364-1.448-1.093-1.768-.88-.385-2.687-.576-5.418-.576-1.343 0-2.432.059-3.268.18-.785.112-1.33.272-1.638.478-.278.183-.491.482-.637.889-.166.46-.249 1.059-.249 1.795 0 .471.016.859.048 1.168.03.295.072.52.125.677.051.135.118.253.202.353.082.098.185.182.306.249.311.163.839.297 1.582.399.796.111 1.812.182 3.046.213l1.489.048a106.3 106.3 0 0 1 2.771.138c.822.054 1.528.115 2.121.183.614.067 1.135.148 1.562.243.457.099.83.22 1.119.357.595.27 1.107.604 1.534.997.438.404.789.873 1.052 1.401l.002.005c.252.519.44 1.145.563 1.878.119.712.179 1.526.179 2.44z"/>

</svg>
