<?xml version="1.0" encoding="UTF-8" standalone="no"?>
<!-- Created with Inkscape (http://www.inkscape.org/) -->

<svg
   xmlns:dc="http://purl.org/dc/elements/1.1/"
   xmlns:cc="http://creativecommons.org/ns#"
   xmlns:rdf="http://www.w3.org/1999/02/22-rdf-syntax-ns#"
   xmlns:svg="http://www.w3.org/2000/svg"
   xmlns="http://www.w3.org/2000/svg"
   xmlns:sodipodi="http://sodipodi.sourceforge.net/DTD/sodipodi-0.dtd"
   xmlns:inkscape="http://www.inkscape.org/namespaces/inkscape"
   width="102.18343mm"
   height="13.22917mm"
   viewBox="0 0 102.18343 13.229169"
   version="1.1"
   id="svg959"
   inkscape:version="0.92.4 (5da689c313, 2019-01-14)"
   sodipodi:docname="header_logo.svg">
  <defs
     id="defs953" />
  <sodipodi:namedview
     id="base"
     pagecolor="#ffffff"
     bordercolor="#666666"
     borderopacity="1.0"
     inkscape:pageopacity="0.0"
     inkscape:pageshadow="2"
     inkscape:zoom="3.1791521"
     inkscape:cx="210.36427"
     inkscape:cy="38.638333"
     inkscape:document-units="mm"
     inkscape:current-layer="layer1"
     showgrid="false"
     inkscape:window-width="1920"
     inkscape:window-height="996"
     inkscape:window-x="-8"
     inkscape:window-y="-8"
     inkscape:window-maximized="1" />
  <metadata
     id="metadata956">
    <rdf:RDF>
      <cc:Work
         rdf:about="">
        <dc:format>image/svg+xml</dc:format>
        <dc:type
           rdf:resource="http://purl.org/dc/dcmitype/StillImage" />
        <dc:title></dc:title>
      </cc:Work>
    </rdf:RDF>
  </metadata>
  <g
     inkscape:label="Layer 1"
     inkscape:groupmode="layer"
     id="layer1"
     transform="translate(591.08929,-155.62798)">
    <path
       inkscape:connector-curvature="0"
       d="m -591.08929,155.62798 h 102.18343 l -6.15424,13.22917 h -96.02919 z"
       style="fill:#ffd008;fill-rule:evenodd;stroke-width:0.03589965"
       id="path909"
       sodipodi:nodetypes="ccccc" />
    <path
       inkscape:connector-curvature="0"
       d="m -555.89155,166.58423 c 0,0.037 -0.0117,0.0702 -0.035,0.0994 -0.0215,0.0293 -0.0605,0.0527 -0.11701,0.0722 -0.0545,0.0176 -0.12865,0.0331 -0.21838,0.0429 -0.0916,0.01 -0.20859,0.0136 -0.34896,0.0136 -0.14038,0 -0.25734,-0.004 -0.34897,-0.0136 -0.0897,-0.01 -0.16373,-0.0254 -0.21831,-0.0429 -0.0566,-0.0195 -0.0956,-0.0429 -0.11703,-0.0722 -0.0233,-0.0292 -0.0351,-0.0624 -0.0351,-0.0994 v -5.08971 c 0,-0.037 0.0118,-0.0702 0.0351,-0.0994 0.0215,-0.0293 0.0605,-0.0546 0.11703,-0.0742 0.0545,-0.0215 0.12863,-0.037 0.21831,-0.0488 0.0917,-0.0117 0.20859,-0.0175 0.34897,-0.0175 0.14037,0 0.25739,0.006 0.34896,0.0175 0.0897,0.0117 0.1638,0.0273 0.21838,0.0488 0.0566,0.0195 0.0956,0.0449 0.11701,0.0742 0.0233,0.0292 0.035,0.0624 0.035,0.0994 z m 0.11702,-6.83302 c 0,0.29053 -0.0585,0.48947 -0.17744,0.60061 -0.11892,0.11116 -0.3373,0.16574 -0.65897,0.16574 -0.32359,0 -0.54392,-0.0526 -0.65505,-0.15989 -0.11307,-0.10727 -0.16962,-0.30032 -0.16962,-0.57725 0,-0.29054 0.0585,-0.49137 0.17546,-0.60449 0.11506,-0.11115 0.33533,-0.16771 0.66095,-0.16771 0.31971,0 0.53808,0.0546 0.65308,0.16379 0.11505,0.10726 0.17159,0.30035 0.17159,0.5792 z m 6.18407,6.83302 c 0,0.037 -0.0117,0.0702 -0.0351,0.0994 -0.0215,0.0293 -0.0604,0.0527 -0.11308,0.0722 -0.0545,0.0176 -0.12864,0.0331 -0.22224,0.0429 -0.0936,0.01 -0.2086,0.0136 -0.34504,0.0136 -0.14235,0 -0.2593,-0.004 -0.35291,-0.0136 -0.0936,-0.01 -0.16766,-0.0254 -0.22224,-0.0429 -0.0527,-0.0195 -0.0917,-0.0429 -0.11309,-0.0722 -0.0234,-0.0292 -0.0351,-0.0624 -0.0351,-0.0994 v -2.90759 c 0,-0.24762 -0.0175,-0.44262 -0.0545,-0.58303 -0.0351,-0.14238 -0.0878,-0.26329 -0.15599,-0.3627 -0.0682,-0.10143 -0.15789,-0.17944 -0.26514,-0.236 -0.10915,-0.0546 -0.23392,-0.0819 -0.37822,-0.0819 -0.18328,0 -0.3665,0.0663 -0.5537,0.20085 -0.18517,0.1326 -0.38013,0.3276 -0.58098,0.58112 v 3.38924 c 0,0.037 -0.0117,0.0702 -0.035,0.0994 -0.0215,0.0293 -0.0605,0.0527 -0.11701,0.0722 -0.0545,0.0176 -0.12865,0.0332 -0.21837,0.0429 -0.0916,0.01 -0.2086,0.0136 -0.34898,0.0136 -0.14037,0 -0.25733,-0.004 -0.34897,-0.0136 -0.0896,-0.01 -0.16373,-0.0254 -0.21831,-0.0429 -0.0566,-0.0195 -0.0956,-0.0429 -0.11702,-0.0722 -0.0233,-0.0292 -0.0351,-0.0624 -0.0351,-0.0994 v -5.10138 c 0,-0.037 0.01,-0.0702 0.0293,-0.0995 0.0176,-0.0293 0.0527,-0.0526 0.10141,-0.0721 0.0506,-0.0176 0.11303,-0.0332 0.19101,-0.0429 0.078,-0.01 0.17745,-0.0136 0.2944,-0.0136 0.12287,0 0.22224,0.004 0.30221,0.0136 0.0799,0.01 0.14235,0.0254 0.18714,0.0429 0.0429,0.0195 0.0741,0.0429 0.0936,0.0721 0.0194,0.0293 0.0293,0.0624 0.0293,0.0995 v 0.58893 c 0.28069,-0.30423 0.56729,-0.5304 0.85977,-0.68256 0.29046,-0.15208 0.59462,-0.22813 0.91041,-0.22813 0.34707,0 0.6395,0.0566 0.87735,0.17163 0.23785,0.11306 0.42893,0.26908 0.57705,0.46605 0.14627,0.195 0.25149,0.4251 0.31585,0.68834 0.0643,0.2633 0.0975,0.57921 0.0975,0.94776 z m 6.2426,0 c 0,0.0409 -0.01,0.076 -0.0292,0.1053 -0.0176,0.0292 -0.0507,0.0526 -0.0956,0.0721 -0.0468,0.0176 -0.10915,0.0312 -0.18714,0.0391 -0.078,0.007 -0.17351,0.0117 -0.28659,0.0117 -0.12286,0 -0.22223,-0.004 -0.29827,-0.0117 -0.0761,-0.007 -0.13651,-0.0215 -0.18523,-0.0391 -0.0468,-0.0195 -0.0819,-0.0448 -0.10136,-0.0721 -0.0215,-0.0293 -0.0331,-0.0644 -0.0331,-0.10727 v -0.56747 c -0.26121,0.28278 -0.53809,0.50114 -0.82467,0.65716 -0.28851,0.15603 -0.6063,0.23403 -0.95725,0.23403 -0.38794,0 -0.71742,-0.0761 -0.98453,-0.22622 -0.26907,-0.15018 -0.48738,-0.35299 -0.65701,-0.60841 -0.16963,-0.25354 -0.29244,-0.55186 -0.36846,-0.89312 -0.076,-0.3413 -0.11505,-0.70008 -0.11505,-1.07643 0,-0.45245 0.0487,-0.85998 0.14621,-1.22273 0.0975,-0.36074 0.23785,-0.66886 0.42501,-0.92429 0.1872,-0.25548 0.41915,-0.45048 0.69799,-0.58893 0.27683,-0.13653 0.59654,-0.20477 0.95917,-0.20477 0.28466,0 0.54397,0.0585 0.77593,0.17354 0.23397,0.11699 0.46402,0.28666 0.6921,0.51093 v -2.75544 c 0,-0.039 0.01,-0.0722 0.0312,-0.10334 0.0215,-0.0293 0.0585,-0.0566 0.11505,-0.076 0.0545,-0.0215 0.12865,-0.037 0.21832,-0.0487 0.0917,-0.0118 0.20859,-0.0176 0.34896,-0.0176 0.14039,0 0.2574,0.006 0.34898,0.0176 0.0897,0.0117 0.16378,0.0273 0.21645,0.0487 0.0526,0.0194 0.0916,0.0468 0.11303,0.076 0.0234,0.0312 0.0351,0.0643 0.0351,0.10334 z m -1.42711,-3.40677 c -0.20467,-0.25936 -0.40356,-0.45633 -0.5907,-0.59477 -0.18911,-0.13653 -0.38603,-0.20478 -0.59267,-0.20478 -0.18524,0 -0.34706,0.0468 -0.48154,0.14042 -0.13649,0.0936 -0.24374,0.21645 -0.32562,0.37248 -0.0819,0.15792 -0.14424,0.33147 -0.18326,0.5226 -0.0409,0.19303 -0.0604,0.38999 -0.0604,0.59089 0,0.21449 0.0175,0.42118 0.0507,0.62207 0.0351,0.20281 0.0917,0.38219 0.16957,0.54012 0.078,0.15799 0.18136,0.28475 0.31196,0.38028 0.12865,0.0955 0.29244,0.14238 0.49132,0.14238 0.0975,0 0.19496,-0.0136 0.2885,-0.0429 0.0936,-0.0293 0.18721,-0.0742 0.28468,-0.1404 0.0975,-0.0644 0.19686,-0.14823 0.30023,-0.25353 0.10332,-0.10531 0.2164,-0.23207 0.33724,-0.38416 z m 7.57614,0.70979 c 0,0.17551 -0.039,0.30425 -0.11701,0.38809 -0.078,0.0839 -0.18519,0.12677 -0.3236,0.12677 h -3.10374 c 0,0.21645 0.0254,0.41144 0.078,0.58888 0.0507,0.1755 0.13263,0.32567 0.24375,0.44851 0.11303,0.12289 0.25734,0.21645 0.43471,0.28082 0.17743,0.0644 0.38799,0.0975 0.63561,0.0975 0.25151,0 0.47179,-0.0175 0.66286,-0.0546 0.18911,-0.037 0.35482,-0.076 0.49322,-0.12092 0.13841,-0.0448 0.25346,-0.0839 0.34511,-0.12086 0.0917,-0.037 0.16569,-0.0546 0.22223,-0.0546 0.0351,0 0.0644,0.006 0.0858,0.0195 0.0233,0.0136 0.0429,0.037 0.0584,0.0721 0.0136,0.0332 0.0254,0.082 0.0312,0.14435 0.006,0.0624 0.007,0.14231 0.007,0.23594 0,0.0839 -0.002,0.15602 -0.006,0.21448 -0.004,0.0585 -0.01,0.10925 -0.0176,0.15019 -0.007,0.0429 -0.0175,0.078 -0.0331,0.1053 -0.0157,0.0293 -0.0351,0.0566 -0.0604,0.0839 -0.0254,0.0254 -0.0917,0.0624 -0.20277,0.10917 -0.11117,0.0468 -0.25149,0.0917 -0.42308,0.13654 -0.17154,0.0448 -0.36649,0.0839 -0.58683,0.11699 -0.22027,0.0332 -0.45621,0.0507 -0.70771,0.0507 -0.45425,0 -0.84999,-0.0566 -1.19117,-0.17162 -0.33925,-0.11313 -0.62388,-0.28667 -0.85392,-0.51873 -0.22814,-0.23207 -0.39771,-0.52647 -0.5108,-0.87947 -0.11112,-0.35489 -0.16766,-0.77028 -0.16766,-1.24609 0,-0.45239 0.0584,-0.85998 0.17738,-1.22464 0.11701,-0.36271 0.28854,-0.67082 0.51473,-0.92429 0.2242,-0.25352 0.49714,-0.44661 0.81883,-0.57921 0.32359,-0.13451 0.68627,-0.20084 1.08981,-0.20084 0.42697,0 0.79154,0.0624 1.09369,0.18915 0.30416,0.1248 0.55173,0.30031 0.74673,0.52261 0.193,0.22229 0.33724,0.48756 0.42888,0.79173 0.0917,0.30424 0.1365,0.63571 0.1365,0.99455 z m -1.392,-0.40948 c 0.0117,-0.40365 -0.0702,-0.72154 -0.2437,-0.95164 -0.17357,-0.23206 -0.44061,-0.34714 -0.80322,-0.34714 -0.18328,0 -0.34314,0.0351 -0.47767,0.1034 -0.13651,0.0683 -0.24954,0.15989 -0.33926,0.27688 -0.0896,0.11699 -0.1579,0.25353 -0.20467,0.41145 -0.0487,0.15991 -0.076,0.32761 -0.0838,0.50705 z m 6.82356,3.00306 c 0.0312,0.0643 0.0449,0.11895 0.0429,0.15996 -0.002,0.0429 -0.0293,0.076 -0.0819,0.10333 -0.0546,0.0273 -0.13652,0.0448 -0.24566,0.0546 -0.11112,0.01 -0.25733,0.0136 -0.4387,0.0136 -0.17154,0 -0.30995,-0.002 -0.41326,-0.007 -0.10529,-0.006 -0.18721,-0.0175 -0.24566,-0.0351 -0.0585,-0.0175 -0.10332,-0.039 -0.13066,-0.0624 -0.0292,-0.0254 -0.0507,-0.0566 -0.0663,-0.0955 l -0.94754,-1.81161 -0.9358,1.81161 c -0.0155,0.039 -0.037,0.0702 -0.0624,0.0955 -0.0273,0.0234 -0.0682,0.0449 -0.12476,0.0624 -0.0545,0.0176 -0.13257,0.0293 -0.23202,0.0351 -0.0994,0.006 -0.22807,0.007 -0.3899,0.007 -0.16766,0 -0.30219,-0.004 -0.39968,-0.0136 -0.0994,-0.01 -0.1735,-0.0273 -0.21836,-0.0546 -0.0468,-0.0273 -0.0702,-0.0605 -0.0721,-0.10333 -0.002,-0.041 0.0136,-0.0956 0.0487,-0.15996 l 1.40954,-2.50973 -1.29841,-2.35566 c -0.0351,-0.0702 -0.0527,-0.12675 -0.0545,-0.1755 -0.002,-0.0468 0.0215,-0.0839 0.0721,-0.11116 0.0487,-0.0273 0.12869,-0.0449 0.23785,-0.0566 0.10725,-0.0117 0.25543,-0.0175 0.44257,-0.0175 0.16768,0 0.3022,0.002 0.40356,0.007 0.0994,0.006 0.1794,0.0155 0.23594,0.0273 0.0584,0.01 0.0994,0.0292 0.12667,0.0526 0.0273,0.0254 0.0487,0.0566 0.0682,0.0955 l 0.90654,1.7044 0.89487,-1.7044 c 0.0117,-0.0312 0.0293,-0.0565 0.0507,-0.0799 0.0233,-0.0234 0.0604,-0.0429 0.10915,-0.0585 0.0507,-0.0136 0.11696,-0.0253 0.20276,-0.0332 0.0858,-0.007 0.20472,-0.0117 0.35291,-0.0117 0.16766,0 0.30213,0.004 0.40354,0.0117 0.10136,0.007 0.1735,0.0253 0.21641,0.0507 0.0449,0.0273 0.0663,0.0643 0.0643,0.11115 -0.002,0.0487 -0.0254,0.11115 -0.0663,0.18718 l -1.26331,2.31474 z m 5.8254,-2.49799 c 0,0.43291 -0.0566,0.82875 -0.17155,1.18759 -0.11504,0.35686 -0.28658,0.66497 -0.52057,0.92433 -0.23201,0.25936 -0.52247,0.45824 -0.8734,0.60061 -0.35095,0.14041 -0.76033,0.21061 -1.22824,0.21061 -0.45424,0 -0.84807,-0.0624 -1.18341,-0.18915 -0.33532,-0.12485 -0.61411,-0.30812 -0.83444,-0.54799 -0.22028,-0.23988 -0.38407,-0.53434 -0.49125,-0.8853 -0.10726,-0.34911 -0.15993,-0.74884 -0.15993,-1.19932 0,-0.4329 0.0585,-0.83071 0.17357,-1.18954 0.11695,-0.36073 0.29046,-0.66885 0.52444,-0.92624 0.23195,-0.25549 0.52247,-0.45437 0.87144,-0.59675 0.34701,-0.1404 0.75646,-0.21061 1.22436,-0.21061 0.45812,0 0.85393,0.0624 1.18925,0.18528 0.33533,0.1248 0.61214,0.30615 0.83051,0.54596 0.22028,0.23988 0.38211,0.53435 0.48935,0.88537 0.10726,0.34906 0.15987,0.75079 0.15987,1.20515 z m -1.4739,0.0565 c 0,-0.25155 -0.0194,-0.48356 -0.0604,-0.69417 -0.041,-0.21258 -0.10725,-0.3959 -0.20474,-0.55186 -0.0955,-0.15602 -0.22224,-0.27885 -0.38018,-0.36664 -0.15986,-0.0877 -0.35868,-0.13063 -0.60047,-0.13063 -0.21443,0 -0.40158,0.039 -0.56341,0.11698 -0.15986,0.078 -0.29243,0.19304 -0.3958,0.34321 -0.10332,0.15013 -0.18131,0.33154 -0.23201,0.5421 -0.0526,0.21258 -0.078,0.45245 -0.078,0.72349 0,0.25156 0.0215,0.48362 0.0624,0.69424 0.0429,0.21253 0.11111,0.39584 0.20466,0.55187 0.0936,0.15602 0.22033,0.27688 0.38215,0.36269 0.15987,0.0858 0.35869,0.12874 0.59654,0.12874 0.21837,0 0.40749,-0.0391 0.56931,-0.11705 0.15986,-0.078 0.29243,-0.19106 0.39573,-0.33928 0.10339,-0.15018 0.17942,-0.32957 0.23012,-0.54019 0.0487,-0.21258 0.0741,-0.45239 0.0741,-0.7235 z m 4.05511,2.54489 c 0,0.037 -0.0117,0.0702 -0.035,0.0994 -0.0215,0.0293 -0.0605,0.0527 -0.11702,0.0722 -0.0545,0.0176 -0.12864,0.0332 -0.21837,0.0429 -0.0916,0.01 -0.20859,0.0136 -0.34897,0.0136 -0.14037,0 -0.25733,-0.004 -0.34897,-0.0136 -0.0896,-0.01 -0.16373,-0.0254 -0.21831,-0.0429 -0.0566,-0.0195 -0.0956,-0.0429 -0.11703,-0.0722 -0.0233,-0.0292 -0.0351,-0.0624 -0.0351,-0.0994 v -7.51748 c 0,-0.0391 0.0118,-0.0722 0.0351,-0.10341 0.0215,-0.0293 0.0605,-0.0566 0.11703,-0.076 0.0545,-0.0215 0.12863,-0.037 0.21831,-0.0487 0.0917,-0.0117 0.2086,-0.0175 0.34897,-0.0175 0.14038,0 0.25739,0.006 0.34897,0.0175 0.0897,0.0117 0.16379,0.0273 0.21837,0.0487 0.0566,0.0194 0.0956,0.0468 0.11702,0.076 0.0233,0.0312 0.035,0.0644 0.035,0.10341 z m 3.11935,-0.63381 c 0,0.35299 -0.0604,0.59281 -0.18517,0.71372 -0.12287,0.12289 -0.34511,0.18333 -0.66482,0.18333 -0.31972,0 -0.54203,-0.0605 -0.66285,-0.1794 -0.12287,-0.12091 -0.18328,-0.34904 -0.18328,-0.68451 0,-0.35681 0.0624,-0.59865 0.18518,-0.71956 0.12482,-0.12284 0.34904,-0.18327 0.67261,-0.18327 0.31586,0 0.53423,0.0605 0.65703,0.17939 0.12088,0.12092 0.1813,0.35102 0.1813,0.6903 z m 4.71609,-3.99176 c 0,0.13648 -0.004,0.24959 -0.0117,0.33738 -0.007,0.0877 -0.0195,0.15596 -0.0331,0.2047 -0.0156,0.0488 -0.037,0.0839 -0.0604,0.10341 -0.0254,0.0195 -0.0566,0.0273 -0.0955,0.0273 -0.0293,0 -0.0644,-0.006 -0.10337,-0.0195 -0.037,-0.0136 -0.0799,-0.0273 -0.12864,-0.0429 -0.0468,-0.0156 -0.0994,-0.0293 -0.15599,-0.0429 -0.0585,-0.0136 -0.12089,-0.0195 -0.18911,-0.0195 -0.0799,0 -0.15986,0.0156 -0.23982,0.0487 -0.0799,0.0332 -0.16373,0.0819 -0.24953,0.15209 -0.0858,0.0682 -0.17546,0.15989 -0.26901,0.27301 -0.0936,0.11502 -0.19304,0.25542 -0.30029,0.42313 v 3.1806 c 0,0.037 -0.0117,0.0702 -0.035,0.0994 -0.0215,0.0293 -0.0605,0.0527 -0.11702,0.0722 -0.0545,0.0176 -0.12864,0.0332 -0.21837,0.0429 -0.0916,0.01 -0.20859,0.0136 -0.34897,0.0136 -0.14037,0 -0.25733,-0.004 -0.34898,-0.0136 -0.0896,-0.01 -0.16372,-0.0254 -0.2183,-0.0429 -0.0566,-0.0195 -0.0956,-0.0429 -0.11701,-0.0722 -0.0233,-0.0292 -0.0351,-0.0624 -0.0351,-0.0994 v -5.10139 c 0,-0.037 0.01,-0.0702 0.0293,-0.0995 0.0176,-0.0293 0.0527,-0.0526 0.10141,-0.0721 0.0507,-0.0176 0.11303,-0.0333 0.19103,-0.0429 0.078,-0.01 0.17743,-0.0136 0.29438,-0.0136 0.12287,0 0.22225,0.004 0.30221,0.0136 0.0799,0.01 0.14234,0.0254 0.18715,0.0429 0.0429,0.0195 0.0741,0.0429 0.0936,0.0721 0.0194,0.0293 0.0293,0.0624 0.0293,0.0995 v 0.63571 c 0.13257,-0.19112 0.2593,-0.34709 0.37627,-0.46998 0.11891,-0.12282 0.23201,-0.22229 0.33728,-0.29446 0.10719,-0.0721 0.21444,-0.12282 0.32169,-0.15012 0.10522,-0.0293 0.21247,-0.0429 0.31971,-0.0429 0.0487,0 0.10332,0.002 0.15986,0.007 0.0566,0.006 0.11697,0.0156 0.17744,0.0293 0.0604,0.0136 0.11499,0.0293 0.15986,0.0448 0.0468,0.0176 0.0799,0.0351 0.10135,0.0546 0.0195,0.0195 0.0351,0.0409 0.0449,0.0624 0.01,0.0233 0.0175,0.0546 0.0254,0.0955 0.007,0.039 0.0136,0.0995 0.0176,0.17938 0.004,0.08 0.006,0.18726 0.006,0.32373 z m 5.71422,4.62557 c 0,0.037 -0.01,0.0702 -0.0292,0.0994 -0.0176,0.0293 -0.0507,0.0527 -0.0994,0.0722 -0.0469,0.0176 -0.1092,0.0332 -0.18911,0.0429 -0.078,0.01 -0.17546,0.0136 -0.29242,0.0136 -0.12673,0 -0.22814,-0.004 -0.30614,-0.0136 -0.078,-0.01 -0.14037,-0.0254 -0.18518,-0.0429 -0.0468,-0.0195 -0.078,-0.0429 -0.0975,-0.0722 -0.0195,-0.0292 -0.0293,-0.0624 -0.0293,-0.0994 v -0.58893 c -0.28074,0.30227 -0.56734,0.53041 -0.85976,0.6825 -0.29243,0.15209 -0.59464,0.22818 -0.90654,0.22818 -0.35095,0 -0.6473,-0.0566 -0.88516,-0.17163 -0.23786,-0.11312 -0.43083,-0.27104 -0.57704,-0.46801 -0.14622,-0.19893 -0.2515,-0.42707 -0.31585,-0.6884 -0.0624,-0.26127 -0.0936,-0.58695 -0.0936,-0.97499 v -3.1201 c 0,-0.037 0.01,-0.0702 0.0312,-0.0995 0.0215,-0.0293 0.0604,-0.0526 0.11501,-0.0721 0.0546,-0.0176 0.13065,-0.0332 0.2242,-0.0429 0.0936,-0.01 0.20859,-0.0136 0.34706,-0.0136 0.14037,0 0.25734,0.004 0.34897,0.0136 0.0917,0.01 0.1657,0.0254 0.22028,0.0429 0.0566,0.0195 0.0956,0.0429 0.11702,0.0721 0.0233,0.0293 0.0351,0.0624 0.0351,0.0995 v 2.88023 c 0,0.26716 0.0175,0.46997 0.0507,0.61038 0.0351,0.14238 0.0878,0.26324 0.15795,0.3627 0.0702,0.10144 0.15985,0.17939 0.26901,0.23594 0.10725,0.0546 0.23398,0.082 0.38019,0.082 0.18328,0 0.36649,-0.0663 0.55173,-0.19893 0.18328,-0.13261 0.3821,-0.32761 0.5907,-0.58113 v -3.39114 c 0,-0.037 0.01,-0.0702 0.0312,-0.0995 0.0215,-0.0293 0.0585,-0.0526 0.11506,-0.0721 0.0545,-0.0176 0.12863,-0.0332 0.21831,-0.0429 0.0917,-0.01 0.20859,-0.0136 0.34897,-0.0136 0.14037,0 0.25739,0.004 0.34896,0.0136 0.0897,0.01 0.1638,0.0254 0.21646,0.0429 0.0526,0.0195 0.0916,0.0429 0.11303,0.0721 0.0234,0.0293 0.0351,0.0624 0.0351,0.0995 z"
       style="fill:#003263;fill-rule:evenodd;stroke-width:0.03589965"
       id="path929"
       sodipodi:nodetypes="scccscccsscccscccssscscscscsscccscccsscccsccscccscccsscccscccsccscccssscccscccsccscccscccsccscccscccssccscccscccscccccccsccccscccscccscccccccscccscccscccccccscccccccccscccccccccscccccccccscccccccccsccccccscccscccscccscccsscccscccscccscccsscccscccsscccscccssscscscscsccccscccsccccscccscccsscccscccsccccscccccccccscccscccsccscccsscccscccsscccsccscccscccss" />
    <path
       inkscape:connector-curvature="0"
       d="m -581.71179,163.04518 c 0,0.0144 -0.005,0.0274 -0.0144,0.0388 -0.01,0.0114 -0.0258,0.0206 -0.048,0.0281 -0.022,0.006 -0.0525,0.013 -0.0906,0.0168 -0.0381,0.004 -0.0852,0.006 -0.14151,0.006 -0.0563,0 -0.10348,-0.002 -0.14152,-0.006 -0.0381,-0.004 -0.0677,-0.01 -0.089,-0.0168 -0.022,-0.007 -0.0373,-0.0168 -0.0457,-0.0281 -0.009,-0.0114 -0.0137,-0.0244 -0.0137,-0.0388 v -1.52093 c 0,-0.0579 8.1e-4,-0.11489 0.002,-0.17044 0.002,-0.0563 0.004,-0.10574 0.006,-0.14834 h -0.005 c -0.0121,0.0206 -0.0258,0.0449 -0.0426,0.0723 -0.0168,0.0274 -0.0343,0.0563 -0.0525,0.0868 -0.019,0.0305 -0.0388,0.0617 -0.0594,0.0936 -0.0213,0.0319 -0.0418,0.0631 -0.0624,0.0928 l -1.00204,1.49657 c -0.0121,0.016 -0.0244,0.0305 -0.0365,0.0419 -0.013,0.0121 -0.0289,0.0213 -0.0494,0.0281 -0.0198,0.006 -0.0442,0.0114 -0.0731,0.0137 -0.0289,0.002 -0.0669,0.003 -0.1126,0.003 -0.0579,0 -0.105,-0.002 -0.14,-0.006 -0.0357,-0.004 -0.0639,-0.01 -0.0837,-0.0168 -0.0205,-0.007 -0.0343,-0.0175 -0.0411,-0.0289 -0.007,-0.0121 -0.0114,-0.0267 -0.0114,-0.0426 v -2.72992 c 0,-0.0145 0.005,-0.0274 0.0145,-0.0388 0.01,-0.0114 0.0258,-0.0206 0.0487,-0.0282 0.0228,-0.006 0.0532,-0.013 0.0906,-0.0168 0.0366,-0.004 0.0837,-0.006 0.13999,-0.006 0.057,0 0.105,0.002 0.14153,0.006 0.0373,0.004 0.0669,0.01 0.089,0.0168 0.022,0.007 0.0381,0.0168 0.0464,0.0282 0.009,0.0114 0.0137,0.0243 0.0137,0.0388 v 1.53007 c 0,0.0471 -8.2e-4,0.0982 -0.002,0.1514 -0.002,0.054 -0.004,0.10576 -0.006,0.15597 h 0.005 c 0.0258,-0.0442 0.0579,-0.0981 0.0966,-0.16052 0.0388,-0.0624 0.0791,-0.12327 0.12021,-0.18261 l 1.00356,-1.49659 c 0.0106,-0.0144 0.0213,-0.0274 0.0335,-0.0388 0.0121,-0.0114 0.0281,-0.0206 0.048,-0.0281 0.0198,-0.006 0.0449,-0.0122 0.0745,-0.0153 0.0296,-0.003 0.0677,-0.005 0.11414,-0.005 0.0563,0 0.10195,0.002 0.13695,0.006 0.035,0.004 0.0624,0.01 0.0837,0.0168 0.0206,0.007 0.035,0.0168 0.0433,0.0282 0.008,0.0114 0.0121,0.0251 0.0121,0.0411 z m 2.87981,-0.005 c 0,0.0144 -0.005,0.0282 -0.0145,0.0403 -0.01,0.0114 -0.0258,0.0213 -0.048,0.0289 -0.022,0.006 -0.0518,0.013 -0.089,0.0175 -0.0365,0.005 -0.0837,0.006 -0.13922,0.006 -0.0579,0 -0.10577,-0.002 -0.14381,-0.006 -0.0381,-0.005 -0.067,-0.0106 -0.089,-0.0175 -0.0213,-0.007 -0.0365,-0.0175 -0.0464,-0.0289 -0.01,-0.0121 -0.0144,-0.0258 -0.0144,-0.0403 v -1.16639 h -1.08193 v 1.16639 c 0,0.0144 -0.005,0.0282 -0.0137,0.0403 -0.008,0.0114 -0.0244,0.0213 -0.0464,0.0289 -0.022,0.006 -0.0518,0.013 -0.089,0.0175 -0.0365,0.005 -0.0844,0.006 -0.14153,0.006 -0.0563,0 -0.10348,-0.002 -0.14151,-0.006 -0.038,-0.005 -0.0677,-0.0106 -0.0898,-0.0175 -0.022,-0.007 -0.038,-0.0175 -0.048,-0.0289 -0.01,-0.0121 -0.0144,-0.0258 -0.0144,-0.0403 v -2.72536 c 0,-0.0144 0.005,-0.0282 0.0144,-0.0404 0.01,-0.0114 0.0258,-0.0213 0.048,-0.0289 0.022,-0.007 0.0518,-0.013 0.0898,-0.0175 0.0381,-0.005 0.0852,-0.006 0.14151,-0.006 0.057,0 0.10501,0.002 0.14153,0.006 0.0373,0.005 0.067,0.0106 0.089,0.0175 0.022,0.007 0.038,0.0175 0.0464,0.0289 0.009,0.0121 0.0137,0.0258 0.0137,0.0404 v 1.06137 h 1.08193 v -1.06137 c 0,-0.0144 0.005,-0.0282 0.0144,-0.0404 0.01,-0.0114 0.0251,-0.0213 0.0464,-0.0289 0.022,-0.006 0.051,-0.013 0.089,-0.0175 0.038,-0.005 0.086,-0.006 0.14381,-0.006 0.0556,0 0.1027,0.002 0.13922,0.006 0.0373,0.005 0.067,0.01 0.089,0.0175 0.022,0.007 0.0381,0.0175 0.048,0.0289 0.01,0.0121 0.0145,0.0258 0.0145,0.0404 z m 2.54654,-2.5648 c 0,0.0433 -0.002,0.0799 -0.006,0.11107 -0.004,0.0305 -0.009,0.0548 -0.0168,0.0731 -0.007,0.019 -0.0168,0.0327 -0.0281,0.0411 -0.0106,0.009 -0.0236,0.0137 -0.0365,0.0137 h -0.72128 v 2.32591 c 0,0.0145 -0.005,0.0282 -0.0145,0.0403 -0.01,0.0114 -0.0258,0.0213 -0.048,0.0289 -0.022,0.006 -0.0525,0.013 -0.0906,0.0175 -0.0381,0.005 -0.0852,0.006 -0.14152,0.006 -0.0563,0 -0.10347,-0.002 -0.14151,-0.006 -0.038,-0.005 -0.0685,-0.0107 -0.0906,-0.0175 -0.022,-0.007 -0.038,-0.0175 -0.048,-0.0289 -0.01,-0.0121 -0.0145,-0.0258 -0.0145,-0.0403 v -2.32591 h -0.72128 c -0.0145,0 -0.0274,-0.005 -0.0381,-0.0137 -0.01,-0.008 -0.0191,-0.0221 -0.0267,-0.0411 -0.006,-0.0182 -0.013,-0.0426 -0.0168,-0.0731 -0.004,-0.0312 -0.006,-0.0677 -0.006,-0.11107 0,-0.0442 0.002,-0.0822 0.006,-0.11339 0.004,-0.0312 0.01,-0.0563 0.0168,-0.0745 0.007,-0.019 0.0168,-0.0319 0.0267,-0.0403 0.0106,-0.008 0.0236,-0.0122 0.0381,-0.0122 h 2.03146 c 0.013,0 0.0251,0.004 0.0365,0.0122 0.0114,0.008 0.0206,0.0213 0.0281,0.0403 0.007,0.0182 0.013,0.0434 0.0168,0.0745 0.004,0.0312 0.006,0.0693 0.006,0.11339 z m 2.05047,2.41415 c 0,0.0433 -0.002,0.0792 -0.006,0.10879 -0.004,0.0289 -0.009,0.0525 -0.0168,0.07 -0.007,0.0182 -0.0168,0.0312 -0.0281,0.0395 -0.0106,0.008 -0.0236,0.0121 -0.0365,0.0121 h -1.44713 c -0.0487,0 -0.0898,-0.0145 -0.12325,-0.0433 -0.0335,-0.0289 -0.0502,-0.0761 -0.0502,-0.14151 v -2.51535 c 0,-0.0655 0.0168,-0.11262 0.0502,-0.14152 0.0335,-0.0289 0.0745,-0.0433 0.12325,-0.0433 h 1.44028 c 0.013,0 0.0251,0.004 0.0357,0.0114 0.01,0.007 0.019,0.0206 0.0267,0.0388 0.006,0.019 0.013,0.0426 0.0168,0.0715 0.004,0.0296 0.006,0.0662 0.006,0.11109 0,0.0418 -0.002,0.0768 -0.006,0.10651 -0.004,0.0289 -0.009,0.0525 -0.0168,0.07 -0.007,0.0183 -0.0168,0.0312 -0.0267,0.0395 -0.0106,0.008 -0.0228,0.0121 -0.0357,0.0121 h -1.02941 v 0.70301 h 0.86735 c 0.0137,0 0.0258,0.004 0.0365,0.0121 0.0114,0.008 0.0206,0.0206 0.0281,0.0381 0.007,0.0168 0.013,0.0395 0.0168,0.0693 0.004,0.0289 0.006,0.0639 0.006,0.10497 0,0.0433 -0.002,0.0792 -0.006,0.10729 -0.004,0.0281 -0.009,0.051 -0.0168,0.0677 -0.007,0.0175 -0.0168,0.0296 -0.0281,0.0365 -0.0107,0.007 -0.0229,0.0114 -0.0365,0.0114 h -0.86735 v 0.81259 h 1.03626 c 0.0137,0 0.0258,0.004 0.0365,0.0121 0.0114,0.008 0.0206,0.0213 0.0281,0.0395 0.007,0.0175 0.013,0.0411 0.0168,0.07 0.004,0.0296 0.006,0.0655 0.006,0.10881 z m 2.49635,-1.7781 c 0,0.16282 -0.0251,0.30587 -0.0761,0.43064 -0.0502,0.12554 -0.12401,0.23055 -0.2214,0.31574 -0.0966,0.086 -0.21532,0.15066 -0.35609,0.19555 -0.14075,0.0449 -0.30662,0.0669 -0.49759,0.0669 h -0.24118 v 0.91988 c 0,0.0152 -0.005,0.0282 -0.0145,0.0403 -0.01,0.0114 -0.0258,0.0213 -0.048,0.0289 -0.022,0.007 -0.0518,0.013 -0.089,0.0175 -0.0365,0.005 -0.0844,0.006 -0.14152,0.006 -0.0563,0 -0.10347,-0.002 -0.14152,-0.006 -0.038,-0.005 -0.0677,-0.0106 -0.0898,-0.0175 -0.022,-0.007 -0.0381,-0.0175 -0.0464,-0.0289 -0.009,-0.0121 -0.0137,-0.0258 -0.0137,-0.0403 v -2.59525 c 0,-0.07 0.0182,-0.12249 0.0548,-0.15751 0.0365,-0.035 0.0844,-0.0525 0.1438,-0.0525 h 0.6802 c 0.0684,0 0.13391,0.002 0.19553,0.007 0.0617,0.006 0.13543,0.0168 0.22216,0.0335 0.086,0.0175 0.17348,0.0487 0.26173,0.0951 0.0882,0.0456 0.16436,0.10424 0.22675,0.17498 0.0624,0.0708 0.11032,0.15293 0.14303,0.24804 0.0327,0.0943 0.0487,0.20011 0.0487,0.31727 z m -0.61174,0.0426 c 0,-0.10119 -0.0182,-0.18488 -0.054,-0.25031 -0.0357,-0.0655 -0.0799,-0.11414 -0.13238,-0.14532 -0.0525,-0.0312 -0.10729,-0.051 -0.16434,-0.0593 -0.0579,-0.008 -0.11718,-0.0121 -0.17881,-0.0121 h -0.25108 v 0.98149 h 0.26478 c 0.0943,0 0.17271,-0.013 0.23662,-0.0381 0.0631,-0.0251 0.11565,-0.0608 0.15598,-0.10651 0.0403,-0.0449 0.0707,-0.0997 0.092,-0.16282 0.0205,-0.0632 0.0312,-0.1324 0.0312,-0.20696 z m 3.31502,1.88615 c 0,0.0144 -0.005,0.0282 -0.0145,0.0403 -0.01,0.0114 -0.0258,0.0213 -0.048,0.0289 -0.022,0.006 -0.0518,0.013 -0.0891,0.0175 -0.0365,0.005 -0.0837,0.006 -0.13923,0.006 -0.0578,0 -0.10576,-0.002 -0.1438,-0.006 -0.038,-0.005 -0.0669,-0.0106 -0.089,-0.0175 -0.0213,-0.007 -0.0365,-0.0175 -0.0464,-0.0289 -0.01,-0.0121 -0.0145,-0.0258 -0.0145,-0.0403 v -1.16639 h -1.08192 v 1.16639 c 0,0.0144 -0.005,0.0282 -0.0137,0.0403 -0.008,0.0114 -0.0244,0.0213 -0.0464,0.0289 -0.022,0.006 -0.0518,0.013 -0.089,0.0175 -0.0365,0.005 -0.0844,0.006 -0.14153,0.006 -0.0563,0 -0.10347,-0.002 -0.1415,-0.006 -0.0381,-0.005 -0.0677,-0.0106 -0.0898,-0.0175 -0.022,-0.007 -0.0381,-0.0175 -0.048,-0.0289 -0.01,-0.0121 -0.0144,-0.0258 -0.0144,-0.0403 v -2.72536 c 0,-0.0144 0.005,-0.0281 0.0144,-0.0404 0.01,-0.0114 0.0258,-0.0213 0.048,-0.0289 0.022,-0.007 0.0518,-0.013 0.0898,-0.0175 0.038,-0.005 0.0852,-0.006 0.1415,-0.006 0.057,0 0.10501,0.002 0.14153,0.006 0.0373,0.005 0.0669,0.0106 0.089,0.0175 0.022,0.007 0.0381,0.0175 0.0464,0.0289 0.009,0.0121 0.0137,0.0258 0.0137,0.0404 v 1.06137 h 1.08192 v -1.06137 c 0,-0.0144 0.005,-0.0281 0.0145,-0.0404 0.01,-0.0114 0.0251,-0.0213 0.0464,-0.0289 0.022,-0.006 0.051,-0.013 0.089,-0.0175 0.0381,-0.005 0.086,-0.006 0.1438,-0.006 0.0556,0 0.10271,0.002 0.13923,0.006 0.0373,0.005 0.067,0.01 0.0891,0.0175 0.022,0.007 0.0381,0.0175 0.048,0.0289 0.01,0.0121 0.0145,0.0258 0.0145,0.0404 z m 2.33654,-0.15065 c 0,0.0433 -0.002,0.0792 -0.006,0.1088 -0.004,0.0289 -0.009,0.0525 -0.0168,0.07 -0.007,0.0182 -0.0168,0.0312 -0.0282,0.0395 -0.0106,0.008 -0.0236,0.0121 -0.0365,0.0121 h -1.44712 c -0.0487,0 -0.0898,-0.0145 -0.12325,-0.0433 -0.0335,-0.0289 -0.0502,-0.0761 -0.0502,-0.14151 v -2.51535 c 0,-0.0655 0.0168,-0.11261 0.0502,-0.14152 0.0335,-0.0289 0.0745,-0.0433 0.12325,-0.0433 h 1.44027 c 0.013,0 0.0251,0.004 0.0357,0.0114 0.01,0.007 0.019,0.0206 0.0267,0.0388 0.006,0.019 0.013,0.0426 0.0168,0.0715 0.004,0.0296 0.006,0.0662 0.006,0.11109 0,0.0418 -0.002,0.0768 -0.006,0.10651 -0.004,0.0289 -0.009,0.0525 -0.0168,0.07 -0.007,0.0182 -0.0168,0.0312 -0.0267,0.0395 -0.0106,0.008 -0.0228,0.0121 -0.0357,0.0121 h -1.02941 v 0.70301 h 0.86736 c 0.0137,0 0.0258,0.004 0.0365,0.0121 0.0114,0.008 0.0206,0.0206 0.0281,0.0381 0.007,0.0168 0.013,0.0395 0.0168,0.0693 0.004,0.0289 0.006,0.0639 0.006,0.10497 0,0.0433 -0.002,0.0792 -0.006,0.1073 -0.004,0.0281 -0.009,0.051 -0.0168,0.0677 -0.007,0.0175 -0.0168,0.0296 -0.0281,0.0365 -0.0106,0.007 -0.0229,0.0114 -0.0365,0.0114 h -0.86736 v 0.81258 h 1.03626 c 0.0137,0 0.0258,0.004 0.0365,0.0121 0.0114,0.008 0.0206,0.0213 0.0282,0.0395 0.007,0.0175 0.013,0.0411 0.0168,0.07 0.004,0.0296 0.006,0.0655 0.006,0.10881 z m 2.42102,-2.41415 c 0,0.0433 -0.002,0.0799 -0.006,0.11107 -0.004,0.0305 -0.009,0.0548 -0.0168,0.0731 -0.007,0.019 -0.0168,0.0327 -0.0282,0.0411 -0.0106,0.009 -0.0236,0.0137 -0.0365,0.0137 h -0.72128 v 2.32591 c 0,0.0144 -0.005,0.0281 -0.0144,0.0403 -0.01,0.0114 -0.0258,0.0213 -0.048,0.0289 -0.022,0.006 -0.0525,0.013 -0.0906,0.0175 -0.038,0.005 -0.0852,0.006 -0.14152,0.006 -0.0563,0 -0.10348,-0.002 -0.14152,-0.006 -0.038,-0.005 -0.0684,-0.0106 -0.0906,-0.0175 -0.022,-0.007 -0.0381,-0.0175 -0.048,-0.0289 -0.01,-0.0121 -0.0144,-0.0258 -0.0144,-0.0403 v -2.32591 h -0.72129 c -0.0144,0 -0.0274,-0.005 -0.0381,-0.0137 -0.01,-0.008 -0.019,-0.0221 -0.0267,-0.0411 -0.006,-0.0182 -0.013,-0.0426 -0.0168,-0.0731 -0.004,-0.0312 -0.006,-0.0677 -0.006,-0.11107 0,-0.0442 0.002,-0.0822 0.006,-0.11339 0.004,-0.0312 0.01,-0.0563 0.0168,-0.0745 0.007,-0.019 0.0168,-0.0319 0.0267,-0.0403 0.0107,-0.008 0.0236,-0.0122 0.0381,-0.0122 h 2.03146 c 0.013,0 0.0251,0.004 0.0365,0.0122 0.0114,0.008 0.0206,0.0213 0.0282,0.0403 0.007,0.0182 0.013,0.0434 0.0168,0.0745 0.004,0.0312 0.006,0.0693 0.006,0.11339 z m -16.42055,6.55136 c 0,0.0144 -0.004,0.0281 -0.0121,0.0404 -0.008,0.0114 -0.0236,0.0213 -0.0449,0.0289 -0.0213,0.006 -0.0502,0.013 -0.086,0.0175 -0.0358,0.005 -0.0814,0.006 -0.13619,0.006 -0.054,0 -0.0989,-0.002 -0.13468,-0.006 -0.0357,-0.005 -0.0639,-0.0106 -0.0852,-0.0175 -0.0206,-0.007 -0.0358,-0.0175 -0.0441,-0.0289 -0.009,-0.0121 -0.0137,-0.0258 -0.0137,-0.0404 V 164.678 h -0.005 l -0.83313,2.34645 c -0.006,0.019 -0.0152,0.035 -0.0289,0.048 -0.0137,0.013 -0.0312,0.0229 -0.0548,0.0305 -0.0229,0.006 -0.0525,0.0121 -0.0875,0.0144 -0.0358,0.002 -0.0792,0.003 -0.12936,0.003 -0.0509,0 -0.0936,-0.002 -0.12934,-0.006 -0.0357,-0.004 -0.0655,-0.01 -0.0882,-0.0182 -0.0228,-0.008 -0.0411,-0.0182 -0.0548,-0.0296 -0.013,-0.0121 -0.022,-0.0267 -0.0267,-0.0426 l -0.80421,-2.34645 h -0.005 v 2.34873 c 0,0.0144 -0.004,0.0281 -0.0121,0.0404 -0.008,0.0114 -0.0236,0.0213 -0.0457,0.0289 -0.0229,0.006 -0.0518,0.013 -0.0868,0.0175 -0.035,0.005 -0.0799,0.006 -0.13468,0.006 -0.054,0 -0.0989,-0.002 -0.13467,-0.006 -0.0358,-0.005 -0.0646,-0.0107 -0.0859,-0.0175 -0.0213,-0.007 -0.0365,-0.0175 -0.0449,-0.0289 -0.008,-0.0121 -0.0122,-0.0258 -0.0122,-0.0404 v -2.57088 c 0,-0.0761 0.0198,-0.13392 0.0601,-0.17425 0.0403,-0.0404 0.0936,-0.0601 0.1613,-0.0601 h 0.38347 c 0.0684,0 0.12782,0.006 0.17651,0.0168 0.0495,0.0114 0.0921,0.0296 0.12782,0.0556 0.035,0.0258 0.0655,0.0601 0.089,0.10273 0.0236,0.0426 0.0449,0.0951 0.0624,0.15749 l 0.62161,1.71875 h 0.009 l 0.64368,-1.71495 c 0.019,-0.0624 0.0404,-0.11488 0.0631,-0.15824 0.0236,-0.0426 0.0502,-0.0776 0.0806,-0.10425 0.0305,-0.0267 0.067,-0.0457 0.10804,-0.057 0.0419,-0.0114 0.0906,-0.0168 0.14532,-0.0168 h 0.39564 c 0.0403,0 0.0745,0.006 0.10347,0.016 0.0289,0.01 0.0533,0.0251 0.0715,0.0456 0.019,0.0198 0.0327,0.0442 0.0426,0.0731 0.01,0.0289 0.0145,0.0624 0.0145,0.0997 z m 2.9924,-0.13849 c 0.0175,0.0532 0.0289,0.0959 0.0335,0.12707 0.005,0.0312 -0.002,0.0548 -0.0175,0.0707 -0.0168,0.0152 -0.0456,0.0251 -0.0875,0.0289 -0.0411,0.004 -0.0989,0.006 -0.17119,0.006 -0.0761,0 -0.13543,-8.2e-4 -0.17727,-0.003 -0.0426,-0.002 -0.0745,-0.006 -0.0974,-0.0137 -0.022,-0.006 -0.0373,-0.016 -0.0464,-0.0281 -0.009,-0.0114 -0.0168,-0.0274 -0.022,-0.0464 l -0.18946,-0.57977 h -1.08801 l -0.18183,0.56379 c -0.006,0.0213 -0.0137,0.0388 -0.0236,0.0525 -0.009,0.0144 -0.0251,0.0251 -0.0464,0.0335 -0.0213,0.008 -0.0518,0.0137 -0.0913,0.0168 -0.0395,0.003 -0.0913,0.005 -0.15521,0.005 -0.0684,0 -0.12174,-0.002 -0.16054,-0.006 -0.0388,-0.005 -0.0655,-0.0152 -0.0799,-0.0319 -0.0152,-0.0175 -0.0206,-0.0419 -0.0159,-0.0731 0.005,-0.0312 0.0159,-0.0723 0.0335,-0.12479 l 0.88867,-2.56023 c 0.008,-0.0251 0.019,-0.0456 0.0312,-0.0608 0.0114,-0.016 0.0305,-0.0274 0.0563,-0.0357 0.0267,-0.008 0.0624,-0.0137 0.10881,-0.016 0.0457,-0.002 0.10652,-0.003 0.1826,-0.003 0.0875,0 0.15749,8.2e-4 0.20923,0.003 0.0525,0.002 0.0928,0.007 0.12173,0.016 0.0289,0.008 0.0494,0.0206 0.0624,0.0365 0.0121,0.0168 0.0236,0.0388 0.0319,0.0669 z m -1.32387,-2.11819 h -0.002 l -0.4017,1.22724 h 0.80952 z m 3.36218,-0.30661 c 0,0.0442 -0.002,0.0814 -0.006,0.11184 -0.004,0.0305 -0.01,0.0548 -0.0168,0.0731 -0.007,0.0191 -0.0168,0.0319 -0.0281,0.0404 -0.0114,0.008 -0.0244,0.0121 -0.0388,0.0121 h -0.95638 v 2.33046 c 0,0.0144 -0.005,0.0274 -0.0144,0.0388 -0.01,0.0114 -0.0258,0.0205 -0.048,0.0282 -0.022,0.006 -0.0525,0.013 -0.089,0.0168 -0.0373,0.004 -0.0852,0.006 -0.14304,0.006 -0.0563,0 -0.10347,-0.002 -0.14152,-0.006 -0.0381,-0.004 -0.0685,-0.01 -0.0906,-0.0168 -0.022,-0.007 -0.0381,-0.0168 -0.048,-0.0282 -0.01,-0.0114 -0.0145,-0.0244 -0.0145,-0.0388 v -2.62491 c 0,-0.0624 0.016,-0.10881 0.048,-0.13924 0.0319,-0.0305 0.0738,-0.0456 0.12629,-0.0456 h 1.37105 c 0.0296,0 0.0518,0.0182 0.0669,0.0556 0.0145,0.0373 0.022,0.0989 0.022,0.18642 z m 2.34416,2.4248 c 0.0175,0.0532 0.0289,0.0959 0.0335,0.12707 0.005,0.0312 -0.002,0.0548 -0.0175,0.0707 -0.0168,0.0152 -0.0456,0.0251 -0.0875,0.0289 -0.0411,0.004 -0.0989,0.006 -0.17118,0.006 -0.0761,0 -0.13544,-8.2e-4 -0.17729,-0.003 -0.0426,-0.002 -0.0745,-0.006 -0.0974,-0.0137 -0.022,-0.006 -0.0373,-0.016 -0.0464,-0.0281 -0.009,-0.0114 -0.0168,-0.0274 -0.022,-0.0464 l -0.18945,-0.57977 h -1.088 l -0.18184,0.56379 c -0.006,0.0213 -0.0137,0.0388 -0.0236,0.0525 -0.009,0.0144 -0.0251,0.0251 -0.0464,0.0335 -0.0213,0.008 -0.0518,0.0137 -0.0913,0.0168 -0.0395,0.003 -0.0913,0.005 -0.1552,0.005 -0.0685,0 -0.12175,-0.002 -0.16055,-0.006 -0.0388,-0.005 -0.0655,-0.0152 -0.0799,-0.0319 -0.0152,-0.0175 -0.0206,-0.0419 -0.016,-0.0731 0.005,-0.0312 0.016,-0.0723 0.0335,-0.12479 l 0.88866,-2.56023 c 0.008,-0.0251 0.019,-0.0456 0.0312,-0.0608 0.0114,-0.016 0.0305,-0.0274 0.0563,-0.0357 0.0267,-0.008 0.0624,-0.0137 0.10881,-0.016 0.0457,-0.002 0.10651,-0.003 0.1826,-0.003 0.0875,0 0.15749,8.2e-4 0.20923,0.003 0.0525,0.002 0.0928,0.007 0.12174,0.016 0.0289,0.008 0.0494,0.0206 0.0624,0.0365 0.0121,0.0168 0.0236,0.0388 0.032,0.0669 z m -1.32386,-2.11819 h -0.002 l -0.40173,1.22724 h 0.80954 z m 3.45348,1.49963 c 0,0.14532 -0.0274,0.27391 -0.0822,0.38423 -0.0548,0.11108 -0.13314,0.2039 -0.2351,0.27846 -0.10196,0.0754 -0.22368,0.13163 -0.36521,0.16892 -0.14151,0.0373 -0.299,0.0556 -0.47096,0.0556 -0.0951,0 -0.18184,-0.006 -0.26173,-0.0198 -0.0792,-0.0137 -0.14836,-0.0305 -0.20694,-0.0502 -0.0586,-0.0206 -0.10576,-0.0404 -0.14153,-0.0594 -0.035,-0.019 -0.0608,-0.035 -0.0754,-0.048 -0.0152,-0.013 -0.0258,-0.0258 -0.0335,-0.0388 -0.007,-0.0137 -0.0137,-0.0327 -0.0175,-0.057 -0.005,-0.0243 -0.008,-0.0556 -0.0106,-0.0928 -0.002,-0.0365 -0.003,-0.083 -0.003,-0.13772 0,-0.0624 0.006,-0.10423 0.0168,-0.12629 0.0114,-0.0213 0.0281,-0.0319 0.0502,-0.0319 0.0175,0 0.0426,0.009 0.0754,0.0274 0.0327,0.0182 0.0745,0.0395 0.12479,0.0632 0.0502,0.0229 0.11108,0.0442 0.1826,0.0632 0.0707,0.019 0.15446,0.0289 0.25108,0.0289 0.0799,0 0.15293,-0.01 0.21837,-0.0289 0.0646,-0.019 0.12021,-0.0464 0.1651,-0.0821 0.0457,-0.0358 0.0806,-0.0783 0.10576,-0.12783 0.0251,-0.0495 0.0381,-0.105 0.0381,-0.1651 0,-0.067 -0.0114,-0.12706 -0.0343,-0.18033 -0.0236,-0.0532 -0.0594,-0.0989 -0.10804,-0.13541 -0.0494,-0.0373 -0.11109,-0.0655 -0.18641,-0.086 -0.0745,-0.0198 -0.1651,-0.0296 -0.27009,-0.0296 h -0.30511 c -0.0228,0 -0.0403,-0.003 -0.054,-0.009 -0.013,-0.006 -0.0236,-0.0168 -0.0319,-0.0335 -0.008,-0.016 -0.0137,-0.0388 -0.016,-0.0684 -0.002,-0.0289 -0.003,-0.0669 -0.003,-0.11491 0,-0.0433 0.002,-0.0783 0.005,-0.1065 0.003,-0.0274 0.008,-0.0495 0.0168,-0.0655 0.008,-0.0168 0.0182,-0.0281 0.0312,-0.035 0.0121,-0.006 0.0281,-0.01 0.0457,-0.01 h 0.30967 c 0.0913,0 0.17118,-0.009 0.24118,-0.0267 0.07,-0.0175 0.12781,-0.0442 0.17499,-0.0792 0.0464,-0.035 0.0822,-0.0769 0.10728,-0.12629 0.0244,-0.0495 0.0365,-0.10652 0.0365,-0.17043 0,-0.0533 -0.008,-0.10195 -0.0258,-0.14609 -0.0168,-0.0449 -0.0433,-0.0821 -0.0792,-0.11259 -0.0357,-0.0305 -0.0806,-0.0541 -0.13544,-0.0707 -0.0555,-0.0175 -0.12096,-0.0258 -0.19629,-0.0258 -0.089,0 -0.16966,0.01 -0.24119,0.0289 -0.0707,0.019 -0.13314,0.0395 -0.18564,0.0617 -0.0532,0.0213 -0.0974,0.0426 -0.13391,0.0624 -0.0365,0.0198 -0.0639,0.0296 -0.0814,0.0296 -0.0107,0 -0.019,-0.003 -0.0267,-0.009 -0.007,-0.006 -0.0145,-0.0168 -0.0198,-0.0319 -0.006,-0.0159 -0.0106,-0.0373 -0.013,-0.0639 -0.002,-0.0267 -0.003,-0.0617 -0.003,-0.10501 0,-0.0296 8.2e-4,-0.057 0.002,-0.0821 0.002,-0.0251 0.005,-0.048 0.009,-0.0693 0.005,-0.0206 0.01,-0.0388 0.0175,-0.0548 0.007,-0.0152 0.019,-0.0305 0.0343,-0.0456 0.016,-0.0144 0.048,-0.0334 0.0959,-0.057 0.0487,-0.0236 0.10728,-0.0449 0.17729,-0.0646 0.07,-0.0198 0.14835,-0.0365 0.23661,-0.0495 0.0875,-0.013 0.18032,-0.0198 0.27848,-0.0198 0.15444,0 0.28912,0.016 0.40401,0.0487 0.11564,0.0327 0.21151,0.0799 0.28835,0.14151 0.0776,0.0617 0.13543,0.13771 0.17424,0.2275 0.0388,0.0898 0.0578,0.1925 0.0578,0.30814 0,0.092 -0.013,0.17575 -0.0381,0.25184 -0.0251,0.0754 -0.0608,0.14227 -0.10803,0.20009 -0.0464,0.0579 -0.10272,0.10653 -0.16739,0.14534 -0.0639,0.0395 -0.13619,0.0684 -0.21457,0.0859 v 0.005 c 0.0906,0.0106 0.17348,0.035 0.24804,0.0745 0.0754,0.0395 0.13925,0.0898 0.1925,0.15065 0.054,0.0608 0.0951,0.1301 0.12478,0.20847 0.0296,0.0776 0.0449,0.16129 0.0449,0.25107 z m 2.8212,0.76161 c 0,0.0145 -0.005,0.0274 -0.0144,0.0388 -0.01,0.0114 -0.0258,0.0206 -0.048,0.0282 -0.022,0.006 -0.0525,0.013 -0.0906,0.0168 -0.0381,0.004 -0.0852,0.006 -0.14152,0.006 -0.0563,0 -0.10347,-0.002 -0.14151,-0.006 -0.0381,-0.004 -0.0677,-0.01 -0.089,-0.0168 -0.022,-0.007 -0.0373,-0.0168 -0.0457,-0.0282 -0.009,-0.0114 -0.0137,-0.0243 -0.0137,-0.0388 v -1.52093 c 0,-0.0578 8.2e-4,-0.1149 0.002,-0.17043 0.002,-0.0563 0.004,-0.10575 0.006,-0.14836 h -0.005 c -0.0121,0.0206 -0.0258,0.0449 -0.0426,0.0723 -0.0168,0.0274 -0.0343,0.0563 -0.0525,0.0868 -0.019,0.0305 -0.0388,0.0617 -0.0593,0.0936 -0.0213,0.0319 -0.0419,0.0631 -0.0624,0.0928 l -1.00205,1.49657 c -0.0121,0.016 -0.0244,0.0305 -0.0365,0.0419 -0.013,0.0121 -0.0289,0.0213 -0.0494,0.0281 -0.0198,0.006 -0.0442,0.0114 -0.0731,0.0137 -0.0289,0.002 -0.0669,0.003 -0.1126,0.003 -0.0579,0 -0.105,-0.002 -0.14,-0.006 -0.0357,-0.004 -0.0639,-0.01 -0.0837,-0.0168 -0.0206,-0.007 -0.0343,-0.0175 -0.0411,-0.0289 -0.007,-0.0121 -0.0114,-0.0266 -0.0114,-0.0426 v -2.72992 c 0,-0.0145 0.005,-0.0274 0.0145,-0.0388 0.01,-0.0114 0.0258,-0.0206 0.0487,-0.0282 0.0229,-0.006 0.0532,-0.013 0.0906,-0.0168 0.0365,-0.004 0.0837,-0.006 0.14001,-0.006 0.057,0 0.105,0.002 0.14151,0.006 0.0373,0.004 0.067,0.01 0.089,0.0168 0.022,0.007 0.038,0.0168 0.0464,0.0282 0.009,0.0114 0.0137,0.0243 0.0137,0.0388 v 1.53006 c 0,0.0471 -8.1e-4,0.0982 -0.002,0.1514 -0.002,0.0541 -0.004,0.10577 -0.006,0.15597 h 0.005 c 0.0258,-0.0442 0.0579,-0.0981 0.0966,-0.16052 0.0388,-0.0624 0.0792,-0.12326 0.12022,-0.1826 l 1.00355,-1.49659 c 0.0107,-0.0144 0.0213,-0.0274 0.0335,-0.0388 0.0121,-0.0114 0.0281,-0.0205 0.048,-0.0281 0.0198,-0.006 0.0449,-0.0122 0.0745,-0.0152 0.0297,-0.003 0.0677,-0.005 0.11412,-0.005 0.0563,0 0.10196,0.002 0.13696,0.006 0.035,0.004 0.0624,0.01 0.0837,0.0168 0.0206,0.007 0.035,0.0168 0.0433,0.0282 0.008,0.0114 0.0121,0.0251 0.0121,0.0411 z m 2.8798,-0.005 c 0,0.0145 -0.005,0.0282 -0.0144,0.0404 -0.01,0.0114 -0.0258,0.0213 -0.048,0.0289 -0.022,0.006 -0.0518,0.013 -0.089,0.0175 -0.0365,0.005 -0.0837,0.006 -0.13924,0.006 -0.0579,0 -0.10575,-0.002 -0.14379,-0.006 -0.0381,-0.005 -0.0669,-0.0106 -0.089,-0.0175 -0.0213,-0.007 -0.0365,-0.0175 -0.0464,-0.0289 -0.01,-0.0121 -0.0144,-0.0258 -0.0144,-0.0404 v -1.16639 h -1.08192 v 1.16639 c 0,0.0145 -0.005,0.0282 -0.0137,0.0404 -0.008,0.0114 -0.0244,0.0213 -0.0464,0.0289 -0.022,0.006 -0.0518,0.013 -0.089,0.0175 -0.0365,0.005 -0.0844,0.006 -0.14151,0.006 -0.0563,0 -0.10349,-0.002 -0.14153,-0.006 -0.038,-0.005 -0.0677,-0.0106 -0.0898,-0.0175 -0.022,-0.007 -0.0381,-0.0175 -0.048,-0.0289 -0.01,-0.0121 -0.0144,-0.0258 -0.0144,-0.0404 v -2.72535 c 0,-0.0145 0.005,-0.0282 0.0144,-0.0404 0.01,-0.0114 0.0258,-0.0213 0.048,-0.0289 0.022,-0.007 0.0518,-0.013 0.0898,-0.0175 0.0381,-0.005 0.0852,-0.006 0.14153,-0.006 0.057,0 0.10499,0.002 0.14151,0.006 0.0373,0.005 0.067,0.0106 0.089,0.0175 0.022,0.007 0.038,0.0175 0.0464,0.0289 0.009,0.0122 0.0137,0.0258 0.0137,0.0404 v 1.06138 h 1.08192 v -1.06138 c 0,-0.0145 0.005,-0.0282 0.0144,-0.0404 0.01,-0.0114 0.0251,-0.0213 0.0464,-0.0289 0.022,-0.006 0.051,-0.013 0.089,-0.0175 0.0381,-0.005 0.0859,-0.006 0.14379,-0.006 0.0556,0 0.10272,0.002 0.13924,0.006 0.0373,0.005 0.0669,0.01 0.089,0.0175 0.022,0.007 0.0381,0.0175 0.048,0.0289 0.01,0.0122 0.0144,0.0258 0.0144,0.0404 z"
       style="fill:#003263;fill-rule:evenodd;stroke-width:0.03589965"
       id="path931"
       sodipodi:nodetypes="ccccscccsscccccccccccscccsscccscccsscccccccccscccccscccscccsccscccscccsscccscccsccscccscccssccccscscccscccscscccscccsscccccscccsssssssscccscccsccscccscccsccscccssscccscscccscccsscsscccccsssccsccscccsscccscccsccscccscccsscccscccsccscccscccssscccsssssssscccscccsccscccscccsccscccssscccscscccscccscscccscccsscccsscccscccsccccccsccccccscccscccsscssccccccccccsscccssccccsccccccccccsccccccccsccccccccccccccscscccscccsscsscccccccsccccccccccsccccccccsccccccccccccccscccccccscscccscccscccsscccscccsscccscccscccscccscccccscscccsccccccccccscccscccsscccccccccccscccsscccscccsscccccccccscccssscccscccsccscccscccsscccscccscccccascccss" />
  </g>
</svg>
