<?xml version="1.0" encoding="UTF-8" standalone="no"?>
<!-- Created with Inkscape (http://www.inkscape.org/) -->

<svg
   xmlns:dc="http://purl.org/dc/elements/1.1/"
   xmlns:cc="http://creativecommons.org/ns#"
   xmlns:rdf="http://www.w3.org/1999/02/22-rdf-syntax-ns#"
   xmlns:svg="http://www.w3.org/2000/svg"
   xmlns="http://www.w3.org/2000/svg"
   xmlns:sodipodi="http://sodipodi.sourceforge.net/DTD/sodipodi-0.dtd"
   xmlns:inkscape="http://www.inkscape.org/namespaces/inkscape"
   width="45.091419mm"
   height="13.22917mm"
   viewBox="0 0 45.091417 13.229169"
   version="1.1"
   id="svg959"
   inkscape:version="0.92.4 (5da689c313, 2019-01-14)"
   sodipodi:docname="header_logo_mob.svg">
  <defs
     id="defs953" />
  <sodipodi:namedview
     id="base"
     pagecolor="#ffffff"
     bordercolor="#666666"
     borderopacity="1.0"
     inkscape:pageopacity="0.0"
     inkscape:pageshadow="2"
     inkscape:zoom="3.1791521"
     inkscape:cx="210.36427"
     inkscape:cy="38.638335"
     inkscape:document-units="mm"
     inkscape:current-layer="layer1"
     showgrid="false"
     inkscape:window-width="1920"
     inkscape:window-height="996"
     inkscape:window-x="-8"
     inkscape:window-y="-8"
     inkscape:window-maximized="1" />
  <metadata
     id="metadata956">
    <rdf:RDF>
      <cc:Work
         rdf:about="">
        <dc:format>image/svg+xml</dc:format>
        <dc:type
           rdf:resource="http://purl.org/dc/dcmitype/StillImage" />
        <dc:title></dc:title>
      </cc:Work>
    </rdf:RDF>
  </metadata>
  <g
     inkscape:label="Layer 1"
     inkscape:groupmode="layer"
     id="layer1"
     transform="translate(591.08929,-155.62798)">
    <path
       inkscape:connector-curvature="0"
       d="m -591.08929,155.62798 h 45.09142 l -6.15424,13.22917 h -38.93718 z"
       style="fill:#ffd008;fill-rule:evenodd;stroke-width:0.03589965"
       id="path909"
       sodipodi:nodetypes="ccccc" />
    <path
       inkscape:connector-curvature="0"
       d="m -584.8258,164.67626 c 0,0.0233 -0.007,0.0442 -0.022,0.0626 -0.0135,0.0185 -0.0381,0.0332 -0.0736,0.0455 -0.0343,0.0111 -0.081,0.0208 -0.13745,0.027 -0.0576,0.006 -0.13129,0.009 -0.21964,0.009 -0.0884,0 -0.16198,-0.003 -0.21965,-0.009 -0.0565,-0.006 -0.10305,-0.016 -0.13741,-0.027 -0.0356,-0.0123 -0.0602,-0.027 -0.0737,-0.0455 -0.0147,-0.0184 -0.0221,-0.0393 -0.0221,-0.0626 v -3.20357 c 0,-0.0233 0.007,-0.0442 0.0221,-0.0626 0.0135,-0.0184 0.0381,-0.0344 0.0737,-0.0467 0.0343,-0.0135 0.081,-0.0233 0.13741,-0.0307 0.0577,-0.007 0.13129,-0.011 0.21965,-0.011 0.0883,0 0.16201,0.004 0.21964,0.011 0.0565,0.007 0.1031,0.0172 0.13745,0.0307 0.0356,0.0123 0.0602,0.0283 0.0736,0.0467 0.0147,0.0184 0.022,0.0393 0.022,0.0626 z m 0.0737,-4.30084 c 0,0.18286 -0.0368,0.30808 -0.11169,0.37803 -0.0748,0.07 -0.2123,0.10432 -0.41477,0.10432 -0.20367,0 -0.34235,-0.0331 -0.4123,-0.10064 -0.0712,-0.0675 -0.10676,-0.18902 -0.10676,-0.36333 0,-0.18287 0.0368,-0.30928 0.11044,-0.38048 0.0724,-0.07 0.21106,-0.10556 0.41601,-0.10556 0.20124,0 0.33868,0.0344 0.41107,0.1031 0.0724,0.0675 0.108,0.18904 0.108,0.36456 z m 3.89238,4.30084 c 0,0.0233 -0.007,0.0442 -0.0221,0.0626 -0.0135,0.0185 -0.038,0.0332 -0.0712,0.0455 -0.0343,0.0111 -0.081,0.0208 -0.13988,0.027 -0.0589,0.006 -0.1313,0.009 -0.21718,0.009 -0.0896,0 -0.1632,-0.003 -0.22212,-0.009 -0.0589,-0.006 -0.10553,-0.016 -0.13989,-0.027 -0.0332,-0.0123 -0.0577,-0.027 -0.0712,-0.0455 -0.0147,-0.0184 -0.0221,-0.0393 -0.0221,-0.0626 v -1.8301 c 0,-0.15585 -0.011,-0.27859 -0.0343,-0.36697 -0.0221,-0.0896 -0.0553,-0.16572 -0.0982,-0.22829 -0.0429,-0.0638 -0.0994,-0.11294 -0.16688,-0.14854 -0.0687,-0.0344 -0.14724,-0.0515 -0.23806,-0.0515 -0.11536,0 -0.23068,0.0417 -0.34851,0.12642 -0.11655,0.0835 -0.23926,0.2062 -0.36568,0.36577 v 2.13325 c 0,0.0233 -0.007,0.0442 -0.022,0.0626 -0.0135,0.0184 -0.0381,0.0332 -0.0736,0.0454 -0.0343,0.0111 -0.081,0.0209 -0.13745,0.027 -0.0576,0.006 -0.1313,0.009 -0.21965,0.009 -0.0883,0 -0.16197,-0.003 -0.21965,-0.009 -0.0564,-0.006 -0.10306,-0.016 -0.13741,-0.027 -0.0356,-0.0123 -0.0602,-0.027 -0.0737,-0.0454 -0.0147,-0.0184 -0.0221,-0.0393 -0.0221,-0.0626 v -3.21091 c 0,-0.0233 0.006,-0.0442 0.0184,-0.0626 0.0111,-0.0184 0.0332,-0.0331 0.0638,-0.0454 0.0319,-0.0111 0.0712,-0.0209 0.12023,-0.027 0.0491,-0.006 0.11169,-0.009 0.1853,-0.009 0.0773,0 0.13988,0.003 0.19022,0.009 0.0503,0.006 0.0896,0.016 0.11779,0.027 0.027,0.0123 0.0466,0.027 0.0589,0.0454 0.0122,0.0184 0.0184,0.0393 0.0184,0.0626 v 0.37068 c 0.17668,-0.19148 0.35707,-0.33384 0.54116,-0.42961 0.18282,-0.0957 0.37427,-0.14359 0.57303,-0.14359 0.21845,0 0.40252,0.0356 0.55222,0.10802 0.14971,0.0712 0.26998,0.16937 0.36321,0.29335 0.0921,0.12273 0.15829,0.26756 0.1988,0.43325 0.0405,0.16573 0.0614,0.36457 0.0614,0.59654 z m 3.92922,0 c 0,0.0257 -0.006,0.0478 -0.0184,0.0663 -0.0111,0.0184 -0.0319,0.0331 -0.0602,0.0454 -0.0295,0.0111 -0.0687,0.0196 -0.11779,0.0246 -0.0491,0.004 -0.10921,0.007 -0.18039,0.007 -0.0773,0 -0.13987,-0.003 -0.18773,-0.007 -0.0479,-0.004 -0.0859,-0.0135 -0.11659,-0.0246 -0.0295,-0.0123 -0.0516,-0.0282 -0.0638,-0.0454 -0.0135,-0.0184 -0.0208,-0.0405 -0.0208,-0.0675 v -0.35718 c -0.16441,0.17799 -0.33869,0.31543 -0.51907,0.41363 -0.18159,0.0982 -0.38162,0.14731 -0.60251,0.14731 -0.24418,0 -0.45156,-0.0479 -0.61968,-0.14239 -0.16936,-0.0945 -0.30677,-0.22218 -0.41354,-0.38295 -0.10677,-0.15958 -0.18407,-0.34735 -0.23192,-0.56215 -0.0478,-0.21482 -0.0724,-0.44064 -0.0724,-0.67752 0,-0.28478 0.0307,-0.54129 0.092,-0.76961 0.0614,-0.22706 0.1497,-0.421 0.26751,-0.58177 0.11782,-0.16081 0.26382,-0.28354 0.43933,-0.37069 0.17424,-0.0859 0.37547,-0.12888 0.60372,-0.12888 0.17917,0 0.34238,0.0368 0.48838,0.10923 0.14727,0.0736 0.29207,0.18043 0.43563,0.32159 v -1.73433 c 0,-0.0246 0.006,-0.0455 0.0196,-0.0651 0.0135,-0.0184 0.0368,-0.0356 0.0724,-0.0478 0.0343,-0.0135 0.081,-0.0233 0.13741,-0.0307 0.0577,-0.007 0.13129,-0.0111 0.21965,-0.0111 0.0884,0 0.16201,0.004 0.21965,0.0111 0.0565,0.007 0.10309,0.0172 0.13624,0.0307 0.0331,0.0122 0.0576,0.0294 0.0711,0.0478 0.0147,0.0196 0.0221,0.0405 0.0221,0.0651 z m -0.89825,-2.14429 c -0.12883,-0.16325 -0.25401,-0.28722 -0.3718,-0.37436 -0.11903,-0.0859 -0.24298,-0.12889 -0.37304,-0.12889 -0.11659,0 -0.21845,0.0295 -0.30309,0.0884 -0.0859,0.0589 -0.15342,0.13624 -0.20495,0.23445 -0.0515,0.0994 -0.0908,0.20863 -0.11535,0.32893 -0.0257,0.1215 -0.038,0.24547 -0.038,0.37192 0,0.135 0.011,0.2651 0.0319,0.39154 0.0221,0.12766 0.0577,0.24056 0.10674,0.33997 0.0491,0.0994 0.11415,0.17922 0.19635,0.23935 0.081,0.0601 0.18407,0.0896 0.30925,0.0896 0.0614,0 0.12271,-0.009 0.18158,-0.027 0.0589,-0.0185 0.11784,-0.0467 0.17919,-0.0884 0.0614,-0.0405 0.12391,-0.0933 0.18897,-0.15958 0.065,-0.0663 0.13621,-0.14607 0.21226,-0.2418 z m 4.76858,0.44676 c 0,0.11046 -0.0245,0.1915 -0.0737,0.24427 -0.0491,0.0528 -0.11656,0.0798 -0.20368,0.0798 h -1.95356 c 0,0.13624 0.016,0.25897 0.0491,0.37065 0.0319,0.11047 0.0835,0.20499 0.15342,0.2823 0.0711,0.0773 0.16197,0.13624 0.27361,0.17676 0.11168,0.0405 0.24421,0.0614 0.40007,0.0614 0.1583,0 0.29695,-0.011 0.41722,-0.0344 0.11903,-0.0233 0.22333,-0.0478 0.31044,-0.0761 0.0871,-0.0282 0.15953,-0.0528 0.21722,-0.0761 0.0577,-0.0233 0.10429,-0.0344 0.13987,-0.0344 0.0221,0 0.0405,0.004 0.054,0.0123 0.0147,0.009 0.027,0.0233 0.0368,0.0454 0.009,0.0209 0.016,0.0516 0.0196,0.0909 0.004,0.0393 0.004,0.0896 0.004,0.14851 0,0.0528 -10e-4,0.0982 -0.004,0.135 -0.003,0.0368 -0.006,0.0688 -0.0111,0.0945 -0.004,0.027 -0.011,0.0491 -0.0208,0.0663 -0.01,0.0184 -0.0221,0.0356 -0.038,0.0528 -0.016,0.016 -0.0577,0.0393 -0.12763,0.0687 -0.07,0.0295 -0.1583,0.0577 -0.2663,0.0859 -0.10797,0.0282 -0.23067,0.0528 -0.36936,0.0736 -0.13864,0.0209 -0.28715,0.0319 -0.44545,0.0319 -0.28591,0 -0.535,-0.0356 -0.74974,-0.10802 -0.21354,-0.0712 -0.39269,-0.18044 -0.53748,-0.3265 -0.1436,-0.14607 -0.25033,-0.33137 -0.32151,-0.55356 -0.0699,-0.22337 -0.10553,-0.48483 -0.10553,-0.78431 0,-0.28475 0.0368,-0.54129 0.11165,-0.77082 0.0736,-0.22829 0.18161,-0.42222 0.32398,-0.58176 0.14112,-0.15957 0.31291,-0.28111 0.51539,-0.36457 0.20367,-0.0847 0.43195,-0.12641 0.68595,-0.12641 0.26874,0 0.49821,0.0393 0.68839,0.11905 0.19144,0.0786 0.34727,0.18902 0.47001,0.32894 0.12148,0.13992 0.21226,0.30688 0.26994,0.49833 0.0577,0.1915 0.0859,0.40013 0.0859,0.62599 z m -0.87616,-0.25774 c 0.007,-0.25407 -0.0442,-0.45415 -0.15339,-0.59898 -0.10924,-0.14607 -0.27732,-0.2185 -0.50556,-0.2185 -0.11536,0 -0.21598,0.0221 -0.30065,0.0651 -0.0859,0.043 -0.15707,0.10064 -0.21354,0.17428 -0.0564,0.0736 -0.0994,0.15957 -0.12883,0.25897 -0.0307,0.10065 -0.0478,0.20621 -0.0527,0.31915 z m 4.29489,1.89019 c 0.0196,0.0405 0.0283,0.0749 0.027,0.10068 -0.001,0.027 -0.0185,0.0478 -0.0516,0.065 -0.0344,0.0172 -0.0859,0.0282 -0.15463,0.0344 -0.0699,0.006 -0.16197,0.009 -0.27612,0.009 -0.10797,0 -0.19509,-10e-4 -0.26012,-0.004 -0.0663,-0.004 -0.11783,-0.011 -0.15462,-0.0221 -0.0368,-0.011 -0.065,-0.0246 -0.0822,-0.0393 -0.0184,-0.016 -0.0319,-0.0356 -0.0417,-0.0601 l -0.5964,-1.14026 -0.58902,1.14026 c -0.01,0.0246 -0.0233,0.0442 -0.0393,0.0601 -0.0172,0.0147 -0.0429,0.0283 -0.0785,0.0393 -0.0343,0.0111 -0.0834,0.0184 -0.14604,0.0221 -0.0626,0.004 -0.14355,0.004 -0.24541,0.004 -0.10553,0 -0.1902,-0.003 -0.25156,-0.009 -0.0626,-0.006 -0.10921,-0.0172 -0.13744,-0.0344 -0.0295,-0.0172 -0.0442,-0.0381 -0.0454,-0.065 -10e-4,-0.0258 0.009,-0.0602 0.0307,-0.10068 l 0.88719,-1.57968 -0.81725,-1.4827 c -0.0221,-0.0442 -0.0332,-0.0798 -0.0343,-0.11046 -10e-4,-0.0295 0.0135,-0.0528 0.0454,-0.07 0.0307,-0.0172 0.081,-0.0283 0.14971,-0.0356 0.0675,-0.007 0.16077,-0.011 0.27856,-0.011 0.10554,0 0.19021,0.001 0.25401,0.004 0.0626,0.004 0.11292,0.01 0.14851,0.0172 0.0368,0.006 0.0626,0.0184 0.0797,0.0331 0.0172,0.016 0.0307,0.0356 0.0429,0.0601 l 0.5706,1.07278 0.56325,-1.07278 c 0.007,-0.0196 0.0184,-0.0356 0.0319,-0.0503 0.0147,-0.0147 0.038,-0.027 0.0687,-0.0368 0.0319,-0.009 0.0736,-0.0159 0.12762,-0.0209 0.054,-0.004 0.12886,-0.007 0.22213,-0.007 0.10553,0 0.19017,0.003 0.254,0.007 0.0638,0.004 0.1092,0.0159 0.13621,0.0319 0.0283,0.0172 0.0417,0.0405 0.0405,0.07 -0.001,0.0306 -0.016,0.07 -0.0417,0.11782 l -0.79515,1.45694 z m 3.66663,-1.57229 c 0,0.27248 -0.0356,0.52163 -0.10798,0.7475 -0.0724,0.22461 -0.18038,0.41854 -0.32765,0.58179 -0.14604,0.16324 -0.32886,0.28842 -0.54974,0.37803 -0.22089,0.0884 -0.47857,0.13257 -0.77308,0.13257 -0.28591,0 -0.53379,-0.0393 -0.74486,-0.11906 -0.21106,-0.0786 -0.38654,-0.19394 -0.52522,-0.34491 -0.13864,-0.15099 -0.24174,-0.33633 -0.3092,-0.55723 -0.0675,-0.21974 -0.10066,-0.47134 -0.10066,-0.75488 0,-0.27247 0.0368,-0.52286 0.10925,-0.74872 0.0736,-0.22705 0.18282,-0.42099 0.33009,-0.58299 0.14599,-0.16081 0.32885,-0.28599 0.5485,-0.37561 0.21842,-0.0884 0.47613,-0.13256 0.77064,-0.13256 0.28835,0 0.53748,0.0393 0.74854,0.11662 0.21106,0.0785 0.38529,0.19269 0.52274,0.34364 0.13865,0.15098 0.24051,0.33633 0.30801,0.55727 0.0675,0.2197 0.10062,0.47256 0.10062,0.75854 z m -0.9277,0.0356 c 0,-0.15833 -0.0122,-0.30436 -0.038,-0.43692 -0.0258,-0.1338 -0.0675,-0.24919 -0.12887,-0.34735 -0.0601,-0.0982 -0.13988,-0.17552 -0.23929,-0.23077 -0.10062,-0.0552 -0.22576,-0.0822 -0.37795,-0.0822 -0.13496,0 -0.25276,0.0246 -0.35462,0.0736 -0.10062,0.0491 -0.18406,0.12151 -0.24912,0.21603 -0.065,0.0945 -0.11413,0.20868 -0.14604,0.34121 -0.0331,0.1338 -0.0491,0.28478 -0.0491,0.45538 0,0.15833 0.0135,0.3044 0.0393,0.43697 0.027,0.13377 0.0699,0.24915 0.12882,0.34735 0.0589,0.0982 0.13868,0.17428 0.24053,0.22829 0.10063,0.054 0.22577,0.081 0.37548,0.081 0.13745,0 0.25648,-0.0246 0.35833,-0.0737 0.10062,-0.0491 0.18407,-0.12026 0.24909,-0.21355 0.0651,-0.0945 0.11293,-0.20744 0.14484,-0.34001 0.0307,-0.1338 0.0466,-0.28474 0.0466,-0.45539 z m 2.55237,1.60181 c 0,0.0233 -0.007,0.0442 -0.022,0.0626 -0.0135,0.0185 -0.0381,0.0332 -0.0737,0.0455 -0.0343,0.0111 -0.081,0.0209 -0.13744,0.027 -0.0577,0.006 -0.13129,0.009 -0.21965,0.009 -0.0883,0 -0.16197,-0.003 -0.21965,-0.009 -0.0564,-0.006 -0.10306,-0.016 -0.13741,-0.027 -0.0356,-0.0123 -0.0602,-0.027 -0.0737,-0.0455 -0.0147,-0.0184 -0.0221,-0.0393 -0.0221,-0.0626 v -4.73166 c 0,-0.0246 0.007,-0.0454 0.0221,-0.0651 0.0135,-0.0184 0.0381,-0.0356 0.0737,-0.0478 0.0343,-0.0135 0.081,-0.0233 0.13741,-0.0307 0.0577,-0.007 0.1313,-0.011 0.21965,-0.011 0.0884,0 0.162,0.004 0.21965,0.011 0.0565,0.007 0.10309,0.0172 0.13744,0.0307 0.0356,0.0122 0.0602,0.0295 0.0737,0.0478 0.0147,0.0196 0.022,0.0405 0.022,0.0651 z m 1.96338,-0.39893 c 0,0.22218 -0.038,0.37312 -0.11655,0.44923 -0.0773,0.0773 -0.21722,0.11539 -0.41845,0.11539 -0.20124,0 -0.34116,-0.0381 -0.41721,-0.11292 -0.0773,-0.0761 -0.11536,-0.21969 -0.11536,-0.43084 0,-0.22459 0.0393,-0.37681 0.11655,-0.45291 0.0786,-0.0773 0.2197,-0.11535 0.42336,-0.11535 0.19881,0 0.33625,0.0381 0.41355,0.11291 0.0761,0.0761 0.11411,0.22094 0.11411,0.43449 z m 2.96841,-2.5125 c 0,0.0859 -0.003,0.1571 -0.007,0.21235 -0.004,0.0552 -0.0123,0.0982 -0.0208,0.12885 -0.01,0.0307 -0.0233,0.0528 -0.038,0.0651 -0.016,0.0123 -0.0356,0.0172 -0.0601,0.0172 -0.0184,0 -0.0405,-0.004 -0.0651,-0.0123 -0.0233,-0.009 -0.0503,-0.0172 -0.081,-0.027 -0.0295,-0.01 -0.0626,-0.0184 -0.0982,-0.027 -0.0368,-0.009 -0.0761,-0.0123 -0.11903,-0.0123 -0.0503,0 -0.10062,0.01 -0.15095,0.0306 -0.0503,0.0209 -0.10306,0.0516 -0.15706,0.0957 -0.054,0.0429 -0.11044,0.10064 -0.16932,0.17184 -0.0589,0.0724 -0.1215,0.16076 -0.18901,0.26632 v 2.00194 c 0,0.0233 -0.007,0.0442 -0.022,0.0626 -0.0135,0.0185 -0.0381,0.0332 -0.0737,0.0455 -0.0343,0.0111 -0.081,0.0209 -0.13745,0.027 -0.0577,0.006 -0.13129,0.009 -0.21965,0.009 -0.0883,0 -0.16197,-0.003 -0.21966,-0.009 -0.0564,-0.006 -0.10304,-0.016 -0.1374,-0.027 -0.0356,-0.0123 -0.0602,-0.027 -0.0737,-0.0455 -0.0147,-0.0184 -0.0221,-0.0393 -0.0221,-0.0626 v -3.21092 c 0,-0.0233 0.006,-0.0442 0.0184,-0.0626 0.0111,-0.0184 0.0332,-0.0331 0.0638,-0.0454 0.0319,-0.0111 0.0711,-0.021 0.12024,-0.027 0.0491,-0.006 0.11168,-0.009 0.18529,-0.009 0.0773,0 0.13989,0.003 0.19022,0.009 0.0503,0.006 0.0896,0.016 0.11779,0.027 0.027,0.0123 0.0466,0.027 0.0589,0.0454 0.0122,0.0184 0.0184,0.0393 0.0184,0.0626 v 0.40013 c 0.0834,-0.1203 0.16321,-0.21847 0.23683,-0.29582 0.0748,-0.0773 0.14603,-0.13991 0.21229,-0.18534 0.0675,-0.0454 0.13497,-0.0773 0.20248,-0.0945 0.0662,-0.0184 0.13373,-0.027 0.20123,-0.027 0.0307,0 0.065,0.001 0.10062,0.004 0.0356,0.004 0.0736,0.01 0.11169,0.0184 0.038,0.009 0.0724,0.0184 0.10062,0.0282 0.0294,0.0111 0.0503,0.0221 0.0638,0.0344 0.0123,0.0123 0.0221,0.0257 0.0283,0.0393 0.006,0.0147 0.011,0.0344 0.016,0.0601 0.004,0.0245 0.009,0.0626 0.0111,0.11291 0.003,0.0503 0.004,0.11786 0.004,0.20376 z m 3.59664,2.91143 c 0,0.0233 -0.006,0.0442 -0.0184,0.0626 -0.0111,0.0185 -0.0319,0.0332 -0.0626,0.0455 -0.0295,0.0111 -0.0687,0.0209 -0.11903,0.027 -0.0491,0.006 -0.11044,0.009 -0.18405,0.009 -0.0798,0 -0.1436,-0.003 -0.1927,-0.009 -0.0491,-0.006 -0.0883,-0.016 -0.11655,-0.027 -0.0295,-0.0123 -0.0491,-0.027 -0.0614,-0.0455 -0.0123,-0.0184 -0.0184,-0.0393 -0.0184,-0.0626 v -0.37068 c -0.17671,0.19025 -0.3571,0.33385 -0.54115,0.42958 -0.18406,0.0957 -0.37428,0.14362 -0.5706,0.14362 -0.22089,0 -0.40742,-0.0356 -0.55714,-0.10803 -0.14971,-0.0712 -0.27117,-0.1706 -0.3632,-0.29458 -0.092,-0.12521 -0.1583,-0.2688 -0.1988,-0.43329 -0.0393,-0.16445 -0.0589,-0.36944 -0.0589,-0.61368 v -1.96385 c 0,-0.0233 0.006,-0.0442 0.0196,-0.0626 0.0135,-0.0184 0.038,-0.0331 0.0724,-0.0454 0.0344,-0.0111 0.0822,-0.0209 0.14112,-0.027 0.0589,-0.006 0.13129,-0.009 0.21845,-0.009 0.0883,0 0.16197,0.003 0.21965,0.009 0.0577,0.006 0.10429,0.016 0.13865,0.027 0.0356,0.0123 0.0602,0.027 0.0737,0.0454 0.0147,0.0184 0.0221,0.0393 0.0221,0.0626 v 1.81287 c 0,0.16816 0.011,0.29581 0.0319,0.38419 0.0221,0.0896 0.0553,0.16569 0.0994,0.22829 0.0442,0.0639 0.10061,0.11291 0.16932,0.1485 0.0675,0.0344 0.14727,0.0516 0.2393,0.0516 0.11536,0 0.23068,-0.0417 0.34727,-0.12521 0.11536,-0.0835 0.2405,-0.20621 0.3718,-0.36578 v -2.13445 c 0,-0.0233 0.006,-0.0442 0.0196,-0.0626 0.0135,-0.0184 0.0368,-0.0331 0.0724,-0.0454 0.0343,-0.0111 0.081,-0.0209 0.13741,-0.027 0.0577,-0.006 0.13129,-0.009 0.21965,-0.009 0.0883,0 0.162,0.003 0.21964,0.009 0.0565,0.006 0.1031,0.016 0.13624,0.027 0.0331,0.0123 0.0577,0.027 0.0711,0.0454 0.0147,0.0184 0.0221,0.0393 0.0221,0.0626 z"
       style="fill:#003263;fill-rule:evenodd;stroke-width:0.02259598"
       id="path929"
       sodipodi:nodetypes="scccscccsscccscccssscscscscsscccscccsscccsccscccscccsscccscccsccscccssscccscccsccscccscccsccscccscccssccscccscccscccccccsccccscccscccscccccccscccscccscccccccscccccccccscccccccccscccccccccscccccccccsccccccscccscccscccscccsscccscccscccscccsscccscccsscccscccssscscscscsccccscccsccccscccscccsscccscccsccccscccccccccscccscccsccscccsscccscccsscccsccscccscccss" />
  </g>
</svg>
