<?xml version="1.0" encoding="UTF-8" standalone="no"?>
<!-- Created with Inkscape (http://www.inkscape.org/) -->

<svg
   xmlns:dc="http://purl.org/dc/elements/1.1/"
   xmlns:cc="http://creativecommons.org/ns#"
   xmlns:rdf="http://www.w3.org/1999/02/22-rdf-syntax-ns#"
   xmlns:svg="http://www.w3.org/2000/svg"
   xmlns="http://www.w3.org/2000/svg"
   xmlns:sodipodi="http://sodipodi.sourceforge.net/DTD/sodipodi-0.dtd"
   xmlns:inkscape="http://www.inkscape.org/namespaces/inkscape"
   width="55.724373mm"
   height="12.29812mm"
   viewBox="0 0 55.724373 12.29812"
   version="1.1"
   id="svg4648"
   inkscape:version="0.92.2 (5c3e80d, 2017-08-06)"
   sodipodi:docname="indexol_logo6.svg">
  <defs
     id="defs4642" />
  <sodipodi:namedview
     id="base"
     pagecolor="#ffffff"
     bordercolor="#666666"
     borderopacity="1.0"
     inkscape:pageopacity="0.0"
     inkscape:pageshadow="2"
     inkscape:zoom="2.9421875"
     inkscape:cx="153.25104"
     inkscape:cy="-20.869271"
     inkscape:document-units="mm"
     inkscape:current-layer="layer1"
     showgrid="false"
     inkscape:window-width="1920"
     inkscape:window-height="976"
     inkscape:window-x="-8"
     inkscape:window-y="-8"
     inkscape:window-maximized="1" />
  <metadata
     id="metadata4645">
    <rdf:RDF>
      <cc:Work
         rdf:about="">
        <dc:format>image/svg+xml</dc:format>
        <dc:type
           rdf:resource="http://purl.org/dc/dcmitype/StillImage" />
        <dc:title></dc:title>
      </cc:Work>
    </rdf:RDF>
  </metadata>
  <g
     inkscape:label="Layer 1"
     inkscape:groupmode="layer"
     id="layer1"
     transform="translate(-49.244954,-120.0057)">
    <path
       style="fill:#ffcc00;stroke-width:0.20933203"
       inkscape:connector-curvature="0"
       id="path4857-4"
       d="m 50.882974,122.44983 h 0.25174 l -0.002,9.85399 -1.88776,-9e-4 v -7.12787 c 0,-0.99219 0.20702,-2.72521 1.63797,-2.72521 z"
       class="cls-4"
       sodipodi:nodetypes="ccccssc" />
    <path
       style="fill:#ffcc00;stroke-width:0.22418389"
       inkscape:connector-curvature="0"
       id="path4851-1"
       d="m 61.506234,122.44257 h 5.43757 c 1.6697,0 2.11945,1.15623 2.11989,2.92365 l 0.001,3.98371 c 0,1.75424 -0.43497,2.93832 -2.11026,2.93832 l -5.44862,0.005 z m 1.93241,7.95654 2.72249,-0.003 c 0.58506,-6.3e-4 0.99802,-0.32131 0.99749,-1.02774 l -0.003,-3.99631 c -6.6e-4,-0.87048 -0.31155,-1.03748 -0.99538,-1.03452 h -2.71786 z"
       class="cls-4"
       sodipodi:nodetypes="csscccccsssscc" />
    <path
       style="fill:#ffcc00;stroke-width:0.25768554"
       d="m 84.738764,120.05118 -5.27597,12.24359 h 2.18911 l 5.36168,-12.24359 z"
       id="path847"
       inkscape:connector-curvature="0"
       sodipodi:nodetypes="ccccc" />
    <path
       style="fill:#0066ff;fill-opacity:1;stroke-width:0.25381118"
       inkscape:connector-curvature="0"
       id="path4857-1"
       d="m 98.938824,120.08462 h 0.37008 v 7.94732 h 5.645146 v 1.90576 h -7.559956 v -7.12788 c 0,-0.99218 -0.007,-2.7252 1.54473,-2.7252 z"
       class="cls-4"
       sodipodi:nodetypes="scccccss" />
    <path
       style="fill:#0066ff;fill-opacity:1;stroke-width:0.21453181"
       inkscape:connector-curvature="0"
       id="path4861-5"
       d="m 91.271524,120.0057 h 1.97953 c 0,1.22946 -0.24005,1.94648 -1.40202,1.93325 h -0.24809 c -1.04369,0 -1.24373,0.74877 -1.24373,1.97114 v 2.16392 c 0,1.42875 0.19657,1.97114 1.13589,1.97114 h 1.4494 c 0.93932,0 1.13589,-0.54504 1.13589,-1.97114 l -0.0156,-6.02863 c 1.29939,0.21696 1.95062,1.08215 1.95062,3.50309 v 2.96068 c 0,2.88396 -1.06457,3.56394 -2.85276,3.56394 h -1.89255 c -1.78994,0 -2.85278,-0.67998 -2.85278,-3.56394 v -2.93952 c 0.003,-2.88395 1.06804,-3.56393 2.85624,-3.56393 z"
       class="cls-4"
       sodipodi:nodetypes="ccccssssccsssssccc" />
    <path
       style="fill:#ffcc00;stroke-width:0.23769957"
       inkscape:connector-curvature="0"
       id="path4863-6"
       d="m 72.391164,130.40221 v -2.05761 h 4.58697 v -1.89572 h -4.58697 v -2.12283 h 5.49028 v -1.87372 h -5.76582 c -0.90117,0 -1.62723,0.82021 -1.64646,1.83621 v 0 8.01158 h 7.55749 v -1.89791 z"
       class="cls-4"
       sodipodi:nodetypes="ccccccccscccccc" />
    <path
       style="fill:#ffcc00;stroke-width:0.22414039"
       inkscape:connector-curvature="0"
       id="path4859-4"
       d="m 60.086184,132.29416 6.1e-4,-6.91418 c 0,-1.77006 -0.462,-2.92629 -2.13106,-2.92629 h -5.39826 v 9.8425 h 1.89925 l 0.0171,-7.95706 h 2.69196 c 0.68356,0 0.99496,0.16404 0.99496,1.03452 v 6.92051 z"
       class="cls-4"
       sodipodi:nodetypes="cccccccsscc" />
    <path
       style="fill:#0066ff;fill-opacity:1;stroke-width:0.23131131"
       d="m 79.445564,120.05084 5.36128,9.8788 h 2.20674 l -5.27596,-9.8788 z"
       id="path849"
       inkscape:connector-curvature="0"
       sodipodi:nodetypes="ccccc" />
    <circle
       style="fill:none;fill-opacity:1;stroke:#0066ff;stroke-width:0.60000002;stroke-miterlimit:4;stroke-dasharray:none;stroke-opacity:1"
       id="path1014"
       cx="103.69817"
       cy="121.2878"
       r="0.97115332" />
  </g>
</svg>
