<?xml version="1.0" encoding="UTF-8" standalone="no"?>
<!-- Created with Inkscape (http://www.inkscape.org/) -->

<svg
   xmlns:dc="http://purl.org/dc/elements/1.1/"
   xmlns:cc="http://creativecommons.org/ns#"
   xmlns:rdf="http://www.w3.org/1999/02/22-rdf-syntax-ns#"
   xmlns:svg="http://www.w3.org/2000/svg"
   xmlns="http://www.w3.org/2000/svg"
   xmlns:sodipodi="http://sodipodi.sourceforge.net/DTD/sodipodi-0.dtd"
   xmlns:inkscape="http://www.inkscape.org/namespaces/inkscape"
   width="85.268158mm"
   height="10.067395mm"
   viewBox="0 0 85.268158 10.067395"
   version="1.1"
   id="svg1698"
   inkscape:version="0.92.2 (5c3e80d, 2017-08-06)"
   sodipodi:docname="indexol_logo.svg">
  <defs
     id="defs1692" />
  <sodipodi:namedview
     id="base"
     pagecolor="#ffffff"
     bordercolor="#666666"
     borderopacity="1.0"
     inkscape:pageopacity="0.0"
     inkscape:pageshadow="2"
     inkscape:zoom="3.959798"
     inkscape:cx="163.23814"
     inkscape:cy="-32.942789"
     inkscape:document-units="mm"
     inkscape:current-layer="layer1"
     showgrid="false"
     inkscape:window-width="1920"
     inkscape:window-height="976"
     inkscape:window-x="-8"
     inkscape:window-y="-8"
     inkscape:window-maximized="1" />
  <metadata
     id="metadata1695">
    <rdf:RDF>
      <cc:Work
         rdf:about="">
        <dc:format>image/svg+xml</dc:format>
        <dc:type
           rdf:resource="http://purl.org/dc/dcmitype/StillImage" />
        <dc:title></dc:title>
      </cc:Work>
    </rdf:RDF>
  </metadata>
  <g
     inkscape:label="Layer 1"
     inkscape:groupmode="layer"
     id="layer1"
     transform="translate(-29.93735,-50.061539)">
    <path
       style="fill:#ffcc00;stroke-width:0.26458332"
       inkscape:connector-curvature="0"
       id="path4857-4"
       d="m 32.554077,50.155122 h 0.402167 c -0.0031,7.700045 -0.0031,7.481809 -0.0031,9.853993 l -3.015794,-9e-4 V 52.88034 c 0,-0.992188 0.33073,-2.725208 2.61673,-2.725208 z"
       class="cls-4"
       sodipodi:nodetypes="ccccssc" />
    <path
       style="fill:#ffcc00;stroke-width:0.26458332"
       inkscape:connector-curvature="0"
       id="path4851-1"
       d="m 49.657101,50.147864 h 9.114895 c 2.325688,0 2.951869,1.156229 2.95275,2.923645 l 0.0019,3.98371 c 0,1.754241 -0.605864,2.938322 -2.939357,2.938322 -8.05462,-0.01871 -3.289797,0.0048 -9.130273,0.0048 z m 3.024187,7.395985 4.721323,-0.0034 c 0.814916,-5.82e-4 1.390406,-0.321304 1.389393,-1.027741 l -0.0041,-2.882966 C 58.786504,52.759263 58.35396,52.59522 57.40146,52.59522 h -4.714875 z"
       class="cls-4"
       sodipodi:nodetypes="csscccccsssscc" />
    <path
       style="fill:#ffcc00;stroke-width:0.26458332"
       d="m 77.091998,50.140182 4.273124,4.890657 -4.273124,4.954737 h 3.195153 l 2.703711,-3.093869 2.703195,3.093869 h 3.195669 l -4.273124,-4.954737 4.273124,-4.890657 h -3.307292 l -2.591572,3.004984 -2.591573,-3.004984 z"
       id="path4855-4"
       inkscape:connector-curvature="0" />
    <path
       style="fill:#ffcc00;stroke-width:0.26458332"
       inkscape:connector-curvature="0"
       id="path4857-1"
       d="m 108.01942,50.140458 h 0.40217 v 7.323666 h 6.78392 v 2.529417 h -9.80281 v -7.127875 c 0,-0.992188 0.33072,-2.725208 2.61672,-2.725208 z"
       class="cls-4" />
    <path
       style="fill:#ffcc00;stroke-width:0.26458332"
       inkscape:connector-curvature="0"
       id="path4861-5"
       d="M 98.712269,50.061541 H 94.11381 c 0,1.949978 0.365125,2.534708 2.132542,2.521478 0.127,0 0.772583,0 0.875771,0 h 0.936625 c 1.5875,0 1.891771,0.748772 1.891771,1.971147 v 1.058333 c 0,1.42875 -0.29898,1.971146 -1.72773,1.971146 h -3.487208 c -1.42875,0 -1.727729,-0.545042 -1.727729,-1.971146 v -1.058333 a 4.9979792,4.9979792 0 0 1 0.02381,-0.529167 c 0,-0.02381 0,-0.04498 0,-0.07144 0,-0.772583 0,-2.38125 0,-3.852333 -1.976437,0.216958 -3.119437,1.082145 -3.119437,3.503083 v 2.960687 c 0,2.883959 1.61925,3.563938 4.339167,3.563938 h 4.466166 c 2.722562,0 4.339172,-0.679979 4.339172,-3.563938 v -2.93952 c -0.005,-2.883958 -1.62454,-3.563937 -4.344461,-3.563937 z"
       class="cls-4" />
    <path
       style="fill:#ffcc00;stroke-width:0.26458332"
       inkscape:connector-curvature="0"
       id="path4863-6"
       d="m 67.078267,57.637393 v -1.5875 h 6.63575 v -2.029354 h -6.63575 v -1.566334 h 7.754938 v -2.296583 h -8.73125 c -1.116542,0 -2.016125,0.820208 -2.039938,1.836208 v 0 8.011584 h 10.951104 v -2.368021 z"
       class="cls-4" />
    <path
       style="fill:#ffcc00;stroke-width:0.26458332"
       inkscape:connector-curvature="0"
       id="path4859-4"
       d="m 47.411362,59.993541 -0.01587,-6.908271 c 0,-1.770062 -0.627062,-2.926291 -2.95275,-2.926291 h -4.426479 v 0 h -4.683125 v 9.8425 h 3.018891 l 0.02381,-7.392459 h 4.616979 c 0.952501,0 1.386416,0.164042 1.386416,1.034521 v 6.35 z"
       class="cls-4" />
  </g>
</svg>
