<?xml version="1.0" encoding="UTF-8" standalone="no"?>
<!-- Created with Inkscape (http://www.inkscape.org/) -->

<svg
   xmlns:dc="http://purl.org/dc/elements/1.1/"
   xmlns:cc="http://creativecommons.org/ns#"
   xmlns:rdf="http://www.w3.org/1999/02/22-rdf-syntax-ns#"
   xmlns:svg="http://www.w3.org/2000/svg"
   xmlns="http://www.w3.org/2000/svg"
   xmlns:sodipodi="http://sodipodi.sourceforge.net/DTD/sodipodi-0.dtd"
   xmlns:inkscape="http://www.inkscape.org/namespaces/inkscape"
   width="85.268066mm"
   height="12.29812mm"
   viewBox="0 0 85.268066 12.298119"
   version="1.1"
   id="svg1043"
   sodipodi:docname="indexol_logo3.svg"
   inkscape:version="0.92.2 (5c3e80d, 2017-08-06)">
  <defs
     id="defs1037" />
  <sodipodi:namedview
     id="base"
     pagecolor="#ffffff"
     bordercolor="#666666"
     borderopacity="1.0"
     inkscape:pageopacity="0.0"
     inkscape:pageshadow="2"
     inkscape:zoom="11.2"
     inkscape:cx="296.93067"
     inkscape:cy="35.285102"
     inkscape:document-units="mm"
     inkscape:current-layer="layer1"
     showgrid="false"
     inkscape:window-width="1920"
     inkscape:window-height="976"
     inkscape:window-x="-8"
     inkscape:window-y="-8"
     inkscape:window-maximized="1"
     showguides="true"
     inkscape:guide-bbox="true">
    <sodipodi:guide
       position="43.648453,0.025746792"
       orientation="0,1"
       id="guide1622"
       inkscape:locked="false" />
    <sodipodi:guide
       position="46.514693,2.3859746"
       orientation="0,1"
       id="guide1624"
       inkscape:locked="false" />
    <sodipodi:guide
       position="59.183495,12.244285"
       orientation="0,1"
       id="guide1626"
       inkscape:locked="false" />
  </sodipodi:namedview>
  <metadata
     id="metadata1040">
    <rdf:RDF>
      <cc:Work
         rdf:about="">
        <dc:format>image/svg+xml</dc:format>
        <dc:type
           rdf:resource="http://purl.org/dc/dcmitype/StillImage" />
      </cc:Work>
    </rdf:RDF>
  </metadata>
  <g
     inkscape:label="Layer 1"
     inkscape:groupmode="layer"
     id="layer1"
     transform="translate(131.08041,-108.79196)">
    <path
       style="fill:#ffcc00;stroke-width:0.26458332"
       inkscape:connector-curvature="0"
       id="path4857-4"
       d="m -128.46378,111.23609 h 0.40216 l -0.003,9.85399 -3.01579,-9e-4 v -7.12787 c 0,-0.99219 0.33073,-2.72521 2.61673,-2.72521 z"
       class="cls-4"
       sodipodi:nodetypes="ccccssc" />
    <path
       style="fill:#ffcc00;stroke-width:0.26458332"
       inkscape:connector-curvature="0"
       id="path4851-1"
       d="m -111.36076,111.22883 h 9.11489 c 2.325693,0 2.951874,1.15623 2.952755,2.92365 l 0.0019,3.98371 c 0,1.75424 -0.605864,2.93832 -2.939355,2.93832 l -9.13027,0.005 z m 3.02419,7.39599 4.72132,-0.003 c 0.81492,-5.8e-4 1.39041,-0.32131 1.38939,-1.02774 l -0.004,-2.88297 c -0.001,-0.87048 -0.43394,-1.03452 -1.38644,-1.03452 h -4.71488 z"
       class="cls-4"
       sodipodi:nodetypes="csscccccsssscc" />
    <path
       style="fill:#ffcc00;stroke-width:0.29475126"
       d="m -75.435329,108.84579 -8.490437,12.21854 h 3.195154 l 8.602575,-12.21854 z"
       id="path847"
       inkscape:connector-curvature="0" />
    <path
       style="fill:#0000ff;stroke-width:0.26458332"
       inkscape:connector-curvature="0"
       id="path4857-1"
       d="m -52.998437,108.87088 h 0.402172 v 7.32366 h 6.783919 v 2.52942 h -9.80281 v -7.12788 c 0,-0.99218 0.330719,-2.7252 2.616719,-2.7252 z"
       class="cls-4" />
    <path
       style="fill:#0000ff;stroke-width:0.26458332"
       inkscape:connector-curvature="0"
       id="path4861-5"
       d="m -66.761172,108.79196 h 4.598459 c 0,1.94998 -0.365125,2.53471 -2.132542,2.52148 h -1.812396 c -1.5875,0 -1.891771,0.74877 -1.891771,1.97114 v 1.05834 c 0,1.42875 0.29898,1.97114 1.72773,1.97114 h 3.487208 c 1.42875,0 1.727729,-0.54504 1.727729,-1.97114 l -0.02381,-5.51128 c 1.976437,0.21696 3.119437,1.08215 3.119437,3.50309 v 2.96068 c 0,2.88396 -1.61925,3.56394 -4.339167,3.56394 h -4.466164 c -2.722567,0 -4.339177,-0.67998 -4.339177,-3.56394 v -2.93952 c 0.005,-2.88395 1.624539,-3.56393 4.344466,-3.56393 z"
       class="cls-4"
       sodipodi:nodetypes="ccccssssccsssssccc" />
    <path
       style="fill:#ffcc00;stroke-width:0.26458332"
       inkscape:connector-curvature="0"
       id="path4863-6"
       d="m -93.939594,118.71836 v -1.5875 h 6.63575 v -2.02935 h -6.63575 v -1.56634 h 7.754938 v -2.29658 h -8.73125 c -1.116542,0 -2.016125,0.82021 -2.039938,1.83621 v 0 8.01158 h 10.951104 v -2.36802 z"
       class="cls-4" />
    <path
       style="fill:#ffcc00;stroke-width:0.26458332"
       inkscape:connector-curvature="0"
       id="path4859-4"
       d="m -113.6065,121.07451 8.5e-4,-6.90827 c 0,-1.77006 -0.64377,-2.92629 -2.96946,-2.92629 h -9.10961 v 9.8425 h 3.01889 l 0.0238,-7.39246 h 4.61698 c 0.9525,0 1.38641,0.16404 1.38641,1.03452 v 6.35 z"
       class="cls-4"
       sodipodi:nodetypes="cccccccsscc" />
    <path
       style="fill:#0000ff;stroke-width:0.26458332"
       d="m -83.925766,108.87051 8.60206,9.84539 h 3.195669 l -8.490437,-9.84539 z"
       id="path849"
       inkscape:connector-curvature="0"
       sodipodi:nodetypes="ccccc" />
    <circle
       style="fill:none;fill-opacity:1;stroke:#0000ff;stroke-width:0.40000001;stroke-miterlimit:4;stroke-dasharray:none;stroke-opacity:1"
       id="path1014"
       cx="-46.990826"
       cy="110.019"
       r="0.97115332" />
    <flowRoot
       xml:space="preserve"
       id="flowRoot1614"
       style="font-style:normal;font-weight:normal;font-size:40px;line-height:1.25;font-family:sans-serif;letter-spacing:0px;word-spacing:0px;fill:#000000;fill-opacity:1;stroke:none"
       transform="matrix(0.26458333,0,0,0.26458333,-131.08041,109.02583)"><flowRegion
         id="flowRegion1616"><rect
           id="rect1618"
           width="174.50385"
           height="85.105354"
           x="-1.5152289"
           y="-13.720338" /></flowRegion><flowPara
         id="flowPara1620"></flowPara></flowRoot>  </g>
</svg>
