<?xml version="1.0" encoding="UTF-8" standalone="no"?>
<svg
   xmlns:dc="http://purl.org/dc/elements/1.1/"
   xmlns:cc="http://creativecommons.org/ns#"
   xmlns:rdf="http://www.w3.org/1999/02/22-rdf-syntax-ns#"
   xmlns:svg="http://www.w3.org/2000/svg"
   xmlns="http://www.w3.org/2000/svg"
   xmlns:sodipodi="http://sodipodi.sourceforge.net/DTD/sodipodi-0.dtd"
   xmlns:inkscape="http://www.inkscape.org/namespaces/inkscape"
   viewBox="0 0 365.71602 45.660004"
   version="1.1"
   id="svg4867"
   sodipodi:docname="logo3.svg"
   inkscape:version="0.92.2 (5c3e80d, 2017-08-06)"
   width="365.716"
   height="45.660004">
  <metadata
     id="metadata4871">
    <rdf:RDF>
      <cc:Work
         rdf:about="">
        <dc:format>image/svg+xml</dc:format>
        <dc:type
           rdf:resource="http://purl.org/dc/dcmitype/StillImage" />
        <dc:title>Ресурс 1</dc:title>
      </cc:Work>
    </rdf:RDF>
  </metadata>
  <sodipodi:namedview
     pagecolor="#ffffff"
     bordercolor="#666666"
     borderopacity="1"
     objecttolerance="10"
     gridtolerance="10"
     guidetolerance="10"
     inkscape:pageopacity="0"
     inkscape:pageshadow="2"
     inkscape:window-width="1920"
     inkscape:window-height="976"
     id="namedview4869"
     showgrid="false"
     inkscape:zoom="3.3325295"
     inkscape:cx="167.72074"
     inkscape:cy="57.311863"
     inkscape:window-x="-8"
     inkscape:window-y="-8"
     inkscape:window-maximized="1"
     inkscape:current-layer="Слой_2" />
  <defs
     id="defs4837">
    <style
       id="style4793">.cls-1{fill:url(#linear-gradient);}.cls-2{fill:#14387f;}.cls-3{fill:url(#linear-gradient-2);}.cls-4{fill:#fc0;}</style>
    <linearGradient
       id="linear-gradient"
       x1="3.4200001"
       y1="53.560001"
       x2="453.57001"
       y2="53.560001"
       gradientUnits="userSpaceOnUse">
      <stop
         offset="0"
         stop-color="#0e2050"
         id="stop4795" />
      <stop
         offset="0.4"
         stop-color="#0093d3"
         id="stop4797" />
      <stop
         offset="0.6"
         stop-color="#0093d3"
         id="stop4799" />
      <stop
         offset="1"
         stop-color="#0e2050"
         id="stop4801" />
    </linearGradient>
    <linearGradient
       id="linear-gradient-2"
       y1="53.509998"
       x2="456.10999"
       y2="53.509998"
       gradientUnits="userSpaceOnUse">
      <stop
         offset="0"
         stop-color="#eeebe9"
         id="stop4804" />
      <stop
         offset="0"
         stop-color="#e3e3e3"
         id="stop4806" />
      <stop
         offset="0.04"
         stop-color="#d4d4d4"
         id="stop4808" />
      <stop
         offset="0.12"
         stop-color="#aeaead"
         id="stop4810" />
      <stop
         offset="0.22"
         stop-color="#70706f"
         id="stop4812" />
      <stop
         offset="0.26"
         stop-color="#575756"
         id="stop4814" />
      <stop
         offset="0.37"
         stop-color="#959594"
         id="stop4816" />
      <stop
         offset="0.46"
         stop-color="#c5c5c4"
         id="stop4818" />
      <stop
         offset="0.53"
         stop-color="#e2e2e2"
         id="stop4820" />
      <stop
         offset="0.57"
         stop-color="#ededed"
         id="stop4822" />
      <stop
         offset="0.62"
         stop-color="#e3e3e3"
         id="stop4824" />
      <stop
         offset="0.71"
         stop-color="#c9c9c9"
         id="stop4826" />
      <stop
         offset="0.82"
         stop-color="#9f9f9f"
         id="stop4828" />
      <stop
         offset="0.88"
         stop-color="#878787"
         id="stop4830" />
      <stop
         offset="1"
         stop-color="#dadada"
         id="stop4832" />
      <stop
         offset="1"
         stop-color="#b2b2b2"
         id="stop4834" />
    </linearGradient>
    <filter
       style="color-interpolation-filters:sRGB"
       inkscape:label="Drop Shadow"
       id="filter4916">
      <feFlood
         flood-opacity="1"
         flood-color="rgb(13,56,128)"
         result="flood"
         id="feFlood4906" />
      <feComposite
         in="flood"
         in2="SourceGraphic"
         operator="in"
         result="composite1"
         id="feComposite4908" />
      <feGaussianBlur
         in="composite1"
         stdDeviation="0.5"
         result="blur"
         id="feGaussianBlur4910" />
      <feOffset
         dx="2.2"
         dy="2.2"
         result="offset"
         id="feOffset4912" />
      <feComposite
         in="SourceGraphic"
         in2="offset"
         operator="over"
         result="composite2"
         id="feComposite4914" />
    </filter>
    <filter
       style="color-interpolation-filters:sRGB"
       inkscape:label="Drop Shadow"
       id="filter4928">
      <feFlood
         flood-opacity="1"
         flood-color="rgb(13,56,128)"
         result="flood"
         id="feFlood4918" />
      <feComposite
         in="flood"
         in2="SourceGraphic"
         operator="in"
         result="composite1"
         id="feComposite4920" />
      <feGaussianBlur
         in="composite1"
         stdDeviation="0.5"
         result="blur"
         id="feGaussianBlur4922" />
      <feOffset
         dx="2.2"
         dy="2.2"
         result="offset"
         id="feOffset4924" />
      <feComposite
         in="SourceGraphic"
         in2="offset"
         operator="over"
         result="composite2"
         id="feComposite4926" />
    </filter>
    <filter
       style="color-interpolation-filters:sRGB"
       inkscape:label="Drop Shadow"
       id="filter4940">
      <feFlood
         flood-opacity="1"
         flood-color="rgb(13,56,128)"
         result="flood"
         id="feFlood4930" />
      <feComposite
         in="flood"
         in2="SourceGraphic"
         operator="in"
         result="composite1"
         id="feComposite4932" />
      <feGaussianBlur
         in="composite1"
         stdDeviation="0.5"
         result="blur"
         id="feGaussianBlur4934" />
      <feOffset
         dx="2.2"
         dy="2.2"
         result="offset"
         id="feOffset4936" />
      <feComposite
         in="SourceGraphic"
         in2="offset"
         operator="over"
         result="composite2"
         id="feComposite4938" />
    </filter>
    <filter
       style="color-interpolation-filters:sRGB"
       inkscape:label="Drop Shadow"
       id="filter4952">
      <feFlood
         flood-opacity="1"
         flood-color="rgb(13,56,128)"
         result="flood"
         id="feFlood4942" />
      <feComposite
         in="flood"
         in2="SourceGraphic"
         operator="in"
         result="composite1"
         id="feComposite4944" />
      <feGaussianBlur
         in="composite1"
         stdDeviation="0.5"
         result="blur"
         id="feGaussianBlur4946" />
      <feOffset
         dx="2.2"
         dy="2.2"
         result="offset"
         id="feOffset4948" />
      <feComposite
         in="SourceGraphic"
         in2="offset"
         operator="over"
         result="composite2"
         id="feComposite4950" />
    </filter>
    <filter
       style="color-interpolation-filters:sRGB"
       inkscape:label="Drop Shadow"
       id="filter4964">
      <feFlood
         flood-opacity="1"
         flood-color="rgb(13,56,128)"
         result="flood"
         id="feFlood4954" />
      <feComposite
         in="flood"
         in2="SourceGraphic"
         operator="in"
         result="composite1"
         id="feComposite4956" />
      <feGaussianBlur
         in="composite1"
         stdDeviation="0.5"
         result="blur"
         id="feGaussianBlur4958" />
      <feOffset
         dx="2.2"
         dy="2.2"
         result="offset"
         id="feOffset4960" />
      <feComposite
         in="SourceGraphic"
         in2="offset"
         operator="over"
         result="composite2"
         id="feComposite4962" />
    </filter>
    <filter
       style="color-interpolation-filters:sRGB"
       inkscape:label="Drop Shadow"
       id="filter4976">
      <feFlood
         flood-opacity="1"
         flood-color="rgb(13,56,128)"
         result="flood"
         id="feFlood4966" />
      <feComposite
         in="flood"
         in2="SourceGraphic"
         operator="in"
         result="composite1"
         id="feComposite4968" />
      <feGaussianBlur
         in="composite1"
         stdDeviation="0.5"
         result="blur"
         id="feGaussianBlur4970" />
      <feOffset
         dx="2.2"
         dy="2.2"
         result="offset"
         id="feOffset4972" />
      <feComposite
         in="SourceGraphic"
         in2="offset"
         operator="over"
         result="composite2"
         id="feComposite4974" />
    </filter>
    <filter
       style="color-interpolation-filters:sRGB"
       inkscape:label="Drop Shadow"
       id="filter4988">
      <feFlood
         flood-opacity="1"
         flood-color="rgb(13,56,128)"
         result="flood"
         id="feFlood4978" />
      <feComposite
         in="flood"
         in2="SourceGraphic"
         operator="in"
         result="composite1"
         id="feComposite4980" />
      <feGaussianBlur
         in="composite1"
         stdDeviation="0.5"
         result="blur"
         id="feGaussianBlur4982" />
      <feOffset
         dx="2.2"
         dy="2.2"
         result="offset"
         id="feOffset4984" />
      <feComposite
         in="SourceGraphic"
         in2="offset"
         operator="over"
         result="composite2"
         id="feComposite4986" />
    </filter>
    <filter
       style="color-interpolation-filters:sRGB"
       inkscape:label="Drop Shadow"
       id="filter5132">
      <feFlood
         flood-opacity="1"
         flood-color="rgb(13,56,128)"
         result="flood"
         id="feFlood5122" />
      <feComposite
         in="flood"
         in2="SourceGraphic"
         operator="in"
         result="composite1"
         id="feComposite5124" />
      <feGaussianBlur
         in="composite1"
         stdDeviation="0.4"
         result="blur"
         id="feGaussianBlur5126" />
      <feOffset
         dx="0.7"
         dy="0.7"
         result="offset"
         id="feOffset5128" />
      <feComposite
         in="SourceGraphic"
         in2="offset"
         operator="over"
         result="composite2"
         id="feComposite5130" />
    </filter>
  </defs>
  <title
     id="title4839">Ресурс 1</title>
  <g
     id="Слой_2"
     data-name="Слой 2"
     transform="translate(-50.470371,-27.555237)">
    <path
       style="fill:#ffcc00;filter:url(#filter5132)"
       inkscape:connector-curvature="0"
       id="path4849-5"
       d="m 407.41137,31.740237 a 5.07,5.07 0 1 1 -5.24,5.05 5.06,5.06 0 0 1 5.24,-5.05 z m -0.06,1 a 4.0401114,4.0401114 0 0 0 0.06,8.08 3.86,3.86 0 0 0 3.85,-4 3.9,3.9 0 0 0 -3.89,-4 z m -0.77,6.72 h -1.17 v -5 a 9.6,9.6 0 0 1 1.94,-0.19 2.87,2.87 0 0 1 1.76,0.4 1.4,1.4 0 0 1 0.49,1.08 1.3,1.3 0 0 1 -1,1.2 v 0.06 c 0.49,0.15 0.77,0.55 0.92,1.23 a 3.38,3.38 0 0 0 0.37,1.23 h -1.26 a 3.91,3.91 0 0 1 -0.4,-1.2 c -0.09,-0.55 -0.4,-0.8 -1,-0.8 h -0.56 z m 0,-2.84 h 0.55 c 0.65,0 1.17,-0.22 1.17,-0.74 0,-0.52 -0.34,-0.77 -1.08,-0.77 a 2.89,2.89 0 0 0 -0.64,0.06 z"
       class="cls-4" />
    <path
       style="fill:#ffcc00;filter:url(#filter4988)"
       inkscape:connector-curvature="0"
       id="path4851-5"
       d="m 55.031371,31.780237 h 34.45 c 8.79,0 11.159999,4.37 11.159999,11.05 v 2.36 c 0,5 -1.129999,7.92 -6.369999,9.15 v 0.12 c 3.4,0.62 6.219999,2.11 6.219999,8.23 v 6.32 H 89.071371 v -4.48 c 0,-3.91 -1.13,-5.19 -4.68,-5.19 h -17.91 v 9.67 h -11.45 z m 11.45,18.3 h 18.84 c 3.08,0 4.22,-1.23 4.22,-3.9 v -1.24 c 0,-3.29 -1.64,-3.91 -5.24,-3.91 h -17.82 z"
       class="cls-4" />
    <path
       style="fill:#ffcc00;filter:url(#filter4976)"
       inkscape:connector-curvature="0"
       id="path4853-7"
       d="m 153.28137,42.860237 c 0,-6.69 -2.37,-11.06 -11.16,-11.06 h -22.16 c -8.79,0 -11.16,4.37 -11.16,11.06 l -0.06,26.11 h 11.41 v -9.67 h 4.52 v 0 h 0.32 12.1 0.32 v 0 h 4.52 v 9.67 h 11.41 z m -11.36,7.19 h -21.76 v -3.59 -1.48 c 0,-3.29 1.64,-3.91 5.24,-3.91 h 11.3 c 3.6,0 5.24,0.62 5.24,3.91 v 5.08 z"
       class="cls-4" />
    <path
       style="fill:#ffcc00;filter:url(#filter4964)"
       inkscape:connector-curvature="0"
       id="path4855-2"
       d="m 155.73137,31.780237 h 12.5 l 14.54,27.68 14.55,-27.66 h 12.5 l -20,37.22 h -14.09 z"
       class="cls-4" />
    <path
       style="fill:#ffcc00;filter:url(#filter4952)"
       inkscape:connector-curvature="0"
       id="path4857-7"
       d="m 385.32137,31.780237 h 1.52 v 27.68 h 25.64 v 9.56 h -37.05 v -26.94 c 0,-3.75 1.25,-10.3 9.89,-10.3 z"
       class="cls-4" />
    <path
       style="fill:#ffcc00;filter:url(#filter4940)"
       inkscape:connector-curvature="0"
       id="path4859-3"
       d="m 308.26137,68.970237 -0.06,-26.11 c 0,-6.69 -2.37,-11.06 -11.16,-11.06 h -16.73 v 0 h -17.7 v 37.2 h 11.41 l 0.09,-27.94 h 17.45 c 3.6,0 5.24,0.62 5.24,3.91 v 24 z"
       class="cls-4" />
    <path
       style="fill:#ffcc00;filter:url(#filter4928)"
       inkscape:connector-curvature="0"
       id="path4861-5"
       d="m 350.20137,31.360237 h -17.38 c 0,7.37 1.38,9.58 8.06,9.53 0.48,0 2.92,0 3.31,0 h 3.54 c 6,0 7.15,2.83 7.15,7.45 v 4 c 0,5.4 -1.13,7.45 -6.53,7.45 h -13.18 c -5.4,0 -6.53,-2.06 -6.53,-7.45 v -4 a 18.89,18.89 0 0 1 0.09,-2 c 0,-0.09 0,-0.17 0,-0.27 0,-2.92 0,-9 0,-14.56 -7.47,0.82 -11.79,4.09 -11.79,13.24 v 11.19 c 0,10.9 6.12,13.47 16.4,13.47 h 16.88 c 10.29,0 16.4,-2.57 16.4,-13.47 v -11.11 c -0.02,-10.9 -6.14,-13.47 -16.42,-13.47 z"
       class="cls-4" />
    <path
       style="fill:#ffcc00;filter:url(#filter4916)"
       inkscape:connector-curvature="0"
       id="path4863-7"
       d="m 224.34137,60.050237 v -6 h 25.08 v -7.67 h -25.08 v -5.92 h 29.31 v -8.68 h -33 c -4.22,0 -7.62,3.1 -7.71,6.94 v 0 30.28 h 41.39 v -8.95 z"
       class="cls-4" />
  </g>
</svg>
